STARTFONT 2.1
COMMENT
COMMENT Converted from OpenType font "Q:\font stuff\winfont\Yorkshire.otf" by "otf2bdf 3.0".
COMMENT
FONT -FreeType-Yorkshire-Medium-R-Normal--72-720-72-72-P-494-ISO10646-1
SIZE 72 72 72
FONTBOUNDINGBOX 164 107 -24 -26
STARTPROPERTIES 19
FOUNDRY "FreeType"
FAMILY_NAME "Yorkshire"
WEIGHT_NAME "Medium"
SLANT "R"
SETWIDTH_NAME "Normal"
ADD_STYLE_NAME ""
PIXEL_SIZE 72
POINT_SIZE 720
RESOLUTION_X 72
RESOLUTION_Y 72
SPACING "P"
AVERAGE_WIDTH 494
CHARSET_REGISTRY "ISO10646"
CHARSET_ENCODING "1"
FONT_ASCENT 81
FONT_DESCENT 27
COPYRIGHT "N/A"
_OTF_FONTFILE "Q:\font stuff\winfont\Yorkshire.otf"
_OTF_PSNAME "Yorkshire"
ENDPROPERTIES
CHARS 208
STARTCHAR 0020
ENCODING 32
SWIDTH 291 0
DWIDTH 21 0
BBX 0 0 0 0
BITMAP
ENDCHAR
STARTCHAR 0021
ENCODING 33
SWIDTH 305 0
DWIDTH 22 0
BBX 38 54 9 0
BITMAP
000000000C
000000003C
000000007C
00000000FC
00000001F8
00000003F8
00000007F0
0000000FF0
0000001FE0
0000003FE0
0000003FC0
0000007F80
000000FF80
000001FF00
000001FE00
000003FE00
000003FC00
000007F800
000007F000
00000FE000
00001FC000
00001FC000
00003F8000
00003F0000
00007E0000
00007C0000
0000F80000
0001F00000
0001E00000
0003E00000
0003C00000
0007800000
000F000000
000E000000
001C000000
0018000000
0030000000
0030000000
0060000000
00C0000000
0080000000
0100000000
0100000000
0000000000
0000000000
0000000000
0800000000
3E00000000
7F00000000
FF00000000
FF00000000
FF00000000
FE00000000
7C00000000
ENDCHAR
STARTCHAR 0023
ENCODING 35
SWIDTH 527 0
DWIDTH 38 0
BBX 34 55 19 1
BITMAP
0000F00F00
0000F01E00
0000F01E00
0000F01E00
0001E01E00
0001E03C00
0001E03C00
0001E03C00
0003C03C00
0003C07800
0003C07800
0003C07800
0007807800
000780F000
000780F000
000780F000
000F00F000
000F01E000
0FFFFFFFC0
0FFFFFFFC0
0FFFFFFF80
001E03C000
001E03C000
001C03C000
003C03C000
003C078000
003C078000
003C078000
0038078000
0078070000
00780F0000
00780F0000
00780F0000
00F00F0000
7FFFFFFC00
7FFFFFFC00
FFFFFFFC00
01E03C0000
01E03C0000
01E03C0000
01C03C0000
03C0780000
03C0780000
03C0780000
0380780000
0780F00000
0780F00000
0780F00000
0700F00000
0F01E00000
0F01E00000
0F01E00000
0E01E00000
1E03C00000
1E03C00000
ENDCHAR
STARTCHAR 0024
ENCODING 36
SWIDTH 972 0
DWIDTH 70 0
BBX 80 66 14 -8
BITMAP
0000000000000000003C
000000000000000001C6
00000000000000000301
00000000000000000E01
00000000000730003C01
00000000000660007803
00000000000C6000F002
00000000000CC001E006
0000000000198003E00C
0000000000198007C00C
000000000033000F8018
000000000063000F8030
000000000066001F0060
0000000000CC003F01C0
0000000000CC003E0380
000000000198007E0700
0000000003B0007C0C00
00000000033000FC3800
00000000066000FC7000
00000000064001FDC000
0000003FFDC001FE0000
000001F807C003F80000
000007C001E003F00000
00001F00007003F00000
00003C00003007F00000
0000F00000180FE00000
0001E00000081FE00000
00038000000C3FE00000
000300000004EFE00000
000600000005CFC00000
000E000000079FC00000
001C000000061FC00000
00180000000C1FC00000
00300000003C1F800000
0030000000743F800000
0060000001CC3F000000
00600000038C3F000000
004000000E087F000000
00C000001C087E000000
00C0000070107E000000
00800001E010FC000000
008000038020FC000000
0080000F0041F8000000
0080001C0081F8000000
008000780103F0000000
008001E00203E0000000
008003C00C07C0000000
00800F003007C0000000
00C03C00000F80000000
00407800001F00000000
0041E000003E00000000
806F8000003C00000000
C03F0000007800000000
61FC000000E000000000
1FF8000001C000000000
000C0000078000000000
000300000E0000000000
0003C000380000000000
00067801E00000000000
00047FFF000000000000
000CE000000000000000
0008C000000000000000
0019C000000000000000
00318000000000000000
00230000000000000000
00670000000000000000
ENDCHAR
STARTCHAR 0025
ENCODING 37
SWIDTH 750 0
DWIDTH 54 0
BBX 69 58 8 -2
BITMAP
0000000007C0000018
000000001FE0000078
000000007F300000F8
00000000FC100000F8
00000001F8100003F0
00000003F8100007E0
00000007F010001F80
0000000FF030003F00
0000001FD03000FC00
0000003F906001F000
0000007F08E00F8000
0000007E0DE1FE0000
000000FE07FF9C0000
000000FC0380780000
000001F80700F00000
000001F00F01E00000
000003F01E03800000
000003E03C07000000
000003C0781E000000
000003C0F03C000000
00000383E078000000
0000018781F0000000
0000018F03E0000000
000000FC07C0000000
000000001F80000000
000000003F00000000
000000007E00000000
00000000F800000000
00000001F000000000
00000007E000000000
0000000FC000000000
0000001F8000000000
0000003E0000000000
0000007C001F800000
000000F8007CC00000
000003F000F0600000
000007E003E0600000
00000F8007C0600000
00001F000F80E00000
00003E001F80E00000
000078003F01E00000
0001F0007E01C00000
0003E000FC03C00000
00078000F803800000
000F0001F807800000
001E0001F00F000000
00380003E00E000000
00700003C01E000000
00C00007C03C000000
038000078078000000
0700000780F0000000
0C00000701E0000000
1800000703C0000000
100000030700000000
20000003BE00000000
40000000F800000000
400000000000000000
800000000000000000
ENDCHAR
STARTCHAR 0026
ENCODING 38
SWIDTH 1166 0
DWIDTH 84 0
BBX 68 59 35 0
BITMAP
001FFF800000000000
00F000600000000000
038000000000000000
0F0000000000000000
1C000000001FFFC000
3800000007F8003C00
780000007FC0000F00
70000001FF00000300
70000007FC00000380
E000000FF000000380
E000001FE000000380
E000003FC000000780
E000007F0000000F00
E00000FE0000001E00
600000FE0000003C00
700001FC0000007800
300001F8000001E000
180003F800000F8000
0C0003F000007C0000
060003F00003E00000
018003F0003E000000
007803F007C0000000
0007FFFFF800000000
000001F00000000000
000001F00000000000
000000F00000000000
000000700000000000
00000038FF80000000
0000003FFFC0000000
000000FFFFC0000000
000007C0FF80000000
00007E000000000000
0003F0000000000030
000FC0000000000060
003F800FFFFFFFFF80
00FE003FFFFFFFFF00
01FC007FFFFFFFFE00
03F800FFFFFFFFFC00
0FF001FFFFFFFFE000
1FE003FFFFFFF80000
1FC00780007F000000
3F801800003E000000
3F803000003E000000
7F000000003E000000
7F000000003C000000
FE000000003C000000
FE0000000078000000
FE00000000F0000000
FC00000000E0000000
FC00000001C0000000
FC0000000380000000
FC0000000F00000000
7E0000001C00000000
7E0000007800000000
3F000000E000000000
3F8000070000000000
1FE0001C0000000000
07FF01E00000000000
01FFFE000000000000
ENDCHAR
STARTCHAR 0028
ENCODING 40
SWIDTH 319 0
DWIDTH 23 0
BBX 49 71 10 -9
BITMAP
00000000000180
00000000000700
00000000000E00
00000000001C00
00000000003800
00000000007000
0000000000E000
0000000001E000
0000000003C000
00000000078000
000000000F0000
000000001E0000
000000003C0000
00000000780000
00000000F00000
00000001F00000
00000001E00000
00000003C00000
00000007800000
0000000F000000
0000001F000000
0000003E000000
0000003C000000
00000078000000
000000F8000000
000001F0000000
000003E0000000
000003C0000000
000007C0000000
00000F80000000
00001F00000000
00001F00000000
00003E00000000
00007C00000000
0000FC00000000
0000F800000000
0001F000000000
0003F000000000
0003E000000000
0007C000000000
0007C000000000
000F8000000000
001F0000000000
001F0000000000
003E0000000000
003C0000000000
007C0000000000
00780000000000
00F80000000000
00F00000000000
01E00000000000
01E00000000000
03C00000000000
03C00000000000
07800000000000
07000000000000
0F000000000000
0E000000000000
0E000000000000
1C000000000000
1C000000000000
38000000000000
38000000000000
30000000000000
70000000000000
70000000000000
60000000000000
60000000000000
E0000000000000
C0000000000000
C0000000000000
ENDCHAR
STARTCHAR 0029
ENCODING 41
SWIDTH 333 0
DWIDTH 24 0
BBX 48 70 -1 -8
BITMAP
000000000003
000000000003
000000000007
000000000007
000000000006
000000000006
00000000000E
00000000000C
00000000001C
00000000001C
000000000038
000000000038
000000000078
000000000070
0000000000F0
0000000000E0
0000000001E0
0000000003C0
0000000003C0
000000000780
000000000780
000000000F00
000000001F00
000000001E00
000000003E00
000000003C00
000000007C00
00000000F800
00000000F800
00000001F000
00000003E000
00000003E000
00000007C000
0000000FC000
0000000F8000
0000001F0000
0000003F0000
0000003E0000
0000007C0000
000000F80000
000000F80000
000001F00000
000003E00000
000003C00000
000007C00000
00000F800000
00001F000000
00001E000000
00003C000000
00007C000000
0000F8000000
0000F0000000
0001E0000000
0003C0000000
000780000000
000F80000000
000F00000000
001E00000000
003C00000000
007800000000
00F000000000
01E000000000
03C000000000
078000000000
0F0000000000
0E0000000000
1C0000000000
380000000000
700000000000
E00000000000
ENDCHAR
STARTCHAR 002A
ENCODING 42
SWIDTH 472 0
DWIDTH 34 0
BBX 18 22 35 26
BITMAP
004000
004000
00C000
00C000
40C000
F0C3C0
F8CF80
7CDF00
3EBC00
0FF800
03E000
07F000
1FF800
3FFE00
7EDF00
7CCF80
F0C380
00C000
00C000
00C000
008000
008000
ENDCHAR
STARTCHAR 002B
ENCODING 43
SWIDTH 750 0
DWIDTH 54 0
BBX 41 38 23 8
BITMAP
0000000F8000
0000000F8000
0000001F0000
0000001F0000
0000003E0000
0000003E0000
0000007C0000
0000007C0000
000000F80000
000001F00000
000001F00000
000003E00000
000003E00000
000007C00000
000007C00000
00000F800000
00000F800000
3FFFFFFFFF80
7FFFFFFFFF00
7FFFFFFFFE00
FFFFFFFFFE00
00007C000000
0000F8000000
0000F0000000
0001F0000000
0003E0000000
0003E0000000
0007C0000000
0007C0000000
000F80000000
000F80000000
001F00000000
001F00000000
003E00000000
003E00000000
007C00000000
00FC00000000
00F800000000
ENDCHAR
STARTCHAR 002C
ENCODING 44
SWIDTH 208 0
DWIDTH 15 0
BBX 13 14 0 -8
BITMAP
00F0
03F8
03F8
07F8
07F8
07F0
07F0
03E0
01C0
0380
0600
1C00
F000
C000
ENDCHAR
STARTCHAR 002E
ENCODING 46
SWIDTH 222 0
DWIDTH 16 0
BBX 8 8 6 0
BITMAP
1C
3E
7F
FF
FF
FF
FE
78
ENDCHAR
STARTCHAR 002F
ENCODING 47
SWIDTH 361 0
DWIDTH 26 0
BBX 38 53 13 0
BITMAP
0000000004
000000000C
0000000008
0000000018
0000000010
0000000030
0000000060
0000000060
00000000C0
0000000180
0000000300
0000000700
0000000E00
0000001C00
0000003800
0000007000
0000006000
000000C000
000001C000
0000038000
0000070000
00000E0000
00001C0000
0000380000
0000380000
0000700000
0000E00000
0001C00000
0003800000
0007000000
0006000000
000E000000
001C000000
0038000000
0030000000
0060000000
00E0000000
01C0000000
0180000000
0300000000
0700000000
0600000000
0E00000000
1C00000000
1800000000
3800000000
7000000000
7000000000
E000000000
C000000000
C000000000
8000000000
8000000000
ENDCHAR
STARTCHAR 0030
ENCODING 48
SWIDTH 750 0
DWIDTH 54 0
BBX 57 53 16 1
BITMAP
00000000001FF000
0000000001F81C00
0000000007E00E00
000000003F800700
00000000FE000300
00000003FC000380
00000007F8000380
0000001FE0000380
0000007FC0000380
000000FF80000780
000001FF00000780
000003FE00000F80
00000FFC00000F80
00001FF800001F80
00003FE000001F00
00007FC000003F00
0000FF8000007F00
0001FF0000007E00
0003FE000000FE00
0007FC000001FC00
000FF8000001FC00
001FF0000003F800
003FF0000007F800
007FE000000FF000
007FC000000FF000
00FF8000001FE000
01FF0000003FC000
03FE0000007FC000
03FC000000FF8000
07F8000001FF0000
0FF0000003FE0000
0FE0000003FE0000
1FE0000007FC0000
1FC000000FF80000
3F8000001FF00000
3F8000003FE00000
7F0000007FC00000
7E000000FF800000
7E000003FF000000
FC000007FE000000
FC00000FFC000000
F800001FF8000000
F800003FE0000000
F000007FC0000000
F00001FF80000000
E00003FE00000000
E00007FC00000000
60001FF000000000
60007FC000000000
2000FF0000000000
1007FC0000000000
0E7FE00000000000
03FE000000000000
ENDCHAR
STARTCHAR 0031
ENCODING 49
SWIDTH 750 0
DWIDTH 54 0
BBX 49 53 21 0
BITMAP
00000000000180
00000000000380
00000000000700
00000000000F00
00000000001E00
00000000003C00
00000000007800
0000000000F000
0000000001E000
0000000003C000
00000000078000
000000001F8000
000000003F0000
000000007E0000
00000001FC0000
00000003F80000
00000006F00000
0000001DE00000
0000007BC00000
000000E7800000
000003CF000000
0000071E000000
00000E3E000000
00003C7C000000
000070F8000000
0000E1F0000000
000003E0000000
000007C0000000
00000FC0000000
00001F80000000
00003F00000000
00007E00000000
0000FC00000000
0001FC00000000
0003F800000000
0007F000000000
000FE000000000
001FE000000000
003FC000000000
007F8000000000
00FF0000000000
00FF0000000000
01FE0000000000
03FC0000000000
07F80000000000
0FF80000000000
1FF00000000000
1FE00000000000
3FE00000000000
7FC00000000000
7F800000000000
FF800000000000
FF000000000000
ENDCHAR
STARTCHAR 0032
ENCODING 50
SWIDTH 750 0
DWIDTH 54 0
BBX 60 53 10 1
BITMAP
00000000001FF800
0000000000E0FF00
0000000007003F80
0000000018001FC0
0000000060001FE0
0000000080000FE0
0000000300000FF0
0000000600000FF0
0000000800000FF0
0000001000000FF0
0000002000000FF0
0000006000001FF0
00000040E0001FF0
00000083F8003FE0
00000083F8003FE0
00000107F8007FE0
00000107F8007FC0
00000107F800FF80
00000107F001FF80
00000103E003FF00
00000181C007FE00
000000C3800FFC00
0000007E001FF800
00000000003FF000
00000000007FE000
0000000000FF8000
0000000001FF0000
0000000007FC0000
000000000FF00000
000000001FE00000
000000007F800000
00000000FC000000
00000003F0000000
0000000FC0000000
0000003F00000000
000000F800000000
000003E000000000
00000F8000000000
00003E0000000000
0000F80000000000
0003E00000000000
000F800000000000
003E000000000000
0078000000000000
01E0000000000000
0380000038000000
06000001F8000000
0C3FFFFFF0000000
1BFFFFFFE0000000
3FFFFFFFC0000000
7FFFFFFF80000000
FFFFFFFE00000000
FFFFFFF000000000
ENDCHAR
STARTCHAR 0033
ENCODING 51
SWIDTH 750 0
DWIDTH 54 0
BBX 63 54 15 -2
BITMAP
000000000FFFFFFE
000000007FFFFFFC
00000001FFFFFFF8
00000007FFFFFFF0
0000000FFFFFFFE0
0000001FFFFFFFC0
0000003E00000380
0000007000000700
000000E000001C00
0000008000007800
000000000000E000
0000000000038000
00000000000E0000
00000000001C0000
0000000000700000
0000000001C00000
0000000007800000
000000001E000000
0000000078000000
00000001E0000000
0000000780000000
0000003F00000000
000001FC00000000
000007FFE0000000
00001F01FC000000
00001C00FE000000
000010007F000000
000000003F800000
000000003F800000
000000003FC00000
000000003FC00000
000000003FC00000
000000003FC00000
000000007FC00000
000000007FC00000
000000007F800000
00000000FF800000
07E00000FF800000
0CF00001FF000000
11F80003FE000000
23F80003FE000000
47F80007FC000000
47F8000FF8000000
87F0001FF0000000
87F0003FE0000000
83C0007FC0000000
800000FF00000000
800001FE00000000
C00003FC00000000
400007F000000000
60001FC000000000
30007F0000000000
0E01FC0000000000
01FFC00000000000
ENDCHAR
STARTCHAR 0034
ENCODING 52
SWIDTH 750 0
DWIDTH 54 0
BBX 55 52 18 1
BITMAP
000000000007FE
00000000000FFE
00000000001FF8
00000000003FF0
00000000007FE0
0000000000FF80
0000000001FF00
0000000003FC00
0000000007F000
000000000FE030
000000003F8070
000000007E00E0
00000000F801C0
00000003E00380
00000007800700
0000001E000F00
00000078001E00
000000E0003C00
00000380007800
00000E0000F000
0000380001E000
0000E00003E000
0003800007C000
000600000F8000
001800001F0000
006000007E0000
01C00000FC0000
03000001FC0000
04000001F80000
18000003F00000
30000007E00000
4000000FC00000
8000001FC00000
8000003F800000
8000007F000000
F00001FE000000
3FFFFFFFFF0000
00000FF8000000
00001FF0000000
00001FE0000000
00003FE0000000
00007FC0000000
00007F80000000
0000FF00000000
0001FF00000000
0003FE00000000
0003FC00000000
0007FC00000000
000FF800000000
000FF000000000
001FE000000000
001FE000000000
ENDCHAR
STARTCHAR 0035
ENCODING 53
SWIDTH 750 0
DWIDTH 54 0
BBX 64 56 15 -2
BITMAP
0000000000000001
000000000000000F
0000000003FFFFFE
000000000FFFFFFC
000000003FFFFFF8
000000007FFFFFF0
000000007FFFFFC0
00000000FFFFFF00
00000001FFF80000
00000003C0000000
0000000300000000
0000000600000000
0000000C00000000
0000001800000000
0000003000000000
0000002000000000
0000004000000000
000000C000000000
0000018000000000
0000010000000000
0000021FF8000000
000005E03F000000
00000F001F800000
00001E000FE00000
000018000FE00000
0000300007F00000
0000000007F00000
0000000007F80000
0000000007F80000
0000000007F80000
0000000007F80000
000000000FF80000
000000000FF80000
000000000FF80000
000000001FF00000
000000001FF00000
000000003FE00000
000000003FE00000
03F000007FC00000
04780000FF800000
19FC0000FF800000
31FC0001FF000000
23FC0003FE000000
43FC0007FC000000
43F8000FF8000000
83F8001FF0000000
81E0003FE0000000
8000007FC0000000
800000FF00000000
800001FE00000000
C00003F800000000
40000FF000000000
60001FC000000000
30007E0000000000
1C03F00000000000
03FF000000000000
ENDCHAR
STARTCHAR 0036
ENCODING 54
SWIDTH 750 0
DWIDTH 54 0
BBX 59 55 20 -2
BITMAP
000000000003FE00
00000000003F8780
0000000001F800C0
000000000FE00040
000000003F800060
00000000FE000020
00000003FC003820
0000000FF000FC20
0000003FE001FE20
0000007FC003FE40
000001FF0003FE40
000003FE0003FC80
000007FC0003F980
00001FF80001F200
00003FE00000FC00
00007FC000000000
0000FF8000000000
0001FF0000000000
0003FE0000000000
0007FC0000000000
000FF81FE0000000
001FF1E0F0000000
003FE7003C000000
007FFC003E000000
00FFF8001E000000
00FFE0001F000000
01FFC0001F000000
03FF80001F800000
07FF00001F800000
07FC00001F800000
0FF800003F800000
0FF000003F800000
1FE000003F800000
1FE000007F800000
3FC000007F000000
3F800000FF000000
7F000000FF000000
7F000001FE000000
7E000003FE000000
FE000003FC000000
FC000007F8000000
FC00000FF8000000
F800001FF0000000
F800003FE0000000
F800007FC0000000
F000007F80000000
F00000FF00000000
700003FC00000000
700007F800000000
30000FE000000000
30001FC000000000
18007F0000000000
0C00FC0000000000
0607E00000000000
01FF000000000000
ENDCHAR
STARTCHAR 0037
ENCODING 55
SWIDTH 750 0
DWIDTH 54 0
BBX 62 53 15 0
BITMAP
0000000000000004
00000001FFFFFFFC
00000007FFFFFFF8
0000000FFFFFFFF8
0000001FFFFFFFF0
0000003FFFFFFFE0
0000007FFFFFFFC0
000000F800000380
0000018000000600
0000000000000C00
0000000000003800
0000000000007000
000000000000E000
000000000003C000
0000000000070000
00000000001E0000
00000000003C0000
0000000000F80000
0000000001F00000
0000000007E00000
000000000FC00000
000000001F800000
000000007F000000
00000000FE000000
00000001F8000000
00000007F0000000
0000000FE0000000
0000001FC0000000
0000003F80000000
000000FF00000000
000001FE00000000
000003FC00000000
000007F000000000
00001FE000000000
00003FC000000000
00007F8000000000
0000FF0000000000
0001FE0000000000
0007FC0000000000
000FF80000000000
001FF00000000000
003FE00000000000
007FC00000000000
00FF800000000000
01FF000000000000
03FE000000000000
07FC000000000000
0FF8000000000000
1FF0000000000000
3FE0000000000000
3FC0000000000000
7F80000000000000
FF80000000000000
ENDCHAR
STARTCHAR 0038
ENCODING 56
SWIDTH 750 0
DWIDTH 54 0
BBX 58 54 15 -1
BITMAP
0000000001FFC000
000000000F80F800
000000007C003C00
00000001F0001E00
00000003E0000F00
00000007C0000F80
0000000F80000FC0
0000001F00000FC0
0000003E00000FC0
0000003E00000FC0
0000007C00001FC0
0000007C00001FC0
000000FC00003F80
000000FC00003F80
000000FC00007F00
000000FC0000FE00
000000FC0001FC00
000000FE0003F800
000000FF0007F000
0000007F001FC000
0000007F807F0000
0000007FE3F80000
0000007FFFC00000
0000003FFE000000
0000007FF8000000
000007FFFC000000
00007F0FFC000000
0003F807FE000000
001FC003FE000000
003F0003FF000000
00FE0001FF000000
03F80000FF800000
07F00000FF800000
0FE000007F800000
1FC000007FC00000
3F8000007FC00000
7F0000003FC00000
7F0000003FC00000
7E0000003FC00000
FE0000003FC00000
FC0000003F800000
FC0000003F800000
FC0000003F800000
FC0000007F000000
FC0000007E000000
7C000000FC000000
7C000001F8000000
3E000001F0000000
1E000007E0000000
0F00000F80000000
0780001F00000000
03E0007C00000000
00FC07E000000000
000FFE0000000000
ENDCHAR
STARTCHAR 0039
ENCODING 57
SWIDTH 750 0
DWIDTH 54 0
BBX 59 54 11 1
BITMAP
00000000000FF000
00000000007E0C00
0000000003F80200
000000000FE00100
000000003F800080
00000000FF0000C0
00000001FE0000C0
00000007FC0000E0
0000000FF80000E0
0000001FF00000E0
0000003FE00000E0
0000007FC00001E0
000000FF800001E0
000001FF000001E0
000001FE000003E0
000003FE000003C0
000003FC000007C0
000007F8000007C0
000007F800000FC0
00000FF000001F80
00000FE000003F80
00000FE000003F00
00001FC000007F00
00001FC00000FE00
00001FC00001FE00
00001F800003FC00
00001F800007F800
00001F80001FF800
00000F80003FF000
00000F80007FE000
000007C001FFC000
000007C003FF8000
000003E00EFF8000
000000F038FF0000
0000003FC1FE0000
0000000003FC0000
000000000FF80000
000000001FF00000
000000003FC00000
000000007F800000
03F00000FF000000
0EF80001FE000000
11FC0007F8000000
23FC000FF0000000
47FC003FC0000000
47F8007F80000000
87F801FE00000000
83E003F800000000
80000FE000000000
C0003F8000000000
4000FC0000000000
6007F00000000000
3EFF000000000000
07F0000000000000
ENDCHAR
STARTCHAR 003A
ENCODING 58
SWIDTH 236 0
DWIDTH 17 0
BBX 19 25 7 0
BITMAP
000380
0007C0
000FE0
001FE0
001FE0
001FC0
001FC0
000F00
000000
000000
000000
000000
000000
000000
000000
000000
000000
1C0000
3E0000
7F0000
FF0000
FF0000
FF0000
FE0000
780000
ENDCHAR
STARTCHAR 003B
ENCODING 59
SWIDTH 250 0
DWIDTH 18 0
BBX 24 33 2 -8
BITMAP
00001C
00003E
00007F
0000FF
0000FF
0000FF
0000FE
000078
000000
000000
000000
000000
000000
000000
000000
000000
000000
000000
000000
01F000
03F800
03F800
07F800
07F800
07F000
03E000
01E000
01C000
030000
060000
1C0000
F00000
C00000
ENDCHAR
STARTCHAR 003D
ENCODING 61
SWIDTH 750 0
DWIDTH 54 0
BBX 45 13 22 21
BITMAP
03FFFFFFFFF8
07FFFFFFFFF0
07FFFFFFFFE0
0FFFFFFFFFE0
000000000000
000000000000
000000000000
000000000000
000000000000
7FFFFFFFFF00
7FFFFFFFFE00
FFFFFFFFFE00
FFFFFFFFFC00
ENDCHAR
STARTCHAR 003F
ENCODING 63
SWIDTH 638 0
DWIDTH 46 0
BBX 44 54 25 1
BITMAP
0000007FE000
00000781FC00
000018007E00
000060003F80
000180001F80
000200001FC0
000C00000FE0
001800000FE0
003000000FF0
006000000FF0
00C000000FF0
008000000FF0
010000001FF0
030000001FF0
020000003FF0
020000003FE0
060000007FE0
040000007FC0
04004000FFC0
0400C001FF80
06008003FF00
02010003FE00
01060007FC00
00F8000FF800
0000001FE000
0000007FC000
000000FF0000
000001FE0000
000003F80000
00000FE00000
00001F800000
00007E000000
0001F0000000
0007C0000000
001E00000000
007800000000
00E000000000
018000000000
030000000000
060000000000
040000000000
040000000000
040000000000
060000000000
03E000000000
000000000000
100000000000
7C0000000000
FC0000000000
FC0000000000
FC0000000000
FC0000000000
F80000000000
700000000000
ENDCHAR
STARTCHAR 0040
ENCODING 64
SWIDTH 805 0
DWIDTH 58 0
BBX 47 53 8 -2
BITMAP
00000FFF8000
00007FFFF000
0001FFFFFC00
0007FE01FF00
000FE0003F80
001F80000FC0
007E000003E0
00FC000001F0
01F8000000F0
01F0000000F8
03E001F0F078
07C007FCF03C
0F801FFEE03C
0F003F1EE01E
1F007C07E01E
1E00F807E01E
3E00F003E01E
3C01E003C00E
7C01E003C00E
7C03C003C00E
7803C003C00E
7807C003800E
F8078007800E
F8078007800E
F00F8007801E
F00F0007801E
F00F0007001E
F00F000F001C
F00F000F001C
F00F000F003C
F00F001E003C
F00F001E0078
F80F001E0078
F80F003E00F0
780F003E00F0
7807007E01E0
7C0780FE03C0
7C07C1CF0780
3C03FFCFBF00
3E01FF0FFE00
1F007E07F820
1F000000C030
0F8000000070
07C0000001E0
07E0000003C0
03F000000780
01F800001F00
00FE00007E00
007F8001FC00
001FF00FF000
0007FFFFC000
0001FFFF0000
00003FF00000
ENDCHAR
STARTCHAR 0041
ENCODING 65
SWIDTH 1027 0
DWIDTH 74 0
BBX 92 64 11 -4
BITMAP
0000000000000000000000F0
0000000000000000000003F0
000000000000000000001FE0
000000000000000000007DC0
00000000000000000001E3C0
000000000000000000038780
0000000000000000000E0F00
0000000000000000001C1E00
000000000000000000303C00
000000000000000000E07C00
000000000000000001C0F800
00000000000000000300F000
00000000000000000601E000
00000000000000001C03C000
00000000000000003807C000
0000000000000000700F8000
0000000000000000E01F0000
0000000000000001C03F0000
0000000000000003807E0000
0000000000000007007C0000
000000000000000E00F80000
000000000000001C01F80000
000000000000003803F00000
000000000000007007E00000
00000000000000F007E00000
00000000000001E00FC00000
00000000000003C01F800000
00000000000007803F000000
00000000000007007F000000
0000FF8000000F007E000000
0007C07000001E00FC000000
001F001800003C01FC000000
007C000C00007803F8000000
00F000040000F007F0000000
01E000020001F007E0000000
03C000020003E00FE0000000
078000020007C01FC0000000
0F0000020007803F80000000
1E0038023FFFFFFF80000000
1C007002003E00FF00000000
3C00C004007C01FE00000000
3800C00400F801FE00000000
7000800801F003FC00000000
7000801803E003FC00000000
6000C03007C007F800000000
E00070C0078007F000000000
E0003F000F0007F000000000
C00000001E000FE000000000
C00000003C000FC000000000
C000000078000FC000000000
C0000000F0001F8000000000
C0000001E0001F8000000000
60000003C0001F0000000000
6000000780001F0000000000
6000000E00001E0000000000
3000003C00001E0000000000
1800007800001E0000000000
0C0001E000001C0000000000
0700078000000C0000000000
01F9FE0000000C0000000000
003FF00000000C0400000000
000000000000040C00000000
000000000000021800000000
00000000000001F000000000
ENDCHAR
STARTCHAR 0042
ENCODING 66
SWIDTH 1125 0
DWIDTH 81 0
BBX 84 61 14 -3
BITMAP
0000000000000000000780
0000000000001FFFFFF800
000000000003F8000FE000
00000000001F000007F800
0000000000F000000F1C00
00000000078000001E0E00
000000001E0000003C0700
0000000078000000F80380
00000000E0000001F003C0
00000003C0000001E001C0
0000000780001003E001E0
0000000F00007007C001E0
0000001E0000600F8001F0
0000003C0000C01F0001F0
000000380001C03F0001F0
000000780001807E0001F0
000000700003007C0003F0
00000070000600FC0003F0
00000070000C01F80003F0
00000070003803F00007E0
00000030006007F00007E0
0000003801C007E0000FC0
0000001803000FC0001FC0
0000000E1E001FC0003F80
00000003F0003F80007F00
0000000000003F8000FE00
0000000000007F0001FC00
000000000000FE0007F800
000000000000FE000FE000
000000000001FC007F8000
00007F800003F8FFFC0000
0007E0F00003F800600000
001F00180007F000300000
007C000C000FF000380000
00F00004000FE0001C0000
01E03002001FC0001E0000
03C06002003FC0001E0000
0780C002003F80001F0000
0F008002007F00001F0000
1E01800200FF00001F0000
3C01000400FE00003F0000
3801000401FC00003F0000
7801000803F800003F0000
7001801803FB00007F0000
F000807007F700007E0000
E00061C00FEC0000FE0000
E0003F001FD80000FC0000
C00000003F900001FC0000
C00000003F300003F80000
C00000007E200007F00000
C0000000FC20000FE00000
C0000001F820001FC00000
C0000003E020003F800000
60000007C020007F000000
6000000F803000FC000000
3000003E001803F0000000
1800007C000FBFC0000000
0C0001F00001FE00000000
060007C000000000000000
01E03E0000000000000000
003FE00000000000000000
ENDCHAR
STARTCHAR 0043
ENCODING 67
SWIDTH 1041 0
DWIDTH 75 0
BBX 66 62 31 -2
BITMAP
000FF8000000000000
007C0F800000000000
01E001E00000000000
07C000700000000000
0F000038000003FE00
1E00000000007FC180
3C0000000003FC00C0
38000000001FE00040
70000000007F800040
7000000001FE000040
E000000007F80000C0
E00000001FE00000C0
C00000007FC0000180
C0000001FF00000380
C0000003FE00000700
C000000FF800000E00
C000001FF000001C00
6000003FC000007800
600000FF800000E000
200001FF000003C000
300003FC00000F0000
100007F800003C0000
08000FF00000F00000
04001FE00003C00000
02003FC0001F000000
01807F8000F8000000
0060FF000FC0000000
001DFE00FC00000000
0003FFFF0000000000
0007F8000000000000
0007F0000000000000
000FE0000000000000
001FE000000FE00000
001FC000003FF00000
003FC00000F0780000
003F800001C03C0000
007F800007001C0000
007F00000E001C0000
007F000018001C0000
00FE000030001C0000
00FE000060001C0000
00FC0000C000380000
01FC00008000380000
01FC00000000300000
01FC00000000700000
01F800000000600000
01F800000000C00000
01F800000001C00000
01F800000001800000
01F800000003000000
01F800000006000000
00F80000000C000000
00FC00000018000000
00FC00000020000000
007C00000040000000
003E00000180000000
003E00000200000000
001F00000C00000000
000F80003000000000
0003E000C000000000
0001FC0F0000000000
00003FF00000000000
ENDCHAR
STARTCHAR 0044
ENCODING 68
SWIDTH 1208 0
DWIDTH 87 0
BBX 88 58 13 0
BITMAP
00000000000007FFFFFFF8
000000000001FE0000FC00
00000000001FC00001E700
0000000000FC000003C380
0000000007E000000F80C0
000000001F8000001F0060
000000003E0000003E0030
00000000F80000007C0018
00000001F0000800F8001C
00000003C0001801F0001C
0000000780003003F0000E
0000000F00003007E0000E
0000000F0000600FC0000E
0000001E0000C01F80000F
0000001E0001803F80000F
0000001C0003007F00000F
0000001C0006007E00000F
0000001C000C00FE00000F
0000001C003001FC00001F
0000000E006003F800001F
0000000600C007F000001F
00000003870007F000003F
00000001F8000FE000003E
0000000000001FC000003E
0000000000003FC000007E
0000000000003F8000007E
0000FF0000007F000000FC
0007F0C00000FF000000FC
001F80300000FE000001F8
007E00080001FC000001F8
00F800040003FC000003F0
01F000040007F8000007F0
03C000020007F0000007E0
07801802000FF000000FC0
0F003802001FE000001FC0
1E006002001FC000003F80
1E00C002003FC000003F00
3C00C004007F8000007E00
3800800400FF000000FC00
7800800800FE000001FC00
7000800801FC000003F800
F000C01003F8000007F000
E000402007F000000FE000
E00070C00FE000001FC000
E0001F001FC000003F8000
C00000003F8000007F0000
C00000003F000000FC0000
C00000007E000001F80000
C0000000FC000003F00000
60000003F0000007C00000
60000007E000001F800000
2000000FC000003E000000
3000001F1800007C000000
1800007C180001F0000000
0E0001F00C0007C0000000
038007C006003F00000000
00FCFF0003F7F800000000
001FF000007F8000000000
ENDCHAR
STARTCHAR 0045
ENCODING 69
SWIDTH 1000 0
DWIDTH 72 0
BBX 65 59 31 1
BITMAP
001FFFC00000000000
00F803E00000000000
03C000300000000000
0F0000000003FFE000
1C000000003F803C00
3800000003F8000700
780000000FC0000300
700000003F00000380
F0000000FC00000380
E0000003F800000380
E0000007F000000380
E000000FC000000700
E000001F8000000F00
E000003F0000001E00
6000007F0000003800
7000007E0000007000
300000FC000001C000
180000FC0000070000
0E0001F80000380000
070001F80001C00000
01E001F8001E000000
003F01F80FE0000000
0003FFFFF000000000
000001F80000000000
000000F80000000000
000000F80000000000
000000780000000000
0000001E0000000000
000000FFFFE0000000
00000FE00000000000
00007F000000000000
0003FC000000000000
000FF0000000000000
003FC0000000000000
00FF80000000000000
01FE000003F8000000
03FC00001C1E000000
07F80000600E000000
0FF00000C007000000
1FE000018007000000
3FC000030007000000
3F8000040007000000
7F8000000007000000
7F000000000E000000
FF000000000C000000
FE000000001C000000
FE0000000018000000
FE0000000030000000
FE0000000060000000
FE00000000C0000000
FE0000000180000000
7E0000000300000000
7E0000000C00000000
3F0000003800000000
1F0000006000000000
0F8000038000000000
07E0001C0000000000
01FF1FE00000000000
001FFC000000000000
ENDCHAR
STARTCHAR 0046
ENCODING 70
SWIDTH 833 0
DWIDTH 60 0
BBX 90 61 14 -1
BITMAP
0000000003FFC00000003F80
000000001FFFFC000001F0C0
00000000FFFFFF8000078040
00000003FFFFFFF8001E00C0
0000000FFFFFFFFF003C0180
0000003FFFFFFFFFF8F80700
0000007FFF07FFFFFFFFFC00
000000FE000007FFFFFFE000
000001F000000003FFFC0000
000003C0000000007C000000
0000070000000000F8000000
0000060000010001F0000000
00000C0000030001F0000000
0000080000060003E0000000
00001800001C0007C0000000
000018000038000F80000000
000010000070001F00000000
0000100000E0003F00000000
0000100001C0007E00000000
00001000030000FC00000000
00001800060001FC00000000
00000800080003F800000000
00000400600003F000000000
00000387800007F000000000
000000FC00000FE000000000
0000000000001FC000000000
0000000000001FC000000000
0000000000003F8000000000
00007F8000007F0000000000
0003E0E00000FF0000000000
001F00180000FE0000000000
003C000C0001FE0000000000
00F800040003FC0000000000
01E000060003F80000000000
03C000020007F80000000000
07800002000FF00000000000
0F0010027FFFFFE000000000
1E003002003FC00000000000
1E006002003F800000000000
3C00C006007F800000000000
3800800400FF000000000000
7800800C00FE000000000000
7000800801FC000000000000
6000801003F8000000000000
E000C06007F0000000000000
E00061C00FF0000000000000
C0001F000FE0000000000000
C00000001FC0000000000000
C00000003F80000000000000
C00000007E00000000000000
C0000000FC00000000000000
C0000001F800000000000000
40000003F000000000000000
60000007C000000000000000
6000000F8000000000000000
3000003E0000000000000000
1800007C0000000000000000
0C0001F00000000000000000
070007C00000000000000000
01E07E000000000000000000
003FE0000000000000000000
ENDCHAR
STARTCHAR 0047
ENCODING 71
SWIDTH 1013 0
DWIDTH 73 0
BBX 86 80 13 -20
BITMAP
0000001FF0000000000000
000000FF9E000000000000
000003F003C00000000000
000007C000E00000000000
00000F0000000000000000
00001E00000000003FFF80
00003C0000000007FFFFE0
00003C000000003FFF8038
00007800000001FFF00018
00007800000007FF00000C
0000700000003FFC00000C
0000F0000000FFF000000C
0000F0000003FF8000001C
0000F0000007FE0000001C
0000F000001FF800000038
0000F000007FF000000070
0000F00000FFC0000001F0
0000F00003FF00000003C0
0000780007FE0000000F80
000078000FF80000003E00
000038001FF0000000F800
00003C003FC0000007E000
00001E00FF8000003F0000
00000F01FF000001F80000
00000703FE00001FC00000
000003C7FC0001FC000000
000000E7F800FF80000000
0000003FF7FFC000004000
0000003FC8000000018000
0000003F80000000030000
0000007F000000000E0000
0000007E000000001C0000
000000FE00000000380000
000000FC00000000F80000
000000FC00000001F00000
000000F800000003E00000
000000F80000000FE00000
000000F80000001FC00000
000000F00000007F800000
000000F0000000BF800000
000000F00000037F000000
000000F0000006FE000000
000000F0000019FE000000
000000F0000031FC000000
000000780000C3F8000000
00000038000387F8000000
0000003C000E0FF0000000
0000001E00380FE0000000
0000000781E01FE0000000
0003FC01FF003FC0000000
001E070000003F80000000
007001C000007F80000000
01C000400000FF00000000
038000200000FF00000000
070000300001FE00000000
0E0000100003FC00000000
1C0000100003F800000000
380000100007F800000000
38000010000FF000000000
70000030000FE000000000
70000020001FE000000000
E0000060003FC000000000
E00000C0007F8000000000
C0000180007F0000000000
C000030000FE0000000000
C0001C0001FC0000000000
C000F00003F80000000000
C000000007F00000000000
C00000000FE00000000000
C00000001FC00000000000
600000003F800000000000
600000007E000000000000
20000000FC000000000000
30000001F0000000000000
18000007E0000000000000
0C00000F80000000000000
0600003E00000000000000
038000F800000000000000
00F007C000000000000000
001FFC0000000000000000
ENDCHAR
STARTCHAR 0048
ENCODING 72
SWIDTH 1111 0
DWIDTH 80 0
BBX 100 61 14 -2
BITMAP
0000000007FE0000000E000070
000000007C01C00000700000E0
00000001E000700003C00003C0
00000007800018000F80000780
0000000E000008003F00000F00
0000001C00000000FE00003C00
00000038000000037C00007800
0000007000000004F80000F000
000000E000000009F80001E000
000000C000000033F00003C000
000001C000000047E000078000
000001800000008FC0001F0000
000003800000031F80003E0000
000003000000043F80007E0000
000003000000187F0000FC0000
000003000000207E0001F80000
000003000000C0FC0003F00000
00000300000301FC0007E00000
00000180000603F8000FC00000
00000180001807F0001F800000
000000C000E007F0003F800000
000000E003800FE0007F000000
000000301E001FC000FE000000
0000000FF0003FC001FC000000
0000000000003F8001F8000000
0000000000007F0003F8000000
00007F800000FF0007F0000000
0007E0E00000FE000FE0000000
001F00180001FC001FC0000000
003C000C0003FC003FC0000000
00F800040007F8007F80000000
01E000060007F000FF00000000
03C00002000FF000FE00000000
07800002001FE001FE00000000
0F0010023FFFFFFFFC00000000
1E006002007F8007F800000000
1C004006007F000FF800000000
3C00800400FE001FF000000000
3800800C01FC001FE000000000
7000800801FC003FE000000000
7000801003F8003FC000000000
E000C03007F0003F8000000000
E00060C00FE0007F8000000000
E0003F001FC0007F0000000000
C00000003F8000FE0000000000
C00000003F0000FE0000000000
C00000007E0000FC0000000000
C0000000FC0000F80000000000
C0000001F80001F80000000000
40000003E00001F00000000000
60000007C00001F00000000000
6000001F800001E00000000000
3000003E000001E00000000000
1800007C000001E00000000000
0C0001F0000001C00000000000
070007C0000001C00000000000
01F9FE00000000C00000000000
003FE000000000C02000000000
00000000000000404000000000
00000000000000318000000000
000000000000001E0000000000
ENDCHAR
STARTCHAR 0049
ENCODING 73
SWIDTH 750 0
DWIDTH 54 0
BBX 78 60 14 0
BITMAP
0000000000000000001C
000000000000000000FC
00000000000000001FF8
0000000000000007FCE0
00000000000001FF81C0
0000000000001FF00700
000000000001FF000E00
00000000000FF0003C00
00000000007F80007800
0000000001FE0000F000
0000000003F80001F000
000000000FE00003E000
000000001F800007C000
000000003F00000F8000
000000007E00001F0000
00000000FC00003F0000
00000000F800003E0000
00000001F000007C0000
00000003E00000F80000
00000003E00001F80000
00000003C00003F00000
00000007C00007E00000
0000000780000FC00000
0000000780001FC00000
0000000780001F800000
0000000700003F000000
0000000300007F000000
000000038000FE000000
000000018000FC000000
00000000E039FC000000
0000FF003FC3F8000000
0007E0E00003F8000000
001F00300007F0000000
007C0018000FE0000000
00F0000C000FE0000000
03E00004001FC0000000
07806004003F80000000
0F00C004007F00000000
0E008004007F00000000
1C01800400FE00000000
3C01000C01FC00000000
3801000803F800000000
7001001003F000000000
7001803007E000000000
E00080600FE000000000
E000E1801FC000000000
C0003E003F8000000000
C00000007F0000000000
C0000000FC0000000000
C0000001F80000000000
C0000003F00000000000
C0000007E00000000000
6000000F800000000000
6000001F000000000000
3000003E000000000000
380000F8000000000000
0C0001E0000000000000
07000F80000000000000
01F9FE00000000000000
003FE000000000000000
ENDCHAR
STARTCHAR 004A
ENCODING 74
SWIDTH 736 0
DWIDTH 53 0
BBX 91 83 -2 -22
BITMAP
000000000000000000000040
0000000000000000000003E0
000000000000000000001FC0
00000000000000000000FF00
00000000000000000007EE00
0000000000000000003E1800
000000000000000003F03000
00000000000000003F006000
0000000000000003F801C000
000000000000003FC0038000
00000000000001FE00070000
0000000000000FE0000E0000
0000000000007F80001C0000
000000000001FC0000380000
000000000007F00000700000
00000000001F800001E00000
00000000007E000003E00000
0000000000F8000007C00000
0000000003F000000F800000
0000000007C000001F000000
000000000F8000003E000000
000000001E0000007E000000
000000003C000000FC000000
0000000078000001F8000000
00000000F0000003F8000000
00000000E0000003F0000000
00000001C0000007E0000000
00000003C000000FC0000000
000000038000001FC0000000
000000038000003F80000000
000000070000007F00000000
000000070000007F00000000
00000007000000FE00000000
00000006000001FC00000000
00000006000003FC00000000
00000006000003F800000000
00000002000007F000000000
0000000200000FE000000000
0000000300001FE000000000
0000000100003FC000000000
0000000080003F8000000000
0000000060007F8000000000
000000001FFCFF0000000000
000000000001FE0000000000
000000000001FE0000000000
00000000001FFC0000000000
000000001FFFFFC000000000
00000003FE0FF00000000000
0000001FC00FE00000000000
000000FC001FE00000000000
000007C0003FC00000000000
00001F00003F800000000000
00007800007F000000000000
0001E000007F000000000000
0003C00000FE000000000000
000F000001FC000000000000
001E000001F8000000000000
0038000003F0000000000000
0070000007F0000000000000
00E0000007E0000000000000
01C000000FC0000000000000
038000001F80000000000000
070000001F00000000000000
0E0000003F00000000000000
0C0000003E00000000000000
1C0000007C00000000000000
38000000F800000000000000
30000000F000000000000000
70000001E000000000000000
60000003C000000000000000
600000078000000000000000
C000000F0000000000000000
C000001E0000000000000000
C000003C0000000000000000
800000700000000000000000
800001E00000000000000000
800003C00000000000000000
80000F000000000000000000
40001E000000000000000000
400078000000000000000000
2001E0000000000000000000
1C1F00000000000000000000
03F800000000000000000000
ENDCHAR
STARTCHAR 004B
ENCODING 75
SWIDTH 1097 0
DWIDTH 79 0
BBX 117 65 14 -4
BITMAP
0000000001FF80000000C0000007F8
000000001FE7F00000070000003E00
000000007C001800001E000000F800
00000001E00006000078000003E000
00000003C000020001E000000FC000
0000000F00000000078000001F0000
0000001E000000000F0000007E0000
0000001C000000003E000000FC0000
0000003800000000FC000001F00000
0000007800000001F8000007E00000
0000007000000007F000000FC00000
000000600000000BE000001F000000
000000E000000037C000003E000000
000000E00000004FC00000FC000000
000000C00000019F800001F8000000
000000C00000063F000003E0000000
000000C000000C7E000007C0000000
000000C00000307E00001F80000000
000000400000C0FC00003E00000000
00000060000381F800007C00000000
00000030000E03F80000F000000000
00000018007007F00003E000000000
0000000C03C007E000078000000000
00000003FC000FE0001E0000000000
0000000000001FC0007C0000000000
0000000000003F8001F00000000000
0000000000003F8007C00000000000
0000000000007F001E000000000000
000000000000FE01F8000000000000
0001FF800001FFFFE0000000000000
000FC0600001FF00E0000000000000
003F00100003F80038000000000000
007C00080007F8001C000000000000
01F000040007F0000E000000000000
03E00004000FE0000E000000000000
07C00002001FE0000F000000000000
0F803002001FC0000F000000000000
1F004002003F80001F000000000000
1E008002007F80001F000000000000
3C00800600FF00003E000000000000
3801000400FE00007E000000000000
7801000C01FC0000FC000000000000
7001000803F80001FC000000000000
7001001003F80003F8000000000000
E000806007F00007F0000000000000
E000C1C00FE0000FE0000000000000
C0003F001FC0001FC0000000000000
C00000003F80003F80000000000000
C00000007F00007F00000000000000
C0000000FE00007E00000000000000
C0000001F80000FC00000000000000
C0000003F00001F800000000000000
E0000007E00001F000000000000000
6000000FC00003E000000000000000
6000001F000003C000000000000000
3000003E0000078000000000000000
180000F80000078000000000000000
0C0001E00000070000000000000000
07000F800000070000000000000000
01F9FE000000060000000000000000
003FE0000000020060000000000000
0000000000000200E0000000000000
0000000000000101E0000000000000
000000000000008780000000000000
000000000000007C00000000000000
ENDCHAR
STARTCHAR 004C
ENCODING 76
SWIDTH 944 0
DWIDTH 68 0
BBX 89 69 7 -6
BITMAP
000000000000000000003F00
00000000000000000000F180
000000000003FFC00001C080
00000000003FCFF800078080
0000000000F0003C000E0080
0000000003800006001C0180
000000000E000001803C0180
000000003C00000000F80300
000000007000000001F00300
00000000E000000003E00600
00000001C000000007C00E00
00000003C00000000F800C00
00000003800000001F801800
00000007000000003F003800
00000007000000007E007000
0000000F000000007C00E000
0000000E00000000FC01C000
0000000E00000001F8038000
0000000E00000003F0070000
0000000E00000007F00E0000
0000000E0000000FE03C0000
0000000E0000001FC0780000
000000060000001F80F00000
000000070000003F83C00000
000000030000007F07800000
00000003800000FF1E000000
00000001C00001FE3C000000
00000000E00003FCF0000000
00000000300003FFC0000000
000000001E0007FF00000000
0000000007C00FF800000000
0000000000FF3FE000000000
000000000007FFE000000000
0000000000003FC000000000
0000000000007F8000000000
0000000000007F0000000000
000000000000FE0000000000
000000000001FE0000000000
000000000001FC0000000000
000000000003F80000000000
000000000007F00000000000
000000000007E00000000000
00000000000FC00000000000
00000000001FC00000000000
00000000003F800000000000
00000000003F000000000000
00000000007E000000000000
0000000000FC000000000000
0000000001F8000000000000
007FF00003F0000000000000
03FFFF0007C0000000000000
0FFFFFE00F80000000000000
1FFFFFFC1F00000000000000
3800FFFFBC00000000000000
600007FFF800000000000000
C00000FFFC00000000000000
8000001FFE00000000000000
8000001FFF00000000000000
8000007CFFC0000000000000
400001E01FF0000000000000
30000F8007FC000000000000
0FCFFC0001FF000000000000
01FFC000007FC00000000000
00000000001FF00000000000
000000000007FE0000000000
000000000001FF8000000000
0000000000007FF800000000
0000000000000FFFFF000000
00000000000001FFF0000000
ENDCHAR
STARTCHAR 004D
ENCODING 77
SWIDTH 1333 0
DWIDTH 96 0
BBX 114 65 11 -2
BITMAP
0000000000000000000000C0000000
0000000000000000000003C0000000
000000000000000000000F800000C0
000000000000000000003F000003C0
000000000000000000007C00000F80
00000000000000000000F800001F00
00000000000000000001F000007E00
00000000000000000007E00000DC00
0000000000000000000EC00001B800
00000000000000000019C000067000
0000000000000000003380000CF000
00000000000000000067000011E000
000000000000000000CF000063C000
0000000000000000019E0000C78000
0000000000000000033C00018F0000
0000000000000000067C00031E0000
00000000000000000C78000E3C0000
000000000000000018F800187C0000
000000000000000031F00030780000
000000000000000061F00060F00000
0000000000000000C3E000C1E00000
000000000000000187E00383C00000
000000000000000307C00707C00000
00000000000000070FC00E0F800000
000000000000000E1F801C1F000000
000000000000001C1F80383E000000
00000000000000383F00707E000000
00000000000000703F00E07C000000
00000000000000E07E00C0F8000000
00000000000001E0FE01C1F8000000
00000000000003C0FC0383F0000000
0000FFC000000781FC0707E0000000
0003C07000000701F80E0FE0000000
000F001800000E03F81C0FC0000000
003C000C00001C03F0381F80000000
0078000400003807F0703F80000000
01E0000600007007E0E03F00000000
03C000020000E00FE0C07E00000000
078060020001E00FC180FE00000000
0F0040020003C01F8300FC00000000
0E0080020007801F8601F800000000
1E018004000F003F0C03F800000000
3C010004001E003F1803F000000000
3801000C003C003E3807E000000000
780100080078007E7007E000000000
7001801000F0007CE00FC000000000
7000806001E000F8C00FC000000000
E000E1C003C000F9801F8000000000
E0003E00078001F3001F0000000000
E0000000070003F6003F0000000000
C00000000E0003EC003E0000000000
C00000001C0007F8003E0000000000
C0000000380007F0003C0000000000
C000000070000FE0007C0000000000
C0000000E0000FC0007C0000000000
C0000001C0001F8000780000000000
6000000380003F0000780000000000
6000000700003C0000700000000000
2000001C0000780000700000000000
300000380000F00000300000000000
180000600000C00000300000000000
0C0001C00001800000300000000000
030007000003000000180800000000
01C0780000000000000C3000000000
003FC000000000000003C000000000
ENDCHAR
STARTCHAR 004E
ENCODING 78
SWIDTH 1097 0
DWIDTH 79 0
BBX 116 59 11 1
BITMAP
000000000000000000060000000FF0
0000000000000000000C0000003E00
0000000000000000003C000000F000
00000000000000000078000001E000
000000000000000000F00000078000
000000000000000001F000000F0000
000000000000000003E000001E0000
000000000000000007E000003C0000
00000000000000000FC00000700000
00000000000000001FC00001E00000
00000000000000003FC00003C00000
000000000000000037800007800000
00000000000000006F800007000000
0000000000000000CF80000E000000
00000000000000019F80001C000000
00000000000000031F000038000000
00000000000000063F000070000000
000000000000000C3F0000E0000000
000000000000001C3E0001C0000000
00000000000000387E000180000000
00000000000000707E000380000000
00000000000000E07E000700000000
00000000000000C0FC000E00000000
00000000000001C0FC001C00000000
0000000000000380FC001800000000
0000000000000700FC003000000000
0000000000000E01F8006000000000
0000000000001E01F800C000000000
0000FF8000003C01F801C000000000
0007C06000007803F8018000000000
001E00180000F003F0030000000000
0078000C0000F003F0060000000000
00F000040001E003F00C0000000000
03E000020003C007F0180000000000
0780000200078007E0100000000000
0F006002000F0007E0200000000000
0E004002001E0007E0600000000000
1C008002003E0007E0C00000000000
3C008006007C000FC0800000000000
3801000400F8000FC1000000000000
7001000C01F0000F82000000000000
7001001801E0000F84000000000000
E001003003E0000F88000000000000
E000806007C0001F08000000000000
E00061C00F80001F10000000000000
C0003F001F00001F20000000000000
C00000003E00001E40000000000000
C00000007C00001E80000000000000
C0000000F800001F00000000000000
C0000001F000003D00000000000000
40000007E000003E00000000000000
6000000F8000003C00000000000000
2000001F0000003800000000000000
3000003E0000003800000000000000
180000F80000007000000000000000
0C0001F00000006000000000000000
030007C0000000C000000000000000
01F8FE00000000C000000000000000
003FF0000000000000000000000000
ENDCHAR
STARTCHAR 004F
ENCODING 79
SWIDTH 805 0
DWIDTH 58 0
BBX 62 56 14 1
BITMAP
00000000003FFF80
0000000001FFC0C0
000000000FFE0030
000000003FF80010
00000000FFE00008
00000003FBC00008
0000000FE7800004
0000003FCF000004
0000007F1E000004
000001FE3C000004
000003FC78000004
000007F0F0000004
00001FE1E0000004
00003FC1E000000C
00007F83C000000C
0000FF078000000C
0001FE0700000018
0003FC0F00000018
0007F81E00000038
000FF01E00000030
001FE01C00000070
003FC03C00000060
007F8038000000E0
00FF0038000001E0
01FE0070000001C0
01FC007000000380
03F8007000000780
07F8006000000700
07F0006000000F00
0FE0006000001E00
1FC0006000003C00
1FC0006000003C00
3F80006000007800
3F8000300000F000
3F0000180001E000
7F000007E003C000
7E0000000007C000
7E000000000F8000
FC000000001F0000
FC000000003E0000
FC000000007C0000
F800000000F80000
F800000001F00000
F800000003C00000
F800000007800000
F80000000F000000
780000001C000000
7800000078000000
38000000F0000000
3C000001C0000000
1C00000700000000
0E00001E00000000
0700007800000000
038003E000000000
00FCFF0000000000
001FF00000000000
ENDCHAR
STARTCHAR 0050
ENCODING 80
SWIDTH 1027 0
DWIDTH 74 0
BBX 83 61 14 -2
BITMAP
0000000000000000000100
0000000000000000000F00
0000000000000FFFFFF000
000000000003FE000E6000
00000000001F80001C1800
0000000000F80000380C00
0000000007C00000700600
000000001E000000E00300
0000000078000001E00380
00000000F0000003C00180
00000003C00020078001C0
000000078000600F0001C0
0000000F0000C01F0001E0
0000001E0000C03E0001E0
0000003C0001803C0001E0
000000380003007C0001E0
00000078000600F80001E0
00000070000C01F80003E0
00000070001801F00003E0
00000070003003E00003E0
00000070006007E00007C0
0000007000C007C00007C0
0000003801800FC0000FC0
0000001806001F80000F80
0000000E1C003F00001F80
00000007E0003F00003F00
0000000000007E00007E00
000000000000FE0000FC00
000000000001FC0001F800
0000FF800001F80003F000
0007E0E00003F80007E000
001F00300007F0001FC000
007C00180007F0007F0000
00F8000C000FE003FC0000
01E00004001FC7FFE00000
03C00004001FC000000000
07800004003F8000000000
0F000004007F8000000000
1E00600400FF0000000000
1C00C00400FE0000000000
3800800801FC0000000000
3801000803FC0000000000
7001001003F80000000000
7001003007F00000000000
E00180600FE00000000000
E000C1800FC00000000000
C0007E001F800000000000
C00000003F000000000000
C00000007E000000000000
C0000000FC000000000000
C0000000F8000000000000
C0000001F0000000000000
C0000003E0000000000000
6000000780000000000000
6000001F00000000000000
3000003C00000000000000
1800007800000000000000
0C0001E000000000000000
0600078000000000000000
03C03C0000000000000000
007FE00000000000000000
ENDCHAR
STARTCHAR 0051
ENCODING 81
SWIDTH 847 0
DWIDTH 61 0
BBX 76 67 0 -12
BITMAP
0000000000000007FC00
00000000000000FF0700
00000000000003F80080
0000000000001FE00040
0000000000007F800020
000000000003FF000020
00000000000FEE000030
00000000001FFC000010
00000000007F78000010
0000000001FEF0000010
0000000003F9E0000010
000000000FF3C0000010
000000001FC380000010
000000003F8700000030
00000000FF0E00000030
00000001FE1E00000030
00000003FC3C00000060
00000007F83800000060
0000000FF078000000E0
0000001FE0F0000000C0
0000003FC0F0000001C0
0000007F81E0000001C0
000000FF01E000000380
000001FE01C000000380
000003FC01C000000700
000007F8038000000F00
00000FF0038000000E00
00000FE0038000001E00
00001FC0030000003C00
00003FC0030000003800
00003F80030000007800
00007F0003000000F000
00007F0001000001E000
0000FE0001800003E000
0000FC0000C00003C000
0001FC00007F00078000
0001F8000000000F0000
0001F8000000001E0000
0001F0000000003C0000
0003F0000000007C0000
0003E000000000F80000
0003E000000001F00000
0003E000000003C00000
0003C000000007800000
0003C00000000F000000
0003C00000001E000000
0001C00000003C000000
0001C000000078000000
0001C0000000E0000000
00FFFC000001C0000000
0780FFC0000780000000
18007FF8000E00000000
E00031FF001800000000
80001C3FC06000000000
000007FFFB8000000000
000001FFFE0000000000
000000001E0000000000
0000000007C000000000
0000000003F000000000
0000000001F800000000
0000000000FE00000000
00000000003F80000000
00000000000FE0000000
000000000007F8000000
000000000001FF806000
0000000000003FFF8000
00000000000007FE0000
ENDCHAR
STARTCHAR 0052
ENCODING 82
SWIDTH 1055 0
DWIDTH 76 0
BBX 83 58 13 0
BITMAP
00000000000000000003E0
0000000000003FFFFFFC00
000000000007FC00077800
00000000003F00000F1E00
0000000001F000001E0F00
000000000F8000003C0780
000000003C000000780780
00000000F0000001F003C0
00000001E0001003F003C0
0000000780003007E003E0
0000000F00002007C003E0
0000001E0000600F8003E0
0000001C0000C01F8003E0
000000380001803F0003E0
000000300003007E0007E0
00000070000700FE0007E0
00000060000E01FC000FC0
00000060001C03FC000FC0
00000060003803F8001F80
00000060006007F0001F80
0000003001C00FF0003F00
0000003803001FE0007E00
0000001C1E001FC000FC00
00000007F0003FC001F800
0000000000007F8003F000
000000000000FF800FC000
000000000000FF001F0000
000000000001FF00780000
0000FF800003FFFFC00000
0007C0700007F800800000
001E00180007F800C00000
00780004000FF000C00000
00F00004001FE000E00000
03E00002001FC000E00000
07806002003FC000E00000
0F004002007F8000E00000
1E00800200FF0000E00000
1C00800200FE0001C00000
3C01800601FC0003C00000
7801000403FC0007800000
7001000C07F8000F000000
7001001807F0001F000000
E00180300FE0003E000000
E00080601FC0007C000000
C00061C03F8000FC000000
C0003E007F0001F8000000
C0000000FE0001F0000000
C0000000FC0003E0000000
C0000003F00003E0000000
C0000007E00007C0000000
6000000FC0000780000000
6000001F00000780000000
3000003E00000700000000
180000F800000700000000
0C0003E000000300000000
07000F8000000380000000
01F1FC00000001C0000000
003FE0000000007FC00000
ENDCHAR
STARTCHAR 0053
ENCODING 83
SWIDTH 847 0
DWIDTH 61 0
BBX 80 61 9 -2
BITMAP
0000000000000000003C
000000000000000000C6
00000000000000000301
00000000000000000E01
00000000000000001C01
00000000000000003803
00000000000000007003
0000000000000000E006
0000000000000001E006
0000000000000003C00C
00000000000000078018
000000000000000F8038
000000000000000F0070
000000000000001F00E0
000000000000003E01C0
000000000000003E0780
000000000000007E0E00
000000000000007C1C00
00000000000000FC7800
00000000000000FCF000
0000003FF80001FFC000
000001F8070001FF0000
00000FC0018003F80000
00001F00006003F00000
00007C00003003F00000
0000F000001007F00000
0001E00000180FF00000
0003C000000C1FE00000
00030000000C7FE00000
000600000004EFE00000
000C000000078FC00000
001C000000071FC00000
00180000000E1FC00000
00300000003C1FC00000
00300000007C1F800000
0060000001CC3F800000
00600000038C3F800000
004000000E083F000000
00C000001C187F000000
00C0000070107E000000
00800001E0307E000000
008000038060FC000000
0080000F00C0FC000000
0080001C0181F8000000
008000780301F8000000
008001E00E03F0000000
008003C03C03E0000000
00C00F003007C0000000
00C03C000007C0000000
00407800000F80000000
0061E000001F00000000
806F8000003E00000000
C03F0000003C00000000
60FC0000007800000000
3FF8000000E000000000
000C000003C000000000
00060000070000000000
000300000E0000000000
0000C000380000000000
00003C03C00000000000
000007FC000000000000
ENDCHAR
STARTCHAR 0054
ENCODING 84
SWIDTH 819 0
DWIDTH 59 0
BBX 86 61 14 -2
BITMAP
0000000007FE00000001F8
00000000FFFFE000000F0C
00000003FFFFFC00003C04
0000001FFFFFFF0000F004
0000007FFFFFFFE001C008
000000FFFFFFFFFE078070
000003FFFFFFFFFFFFFFC0
000007FFFFFFFFFFFFFF00
00000FFE00003FFFFFE000
00001FE000000001F00000
00001F0000000001E00000
00003C0000000003C00000
0000780000100007C00000
000070000030000F800000
000060000060001F000000
0000C00000C0003F000000
0000C0000180003E000000
000080000300007C000000
00008000060000FC000000
000080000C0001F8000000
00008000180003F0000000
00008000600003F0000000
00004000C00007E0000000
0000200300000FC0000000
0000181C00001FC0000000
00000FE000001F80000000
0000000000003F00000000
0000000000007F00000000
0000000000007E00000000
00007F800000FE00000000
0003E0600001FC00000000
000F00180001F800000000
003C000C0003F800000000
00F800040007F000000000
01E000020007E000000000
03C00002000FE000000000
07806002001FC000000000
0F00E002001FC000000000
1E00C002003F8000000000
1C008002007F0000000000
3C00800400FE0000000000
3800800400FE0000000000
7000800801FC0000000000
7000801803F80000000000
E000C03007F00000000000
E00060C007E00000000000
E0003F000FC00000000000
C00000001F800000000000
C00000003F000000000000
C00000007E000000000000
C0000000FC000000000000
C0000001F8000000000000
C0000003F0000000000000
60000007C0000000000000
6000000F80000000000000
3000001E00000000000000
1000007C00000000000000
1C0000F000000000000000
060003C000000000000000
03C01E0000000000000000
007FF00000000000000000
ENDCHAR
STARTCHAR 0055
ENCODING 85
SWIDTH 1041 0
DWIDTH 75 0
BBX 85 61 25 -2
BITMAP
0000000000000000000038
0000000000000000000070
00000000000000000000F0
0000000000000F000001E0
0000000000003F000003C0
0001FFC00000EF00000780
000F007000019E00000F00
0078001C00063C00001E00
00E00006001C7800003C00
038000000031F00000F800
070000000063E00001F000
0E000000018F800003E000
1C000000031F000007C000
380000000C3E00000F8000
30000000187C00001F0000
7000000031F800003E0000
60000000C3F000007C0000
E000000187E00000F80000
E00000070FC00001F80000
C000000C1F800003F00000
C00000383F000007E00000
C0000070FE00000FC00000
C00001C1FC00000F800000
60000383F800001F800000
60000E07F000003F000000
3000380FE000007E000000
1801E01FC00000FC000000
0E0F803F800001F8000000
03FC007F000003F0000000
000000FF000007F0000000
000001FE00000FE0000000
000003FC00001FC0000000
000003F800003FC0000000
000007F000007F80000000
00000FE00000FF00000000
00001FC00001FE00000000
00003FC00003FE00000000
00003F800007FC00000000
00007F00000DF800000000
0000FE00001BF800000000
0000FE000033F000000000
0001FC000067E000000000
0001F80000C7C000000000
0003F800018FC000000000
0003F000030F8000000000
0003F000061F0000000000
0003E0001C1F0000000000
0003E000383E0000000000
0003C000703E0000000000
0003C000E03C0000000000
00038001C07C0000000000
0003800380780000000000
0003800700780000000000
0003801C00780000000000
0001803800700000000000
0001C0E000700000000000
0000F7C000700000000000
00003E0000301800000000
0000000000381000000000
00000000001C6000000000
00000000000F8000000000
ENDCHAR
STARTCHAR 0056
ENCODING 86
SWIDTH 930 0
DWIDTH 67 0
BBX 93 61 19 -2
BITMAP
0000000000000000000003F0
000000000000000000000FF8
000000000000000000003FF8
000000007F8000000000FFF8
00000003C07000000003FF00
0000001C001800000007F800
00000060000C0000000FF000
0000018000060000003FC000
0000060000060000007F0000
000018000007000000FE0000
000020000007000001FC0000
0000C0000007000003F00000
00018000000F000007E00000
00060000000F00000FC00000
000C0000001F00001F800000
00180000003E00003F000000
00300000003E00007E000000
00600000007E0000FC000000
00C0000000FC0001F8000000
0380000001F80003F0000000
0300000003F80007C0000000
0600000C03F0000F80000000
0C00000C07E0001F00000000
1C0000180FE0001E00000000
180000101FC0003C00000000
380000203F80007800000000
700000607F0000F000000000
700000407F0001E000000000
60000080FE0003C000000000
E0000181FC00078000000000
E0000303F8000F0000000000
E0000607F0000E0000000000
E0000C0FE0001C0000000000
E000180FC000380000000000
7000601FC000780000000000
7000C03F8000F00000000000
3803007F0001E00000000000
1E1C00FE0003C00000000000
07E000FC0007800000000000
000001F8000F000000000000
000003F8000E000000000000
000007F0001C000000000000
000007E00038000000000000
00000FC00070000000000000
00001F8000E0000000000000
00001F0001C0000000000000
00003F000380000000000000
00007E000700000000000000
00007C000E00000000000000
0000FC001C00000000000000
0000F8003800000000000000
0000F0007000000000000000
0001F000E000000000000000
0001E001C000000000000000
0001E0038000000000000000
0001C0070000000000000000
0001C00E0000000000000000
0000C01C0000000000000000
0000C0700000000000000000
000061E00000000000000000
00003F000000000000000000
ENDCHAR
STARTCHAR 0057
ENCODING 87
SWIDTH 1222 0
DWIDTH 88 0
BBX 109 62 25 -2
BITMAP
00000000000000000000000001F8
0000000000000000000000000780
0000000000000700000000001F00
0000000000001F00001800007C00
0000000000003E0000F00000F800
000000000000EC0001E00001E000
0001FF800001180007E00003C000
000F00F0000630000FC0000F8000
00380018001860001F80001F0000
00E000040030C0003F00003E0000
0380000000C38000CF00007C0000
07000000018700019E0000F80000
0E000000030E00033C0001F00000
1C0000000C1E00067C0003E00000
38000000183C000C780007C00000
3000000030780018F8000F800000
70000000E0F80031F0001F000000
60000001C1F00061F0001E000000
E000000301F000C3F0003C000000
E000000E03E00187E00078000000
C000001C07E0030FE000F0000000
C00000380FC0070FC001E0000000
C00000E00FC00E1FC003C0000000
C00001C01F801C1F800780000000
C00007003F80383F800700000000
60000E003F00707F000E00000000
700038007F00F07F001C00000000
3800E000FE01E0FE003800000000
1C0F8000FE03C0FE007000000000
07FC0001FC0380FE00E000000000
00000003FC0701FC01C000000000
00000003F80F01FC01C000000000
00000007F81E03F8038000000000
00000007F03C03F8070000000000
0000000FF03803F00E0000000000
0000000FE07007F01C0000000000
0000000FE0E007E0380000000000
0000001FC1E00FE0700000000000
0000001FC3C00FE0600000000000
0000003F87800FC0C00000000000
0000003F87000FC1800000000000
0000003F0E001F83000000000000
0000007E1C001F86000000000000
0000007E38001F0C000000000000
0000007C70003F18000000000000
000000FC60003E30000000000000
000000F8C0007E70000000000000
000000F980007C60000000000000
000001F300007CC0000000000000
000001E60000F980000000000000
000003EC0000FB00000000000000
000003D80000F600000000000000
000007B00001EC00000000000000
000007600001F800000000000000
00000FC00003F000000000000000
00000F800003E000000000000000
00001F000007C000000000000000
00003C0000078000000000000000
00003800000F0000000000000000
00007000001E0000000000000000
0000600000180000000000000000
0000C00000100000000000000000
ENDCHAR
STARTCHAR 0058
ENCODING 88
SWIDTH 1097 0
DWIDTH 79 0
BBX 107 57 13 1
BITMAP
000000000003FF80000000000FE0
00000000003F8060000000007C00
0000000001F8003800000001E000
0000000007E0001C000000078000
000000001F80001E0000001E0000
000000003E00000E0000003C0000
000000007800000F000000F00000
00000000F000000F000001C00000
00000001E000000F800007800000
00000003C000000F80000E000000
000000078000000F80003C000000
000000070000000F800070000000
0000000F0000000F8001E0000000
0000000E0000000F800380000000
0000000E0000000F800F00000000
0000000E0002000F801C00000000
0000000E0006000F807800000000
00000007000C000F00E000000000
000000070030000F018000000000
00000003C0E0001F070000000000
00000001FF00001F0C0000000000
000000000000003F380000000000
000000000000003E700000000000
000000000000007FC00000000000
000000000000007F800000000000
00000000000000FE000000000000
00007F80000000FC000000000000
0007E060000001FC000000000000
001F0018000001F8000000000000
007C0004000003F8000000000000
00F00004000007F8000000000000
01E0000200000FF8000000000000
0380000200001FF0000000000000
0700000200003FF0000000000000
0E00180200002FF0000000000000
1C00200200004FE0000000000000
1800400200008FE0000000000000
3000400400030FE0000000000000
7000800400040FE0000000000000
6000800800080FC0000000000000
4000800800100FC0000000000000
C000C03000200FC0000000000000
C00070C000400FC0000000000000
80001F0001800FC0000000000000
8000000002000F80000000000000
800000000C000F80000000000000
8000000010000F80000000000000
8000000020000F80000000000000
40000000C0000780000000000000
4000000300000780000000000000
4000000400000780000000000000
2000001800000380000000000000
10000060000003C0000000000000
08000180000001C0180000000000
06000F00000000E0700000000000
03F3F8000000007DE00000000000
007FC0000000001F800000000000
ENDCHAR
STARTCHAR 0059
ENCODING 89
SWIDTH 1083 0
DWIDTH 78 0
BBX 91 74 17 -18
BITMAP
0000000000000003C0000000
000000FFC000001F800000E0
000007C07800007F000001C0
00001E000C0001FE00000380
00007800020007FC00000700
0001E00001000FF800000E00
0003C00000003FE000001C00
0007800000005FC000003800
000F00000001BF8000007000
001E000000027F000000E000
001C00000004FE000001C000
003C00000019FC000003C000
003800000027F80000078000
00780000004FF000000F0000
00700000019FE000001E0000
00700000023FC000003E0000
007000000C7F8000007C0000
0070000010FF000000F80000
0070000060FE000003F00000
0030000081FC000007F00000
0038000203F800000FE00000
0038000C07F000001FE00000
001C00300FF000003FC00000
000F03C00FE000006F800000
0003FE001FC00000DF800000
000000003F800001BF000000
000000003F0000033F000000
000000007F0000067E000000
00000000FE00000CFC000000
00000000FC000019FC000000
00000001FC000031F8000000
00000001F8000063F0000000
00000001F80000C7F0000000
00000001F0000187E0000000
00000003F000030FE0000000
00000003E000061FC0000000
00000003E0000C3F80000000
00000003E000103F80000000
00000003C000207F00000000
00000003C000C0FE00000000
00000001C00181FE00000000
00000001C00301FC00000000
00000000C00C03F800000000
00000000E03807F800000000
0000000070E007F000000000
0003FE001F800FE000000000
001F01C000001FE000000000
0078002000003FC000000000
01E0001000003F8000000000
0380001800007F0000000000
070000080000FE0000000000
0E0000080000FE0000000000
1C0000080001FC0000000000
380000080003F80000000000
300000180007F00000000000
700000100007E00000000000
60020020000FC00000000000
60010040001F800000000000
C000C380003F000000000000
C0007E00003E000000000000
80000000007C000000000000
8000000000F0000000000000
8000000001E0000000000000
8000000003C0000000000000
800000000F00000000000000
800000001E00000000000000
400000003800000000000000
40000000F000000000000000
20000003C000000000000000
100000070000000000000000
0800003C0000000000000000
060000F00000000000000000
01C00F800000000000000000
003FF8000000000000000000
ENDCHAR
STARTCHAR 005A
ENCODING 90
SWIDTH 875 0
DWIDTH 63 0
BBX 85 54 5 0
BITMAP
0000000000000000000008
00000000007FFFFFFFFFF0
0000000003FFFFFFFFFF80
000000001C000000000E00
00000000E0000000003800
000000030000000000F000
0000000C0000000003C000
00000010000000000F0000
00000020000000003E0000
0000004000000000F80000
0000008000000003F00000
0000008000080007C00000
000001000018001F800000
000001000030007E000000
00000100006000FC000000
0000010000C003F0000000
0000010003800FE0000000
0000018007001F80000000
000000C01C007F00000000
00000060F000FC00000000
0000003F8003F800000000
000000000007E000000000
00000000001FC000000000
00000000003F0000000000
0000000000FE0000000000
0000000003F80000000000
0000000007F00000000000
000000001FC00000000000
000000003F000000000000
00000000FE000000000000
00000001F8000000000000
00000007E0007F00000000
0000000F8003C0C0000000
0000003F000E0020000000
0000007C00380010000000
000001F000600008000000
000003C000C00008000000
00000F8000000008000000
00001E0000000008000000
0000380000000018000000
0000E00000000038000000
0001800000000070000000
00030000000000F0000000
000C0000000003E0000000
0018000000000FC0000000
002000000000FF80000000
00C07FFFFFFFFF00000000
010FFFFFFFFFFE00000000
027FFFFFFFFFFC00000000
07FFFFFFFFFFF000000000
1FFFFFFFFFFFC000000000
3FFFFFFFFFFF0000000000
700000FFFFF80000000000
C000003FFC000000000000
ENDCHAR
STARTCHAR 005C
ENCODING 92
SWIDTH 388 0
DWIDTH 28 0
BBX 14 51 10 1
BITMAP
F800
F800
F800
FC00
FC00
7C00
7C00
7C00
7C00
7E00
7E00
3E00
3E00
3E00
3E00
3F00
3F00
1F00
1F00
1F00
1F80
1F80
1F80
0F80
0F80
0F80
0FC0
0FC0
0FC0
07C0
07C0
07C0
07E0
07E0
03E0
03E0
03E0
03E0
03F0
03F0
01F0
01F0
01F0
01F8
01F8
01F8
00F8
00F8
00F8
00FC
00FC
ENDCHAR
STARTCHAR 005F
ENCODING 95
SWIDTH 625 0
DWIDTH 45 0
BBX 44 1 0 1
BITMAP
FFFFFFFFFFF0
ENDCHAR
STARTCHAR 0060
ENCODING 96
SWIDTH 236 0
DWIDTH 17 0
BBX 10 13 28 27
BITMAP
FE00
7E00
7E00
3E00
3E00
1E00
0E00
0F00
0700
0300
0180
0080
0040
ENDCHAR
STARTCHAR 0061
ENCODING 97
SWIDTH 347 0
DWIDTH 25 0
BBX 34 24 4 0
BITMAP
0001FFE000
00071FE000
001E1FC040
003C3F8180
00783F8180
00F87F0300
01F07F0300
03E0FE0600
07C0FC0C00
0FC1FC0C00
1F81F81800
1F03F03000
3F07F02000
3E07E06000
7E0FE0C000
7C1FC18000
FC3F830000
F83F830000
F86F060000
F0EF0C0000
F1CE180000
7186300000
7707E00000
3C03800000
ENDCHAR
STARTCHAR 0062
ENCODING 98
SWIDTH 305 0
DWIDTH 22 0
BBX 29 47 7 0
BITMAP
000001F0
000003F0
000003E0
000007C0
00000FC0
00000F80
00001F80
00001F00
00003E00
00007E00
00007C00
0000F800
0000F800
0001F000
0003F000
0003E000
0007C000
000FC000
000F8000
001F8000
001F0000
003E0000
007E7000
007CF800
00F9B800
00F91800
01F33808
03F23818
03E23830
07C27030
0FC27060
0F82F0C0
1F83E180
1F03E700
3E03FC00
3E07F800
7C078000
7C0F0000
780F0000
F81E0000
F03C0000
F0780000
E0700000
E0E00000
E3C00000
7F000000
3C000000
ENDCHAR
STARTCHAR 0063
ENCODING 99
SWIDTH 250 0
DWIDTH 18 0
BBX 27 25 4 0
BITMAP
00007800
0003CC00
000F0400
001E0400
007C7C20
00F8F860
01F9F8C0
03F1F180
07E1F180
0FC0C300
0F800600
1F800C00
3F000800
3E001800
7E003000
7C006000
7800C000
F8018000
F0030000
F0060000
E00C0000
E0380000
60E00000
7FC00000
1E000000
ENDCHAR
STARTCHAR 0064
ENCODING 100
SWIDTH 361 0
DWIDTH 26 0
BBX 39 47 4 1
BITMAP
000000003E
000000003E
000000007C
00000000FC
00000000F8
00000001F0
00000003F0
00000003E0
00000007C0
00000007C0
0000000F80
0000001F80
0000001F00
0000003E00
0000007E00
0000007C00
000000F800
000000F800
000001F000
000003F000
000003E000
000007C000
00000FC000
0007CF8000
001E5F0000
003C7F0000
00F87E0000
01F87C0200
03F0FC0400
03E0F80C00
07E1F80C00
0FC1F01800
0F83E03000
1F83E03000
3F07C06000
3E0F80C000
7E0F818000
7C1F010000
F83F020000
F83E040000
F07E0C0000
F0EE180000
E1CE300000
E38E600000
E70EC00000
7E07800000
3C07000000
ENDCHAR
STARTCHAR 0065
ENCODING 101
SWIDTH 250 0
DWIDTH 18 0
BBX 27 24 3 1
BITMAP
0000F800
0003C400
000F8400
001F0C00
007E0C00
00FC1C60
01F83840
03F070C0
07E0E180
0FC3C300
1F878200
1F9E0600
3FF00C00
3F801800
7E003000
7C006000
F8008000
F8010000
F0060000
F00C0000
F0380000
F0700000
7BC00000
3E000000
ENDCHAR
STARTCHAR 0066
ENCODING 102
SWIDTH 250 0
DWIDTH 18 0
BBX 44 70 -8 -23
BITMAP
0000000003F0
0000000003E0
0000000007E0
0000000007C0
000000000FC0
000000001F80
000000001F00
000000003F00
000000003E00
000000007E00
00000000FC00
00000000FC00
00000001F800
00000001F000
00000003F000
00000007E000
00000007E000
0000000FC000
0000000F8000
0000001F8000
0000003F0000
0000003F0000
0000007E0000
0000007C0000
000000FC0000
000001F80000
000001F80800
00001FF01800
00001FF03000
00003FE03000
00001FC06000
00001FC0C000
00003F818000
00007F830000
00007F860000
0000FD9C0000
0001F9F00000
0001F8800000
0003F0800000
0003E0800000
0007E0800000
000FC1800000
000F81800000
001F81800000
003F01800000
003E03000000
007E03000000
007C03000000
00F807000000
01F806000000
01F00E000000
03E00C000000
07E01C000000
07C018000000
0FC038000000
1F8030000000
1F0070000000
3F00E0000000
3E00C0000000
7C0180000000
7C0380000000
780700000000
F00E00000000
F01C00000000
E03800000000
E07000000000
E0E000000000
61C000000000
630000000000
3E0000000000
ENDCHAR
STARTCHAR 0067
ENCODING 103
SWIDTH 333 0
DWIDTH 24 0
BBX 47 48 -12 -23
BITMAP
00000007CFC0
0000001E7F80
000000783F80
000000F07F00
000001E07F00
000003C0FE02
00000780FC06
00000F81FC0C
00001F03F808
00003E03F018
00007C07F030
00007C07E060
0000F80FC0C0
0000F01FC180
0001F03F8300
0001E07F0600
0001E07E0C00
0003C0FE1800
0003C1FC3000
000383F86000
00038EF8C000
00039DF30000
0001F3FE0000
0001E3FC0000
000007F00000
00000FC00000
00000F800000
00001F000000
00007F000000
0001FE000000
00073E000000
000E7C000000
003878000000
00E0F8000000
0380F0000000
0701E0000000
1C01E0000000
3803C0000000
300780000000
700700000000
600F00000000
C01E00000000
C03C00000000
807800000000
80F000000000
81C000000000
478000000000
3E0000000000
ENDCHAR
STARTCHAR 0068
ENCODING 104
SWIDTH 361 0
DWIDTH 26 0
BBX 38 48 0 1
BITMAP
00000007E0
0000000FC0
0000000F80
0000001F80
0000003F00
0000003F00
0000007E00
0000007C00
000000FC00
000001F800
000001F000
000003F000
000003E000
000007E000
00000FC000
00000F8000
00001F8000
00001F0000
00003F0000
00007E0000
00007C0000
0000FC0000
0000F80000
0001F87800
0003F0FC00
0003E3FC00
0007E47C00
0007C8FC00
000FB0F80C
001FE1F818
001FC3F038
003F83F030
003F07E060
007E0FC0E0
00FC1FC0C0
00F81F8180
01F83F0300
03F07E0200
03E07C0600
07C0F80C00
07C0F81800
0F81F03000
1F01E06000
1F01E0C000
3E01C18000
3C01C30000
7C00EE0000
FC00780000
ENDCHAR
STARTCHAR 0069
ENCODING 105
SWIDTH 194 0
DWIDTH 14 0
BBX 23 39 5 0
BITMAP
00001C
00003E
00007E
00007E
00007E
00007C
000038
000000
000000
000000
000000
000000
000000
000000
000000
003F00
003E00
007C00
00FC00
00F802
01F006
03F00C
03E018
07C018
07C030
0F8060
1F80C0
1F0080
3E0100
7E0200
7C0400
780800
F81000
F02000
F04000
E08000
E10000
760000
380000
ENDCHAR
STARTCHAR 006A
ENCODING 106
SWIDTH 180 0
DWIDTH 13 0
BBX 49 64 -24 -24
BITMAP
00000000000700
00000000000F80
00000000001F80
00000000001F80
00000000001F80
00000000001F00
00000000000E00
00000000000000
00000000000000
00000000000000
00000000000000
00000000000000
00000000000000
00000000000000
00000000000000
00000000000000
00000000000000
000000000F8000
000000001F0000
000000003F0000
000000003E0080
000000007E0180
000000007C0300
00000000F80600
00000001F80E00
00000001F00C00
00000003E01800
00000007E03000
00000007C06000
0000000F80C000
0000001F808000
0000001F010000
0000003F020000
0000003E040000
0000007C080000
000000FC300000
000000F8600000
000001F0C00000
000003F3000000
000003E6000000
000007FC000000
000007F0000000
00000FC0000000
00001F80000000
0000FF00000000
0003FF00000000
000FBE00000000
003E3E00000000
00F87C00000000
01E07C00000000
03C0F800000000
0F00F000000000
1E01E000000000
1C03E000000000
3803C000000000
70078000000000
600F0000000000
C01E0000000000
C01C0000000000
80380000000000
80700000000000
81C00000000000
47800000000000
3E000000000000
ENDCHAR
STARTCHAR 006B
ENCODING 107
SWIDTH 333 0
DWIDTH 24 0
BBX 35 47 1 1
BITMAP
0000001F80
0000003F00
0000003E00
0000007E00
0000007C00
000000FC00
000001F800
000001F000
000003F000
000003E000
000007E000
000007C000
00000F8000
00001F8000
00001F0000
00003F0000
00003E0000
00007C0000
0000FC0000
0000F80000
0001F80000
0001F00000
0003F00000
0007E3C000
0007CFE000
000FDBE000
000FE1E000
001FC1E060
001F83C0C0
003F03C0C0
007E078180
007C0F0300
00FC1E0200
00F8780400
01FBE00C00
03FF801800
03E0C03000
07E0E06000
07C1E0C000
0FC3E08000
1F83E10000
1F07C20000
3F07840000
3E078C0000
7E07980000
7C07200000
F803C00000
ENDCHAR
STARTCHAR 006C
ENCODING 108
SWIDTH 208 0
DWIDTH 15 0
BBX 29 48 6 0
BITMAP
000000F8
000001F8
000001F0
000003F0
000003E0
000007C0
00000FC0
00000F80
00001F80
00001F00
00003E00
00007E00
00007C00
0000FC00
0001F800
0001F000
0003F000
0003E000
0007E000
000FC000
000F8000
001F8000
001F0000
003F0000
007E0000
007C0000
00FC0000
00F80000
01F00800
03F00800
03E01800
07E03000
07C07000
0F806000
1F80C000
1F018000
3F030000
3E020000
7C040000
7C0C0000
78180000
F8300000
F0600000
F0C00000
E1800000
E3000000
6E000000
78000000
ENDCHAR
STARTCHAR 006D
ENCODING 109
SWIDTH 513 0
DWIDTH 37 0
BBX 47 25 1 1
BITMAP
0003E1E03E00
0007E3F07F00
0007CFF1FF00
000F98F39F00
001FB1F73E00
001F61FE7E06
003FC3FC7C04
003F83F8FC0C
007F07F1F818
00FE07E1F030
00FC0FC3F030
01FC1F83E060
01F81F87C0C0
03F03F0FC180
07E03E0F8380
07C07E1F0700
0FC07C1E0600
0F80F81E0C00
1F01F83C1800
1F01F0383800
3E03F0387000
7E03E030E000
7C07E031C000
FC07C01F8000
F80F800E0000
ENDCHAR
STARTCHAR 006E
ENCODING 110
SWIDTH 347 0
DWIDTH 25 0
BBX 37 25 0 0
BITMAP
0003F07800
0003E1BC00
0007C63C00
0007CC7C00
000F987C00
001FF0F808
001FE1F818
003FC3F010
003F87E020
007F0FE060
007E0FC0C0
00FC1F8080
01F83F0100
01F87F0200
03F07E0400
03E0FC0C00
07E0F81800
0FC0F83000
0F81F02000
1F81E04000
1F01E08000
3F01C10000
3E01C20000
7E00EC0000
FC00700000
ENDCHAR
STARTCHAR 006F
ENCODING 111
SWIDTH 291 0
DWIDTH 21 0
BBX 30 24 4 1
BITMAP
0001F000
00078800
001F0400
003E0400
007C0400
00F80C00
01F00C0C
03E31818
07C79830
0F879860
1F873180
1F03FE00
3E03F800
3E01C000
7C038000
78070000
F80F0000
F00E0000
F01C0000
E0380000
E0700000
61E00000
77800000
1E000000
ENDCHAR
STARTCHAR 0070
ENCODING 112
SWIDTH 347 0
DWIDTH 25 0
BBX 46 50 -11 -18
BITMAP
00000001C000
00000003E000
00000003E000
00000007E000
0000000FC000
0000000F8000
0000001F8000
0000003F0000
0000003F0000
0000007E3C00
0000007CDC00
000000FD1E00
000001FE1E00
000001FC1E04
000003F81E0C
000007F03E18
000007E03C18
00000FE07C30
00000FC07C20
00001F80F840
00003F00F8C0
00003E01F080
00007E03F100
0000FE03E300
0000FE07C200
0001FF0FC400
0003F11F8800
0003F1BF1000
0007E0FE6000
0007E0FFC000
000FC1FE0000
001FF3E00000
001F3F000000
003F00000000
007E00000000
007C00000000
00FC00000000
00F800000000
01F000000000
03F000000000
03E000000000
07C000000000
0FC000000000
0F8000000000
1F0000000000
1F0000000000
3E0000000000
7C0000000000
7C0000000000
F80000000000
ENDCHAR
STARTCHAR 0071
ENCODING 113
SWIDTH 347 0
DWIDTH 25 0
BBX 39 51 -2 -26
BITMAP
00000F8FC0
00003CDF80
0000787F00
0001F07F00
0003E0FE02
0007C0FC06
000F80FC04
001F81F80C
003F01F018
007E03F030
00FC03E030
00FC07C060
01F807C0C0
01F0078080
03F00F8100
03E01F0300
07E03E0600
07C07E0C00
07C0FC1800
07C1F83000
0783FC4000
0787FC8000
03DBFF0000
01F7FE0000
000FEC0000
000FC40000
001F840000
003F040000
003F040000
007E0C0000
00FC0C0000
00FC080000
01F8080000
03F0080000
03E0100000
07E0100000
0FC0200000
0F80200000
1F00400000
3F00C00000
3E01800000
7C03000000
7C02000000
7806000000
F00C000000
E018000000
E030000000
C060000000
4080000000
6300000000
3C00000000
ENDCHAR
STARTCHAR 0072
ENCODING 114
SWIDTH 263 0
DWIDTH 19 0
BBX 23 29 9 -1
BITMAP
018000
03C000
078000
0F8000
0F0400
1F7E00
1FFE00
3FFE00
3FFE00
1C7C06
00FC06
01F80C
03F01C
03F018
07E030
0FC060
1FC040
1F80C0
3F0180
3E0100
7E0200
7C0400
F80800
F81000
F02000
E04000
E08000
730000
3C0000
ENDCHAR
STARTCHAR 0073
ENCODING 115
SWIDTH 250 0
DWIDTH 18 0
BBX 28 29 4 0
BITMAP
00010000
00078000
000F8000
001F0000
001E0000
003E0000
007C0000
00780000
00F80000
01BC0000
033C0030
031C0060
021C00C0
001E00C0
001E0180
001E0200
001E0400
003E0800
003E3000
303EC000
783F8000
4C7E0000
C7FC0000
83F80000
81F80000
83F00000
87E00000
7F800000
3E000000
ENDCHAR
STARTCHAR 0074
ENCODING 116
SWIDTH 208 0
DWIDTH 15 0
BBX 29 40 5 -1
BITMAP
000007C0
00000FC0
00001F80
00001F00
00003F00
00003E00
00007E00
0000FC00
0000F800
0001F800
01FFFFF8
0007E000
0007C000
000FC000
000F8000
001F8000
003F0000
003E0000
007E0000
00FC0000
00F80000
01F80400
01F00C00
03E01800
07E03800
07C03000
0FC06000
1F80C000
1F018000
3F010000
3E030000
7C060000
7C0C0000
78180000
F0300000
F0600000
E0800000
E1000000
E6000000
78000000
ENDCHAR
STARTCHAR 0075
ENCODING 117
SWIDTH 361 0
DWIDTH 26 0
BBX 31 25 6 -2
BITMAP
007C0FC0
00F81F80
00F81F80
01F83F00
01F03E00
03E07E02
03E07C06
07C0F80C
0780F80C
0F81F018
0F03F030
1F03E060
1E07C040
3C0FC0C0
3C0F8180
781F8100
783F0200
703E0400
F05E0800
E09C1800
E11C3000
C2186000
C418C000
DC0B8000
700E0000
ENDCHAR
STARTCHAR 0076
ENCODING 118
SWIDTH 305 0
DWIDTH 22 0
BBX 29 24 6 1
BITMAP
00000E00
007E1E00
007C3E00
00FC3C00
01F87C08
01F07C08
03F0F810
07E0F820
07C0F040
0FC0E080
1F80E100
1F00E200
3E01FC00
3E038000
7C078000
780F0000
F80E0000
F01C0000
E0380000
E0F00000
C1C00000
C3800000
7E000000
78000000
ENDCHAR
STARTCHAR 0077
ENCODING 119
SWIDTH 458 0
DWIDTH 33 0
BBX 40 25 6 1
BITMAP
0000000380
003E07E780
007C07C780
00F80F8F80
00F81F8F00
01F03F1F03
03E03E1E06
03E07E1E04
07C0FC1E08
07C0F81C10
0F81F81C60
1F03F01F80
1F03F03800
3E07E03000
3C0FC06000
7C1FC0C000
781F818000
703F818000
F06F030000
E0CE060000
E18E0C0000
C30C180000
C60C300000
7C0EC00000
3807800000
ENDCHAR
STARTCHAR 0078
ENCODING 120
SWIDTH 263 0
DWIDTH 19 0
BBX 35 33 -4 -7
BITMAP
00000000C0
00000001E0
00000003C0
00003C0600
00007C0C00
0000F81800
0000F87000
0001F06060
0001E0C0C0
0003E18180
0003C38380
0007C30300
0007860600
00078C0C00
000F1C0C00
000F381800
000F301000
001E602000
001EE04000
001FC08000
001F810000
001F020000
001F060000
001E0C0000
001C180000
003C600000
007FC00000
0060000000
00C0000000
C180000000
E700000000
CC00000000
F000000000
ENDCHAR
STARTCHAR 0079
ENCODING 121
SWIDTH 375 0
DWIDTH 27 0
BBX 48 48 -11 -24
BITMAP
000000FC0FC0
000001F81F80
000003F83F00
000003F03F00
000007E07E03
000007E07E02
00000FC0FC06
00001F81F80C
00001F81F80C
00003F03F018
00003E07E030
00007C07E060
0000FC0FC0C0
0000F81FC080
0001F01F8180
0001F03F0300
0003E07F0600
0003E0FE0800
0003C1FC1000
0003C3FC2000
000386F8C000
00038DF98000
0003F9F60000
0001E1FC0000
000003F00000
000007E00000
000007800000
00000F800000
00001F000000
0000FF000000
00033E000000
001C3E000000
00787C000000
00E078000000
03C0F8000000
0780F0000000
0E01E0000000
1C01E0000000
3803C0000000
380780000000
700700000000
600F00000000
E01E00000000
C03C00000000
C07800000000
C0F000000000
61C000000000
1F0000000000
ENDCHAR
STARTCHAR 007A
ENCODING 122
SWIDTH 291 0
DWIDTH 21 0
BBX 44 49 -13 -24
BITMAP
0000000FC000
0000003FC000
0000007FE000
000001FFE000
000003C7E010
00000303E030
00000603E030
00000003E060
00000007C0C0
00000007C0C0
0000000F8180
0000000F8300
0000001F0200
0000001E0400
0000003C0800
0000003C1000
000000781000
000000F06000
000001E0C000
000003818000
0003FF020000
0003FC040000
0003FC180000
000006700000
000007C00000
000007000000
00000F000000
00003F000000
0000FF000000
0007CF000000
001F1F000000
003C1E000000
00F01E000000
03E03E000000
07803E000000
0F007C000000
1E007C000000
3C00F8000000
7800F8000000
7001F0000000
E003E0000000
C007C0000000
C00780000000
800F00000000
803E00000000
807C00000000
C0F000000000
63E000000000
3F0000000000
ENDCHAR
STARTCHAR 007B
ENCODING 123
SWIDTH 277 0
DWIDTH 20 0
BBX 20 67 5 -8
BITMAP
001FF0
003FE0
007FE0
00FF00
00FE00
00FC00
00FC00
01FC00
01FC00
01F800
01F800
01F800
01F800
01F800
01F800
01F800
03F800
03F800
03F000
03F000
03F000
03F000
03F000
03F000
07F000
07F000
07E000
07E000
07E000
07E000
0FC000
0FC000
1F0000
FC0000
3F0000
1F8000
0FC000
0FC000
0FC000
0FC000
1FC000
1FC000
1F8000
1F8000
1F8000
1F8000
1F8000
1F8000
3F8000
3F8000
3F8000
3F0000
3F0000
3F0000
3F0000
3F0000
7F0000
7F0000
7F0000
7E0000
7E0000
7E0000
7F0000
7F0000
7FF000
3FF000
1FF000
ENDCHAR
STARTCHAR 007C
ENCODING 124
SWIDTH 250 0
DWIDTH 18 0
BBX 5 51 9 1
BITMAP
F8
F8
F8
F8
F8
F8
F8
F8
F8
F8
F8
F8
F8
F8
F8
F8
F8
F8
F8
F8
F8
F8
F8
F8
F8
F8
F8
F8
F8
F8
F8
F8
F8
F8
F8
F8
F8
F8
F8
F8
F8
F8
F8
F8
F8
F8
F8
F8
F8
F8
F8
ENDCHAR
STARTCHAR 007D
ENCODING 125
SWIDTH 277 0
DWIDTH 20 0
BBX 20 67 2 -8
BITMAP
00FF80
00FFC0
00FFE0
000FE0
000FE0
0007E0
000FE0
000FE0
000FE0
000FC0
000FC0
000FC0
000FC0
000FC0
000FC0
001FC0
001FC0
001F80
001F80
001F80
001F80
001F80
001F80
003F80
003F80
003F00
003F00
003F00
003F00
003F00
003F00
001F80
000F80
0003F0
001F80
003F00
003F00
007E00
007E00
00FE00
00FE00
00FE00
00FC00
00FC00
00FC00
00FC00
00FC00
01FC00
01FC00
01FC00
01F800
01F800
01F800
01F800
01F800
01F800
03F800
03F800
03F000
03F000
03F000
03F000
07F000
0FF000
7FE000
FFC000
FF8000
ENDCHAR
STARTCHAR 00A0
ENCODING 160
SWIDTH 500 0
DWIDTH 36 0
BBX 0 0 0 0
BITMAP
ENDCHAR
STARTCHAR 00A1
ENCODING 161
SWIDTH 291 0
DWIDTH 21 0
BBX 39 53 8 0
BITMAP
000000003C
00000000FE
00000001FE
00000001FE
00000001FE
00000001FC
00000000F8
0000000070
0000000000
0000000000
0000000000
0000000000
0000000200
0000000200
0000000400
0000000C00
0000001800
0000003800
0000007000
0000006000
000000E000
000001C000
000003C000
0000078000
00000F0000
00001F0000
00003E0000
00007E0000
0000FC0000
0001F80000
0001F80000
0003F00000
0007F00000
000FE00000
001FE00000
003FC00000
007F800000
007F800000
00FF000000
01FF000000
03FE000000
03FC000000
07F8000000
0FF8000000
0FF0000000
1FE0000000
3FC0000000
3F80000000
7F00000000
7E00000000
7C00000000
F800000000
6000000000
ENDCHAR
STARTCHAR 00A2
ENCODING 162
SWIDTH 402 0
DWIDTH 29 0
BBX 28 42 10 -7
BITMAP
00000030
00000060
00000060
000000C0
000000C0
00000180
00000380
00000300
00000600
00000600
00003C00
0001FC00
00078400
000F0400
003E7C20
007CFC60
00F8F8C0
01F8F9C0
03F0F180
07E0E300
07C00600
0FC00C00
1F800C00
1F001800
3E003000
3E006000
3C00C000
7C018000
78030000
78060000
700C0000
70380000
30600000
3BC00000
1F000000
18000000
10000000
30000000
20000000
60000000
40000000
C0000000
ENDCHAR
STARTCHAR 00A3
ENCODING 163
SWIDTH 1166 0
DWIDTH 84 0
BBX 89 69 11 -6
BITMAP
000000000000000000001E00
000000000000000000007F00
000000000007FE000001FF80
00000000007C01E00007F180
0000000001C0003C000FC080
0000000007000007001F0080
000000001C000001803E0080
000000003800000300FC0100
00000000E000000201F80100
00000001C000000603F00200
000000038000000C07E00600
00000003800000080FE00400
00000007000000180FC00C00
0000000E000000301F801800
0000000E000000603F003000
0000000E000000607E006000
0000001C000000C0FC00C000
0000001C00000181FC01C000
0000001C00000103F8038000
0000001C00000307F0070000
0000001C00000607E01C0000
0000001C00000C0FE0380000
0000000C0000081FC0F00000
0000000C0000103F81E00000
000000060000307F03C00000
00000006000060FF0F000000
000000030000C1FE1C000000
00000001000181FC78000000
00000000800303FDE0000000
00000000600607FF80000000
00000000181C0FFE00000000
0000000007301FF000000000
0000000001FFFFE000000000
0000000003807FC000000000
0000000007007F8000000000
000000001E00FF0000000000
000000007801FE0000000000
00000001E001FC0000000000
0000000F8003FC0000000000
0000007C0007F80000000000
000007F00007F00000000000
0003FFFFFFFFFFFFFFF00000
00000000001FC00000000000
00000000003F800000000000
00000000003F000000000000
00000000007E000000000000
0000000000FC000000000000
0000000001F8000000000000
0000000003F0000000000000
00FFE00007E0000000000000
03FFFE000FC0000000000000
0FFFFFC01F00000000000000
1FFFFFF83E00000000000000
3C01FFFF7800000000000000
60001FFFF000000000000000
400003FFF000000000000000
8000007FF800000000000000
8000001FFE00000000000000
8000003FFF80000000000000
C0000070FFC0000000000000
600001803FF0000000000000
38000E0007FC000000000000
1FC0F80007FF000000000000
03FF800003FFC00000000000
00000000007FF00000000000
00000000001FFC0000000000
000000000003FF8000000000
000000000000FFF800000000
0000000000000FFFFE000000
ENDCHAR
STARTCHAR 00A4
ENCODING 164
SWIDTH 486 0
DWIDTH 35 0
BBX 25 25 8 13
BITMAP
60000300
F0000780
F87F0F80
7DFFDF00
3FFFFE00
1FE3F800
0F00F800
1E007C00
1C003C00
3C001E00
3C001E00
38001E00
38001E00
38001E00
3C001E00
3C001C00
1E003C00
1F007800
0F80F800
1FFFFC00
3FFFFE00
7DFF9F00
F83E0F80
F0000780
40000300
ENDCHAR
STARTCHAR 00A5
ENCODING 165
SWIDTH 819 0
DWIDTH 59 0
BBX 48 55 34 1
BITMAP
3FFFFE03FFFF
03FFC0003FF0
00FF80001F80
007F00001F00
007F00001E00
003F00001C00
003F00003800
003F00007000
003F80007000
001F8000E000
001F8001C000
001F80038000
001FC0038000
001FC0070000
000FC00E0000
000FC01C0000
000FE01C0000
000FE0380000
0007E0700000
0007E0600000
0007F0E00000
0007F1C00000
1FFFF3FFF800
1FFFF3FFF800
1FFFFFFFF800
3FFFFFFFF000
0003FE000000
0001FC000000
0001FC000000
0001F8000000
0001F8000000
0001F8000000
FFFFFFFFE000
FFFFFFFFC000
FFFFFFFFC000
0007E0000000
0007E0000000
0007E0000000
000FC0000000
000FC0000000
000FC0000000
000FC0000000
001F80000000
001F80000000
001F80000000
001F80000000
003F00000000
003F00000000
003F00000000
003F00000000
007F00000000
00FF00000000
01FF80000000
1FFFF0000000
7FFFFC000000
ENDCHAR
STARTCHAR 00A8
ENCODING 168
SWIDTH 194 0
DWIDTH 14 0
BBX 14 4 22 28
BITMAP
783C
F87C
F87C
7038
ENDCHAR
STARTCHAR 00A9
ENCODING 169
SWIDTH 888 0
DWIDTH 64 0
BBX 53 53 8 -1
BITMAP
00000FFF800000
00007FFFF00000
0001F000FC0000
000780001F0000
001E0000078000
0038000003E000
0070000000F000
00E00000007800
01C000FFC03C00
038007FFF01E00
07000FFFFC0F00
0E003FFFFE0F00
0E007F007E0780
1C00FC001E03C0
1C01F0000403C0
3803E0000001C0
3807C0000001E0
300780000001E0
700F80000000F0
700F00000000F0
601E00000000F0
E01E00000000F0
E03E00000000F0
E03C0000000078
E03C0000000078
E03C0000000078
E03C0000000078
E03C00000000F8
E03C00000000F8
E03C00000000F8
F03C00000000F0
F03E00000000F0
703E00000001F0
781F00000001F0
781F00000001E0
3C0F80000003E0
3C0FC0006003E0
3E07F001F007C0
1E03FE0FF80FC0
1F01FFFFE00F80
0F80FFFF801F80
07C01FFE003F00
07E001C0007E00
03F0000000FC00
01F8000003FC00
00FE000007F800
007F80001FE000
003FF000FFC000
000FFFFFFF8000
0007FFFFFE0000
0001FFFFF80000
00003FFFE00000
000003FE000000
ENDCHAR
STARTCHAR 00AA
ENCODING 170
SWIDTH 486 0
DWIDTH 35 0
BBX 28 32 7 22
BITMAP
000F8000
003FF1F0
00FFF9F0
01FFFDF0
03FC7DF0
07E01FF0
0FC00FE0
0F8007E0
1F8003E0
1F0003E0
1F0003E0
3E0003E0
3E0003E0
3E0003E0
3E0003C0
3E0007C0
3E0007C0
3F000FC0
3F001FC0
1F803FC0
1FE0FFC0
0FFFF7C0
07FFE7C0
03FF8780
00FE0780
00000000
00000000
00000000
FFFFFF80
FFFFFF80
FFFFFF80
FFFFFF00
ENDCHAR
STARTCHAR 00AB
ENCODING 171
SWIDTH 472 0
DWIDTH 34 0
BBX 24 25 14 0
BITMAP
001C07
007C1F
00F83E
01F0F8
07C1E0
0F03C0
1C0700
381E00
783C00
F07C00
F03C00
783C00
783C00
781C00
381E00
380E00
1C0E00
1C0F00
1C0700
0E0700
0E0380
070180
0301C0
0180C0
000040
ENDCHAR
STARTCHAR 00AC
ENCODING 172
SWIDTH 597 0
DWIDTH 43 0
BBX 34 16 7 14
BITMAP
FFFFFFFFC0
FFFFFFFFC0
FFFFFFFFC0
FFFFFFFFC0
FFFFFFFFC0
FFFFFFFFC0
00000003C0
00000003C0
00000003C0
00000003C0
00000003C0
00000003C0
00000003C0
00000003C0
00000003C0
00000003C0
ENDCHAR
STARTCHAR 00AE
ENCODING 174
SWIDTH 888 0
DWIDTH 64 0
BBX 53 53 8 -1
BITMAP
00000FFF800000
00007FFFF00000
0001F000FC0000
000780001F0000
001E0000078000
0038000003E000
0070000000F000
00E00000007800
01C00000003C00
03800000001E00
07000FFF000F00
0E001FFFC00F00
0E001FFFE00780
1C001E03F003C0
1C001E01F803C0
38001E00F801C0
38001E00F801E0
30001E007801E0
70001E007800F0
70003E00F800F0
60003E00F000F0
E0003C00F000F0
E0003C01F000F0
E0003C03E00078
E0003C0FC00078
E0003FFF800078
E0003FFC000078
E0007FE00000F8
E0007DF00000F8
E00079F80000F8
F00078F80000F0
F000787C0000F0
7000787C0001F0
7800783E0001F0
7800F83E0001E0
3C00F81F0003E0
3C00F81F8003E0
3E00F00F8007C0
1E00F007C00FC0
1F00F007C00F80
0F80F003E01F80
07C0F003E03F00
07E00000007E00
03F0000000FC00
01F8000003FC00
00FE000007F800
007F80001FE000
003FF000FFC000
000FFFFFFF8000
0007FFFFFE0000
0001FFFFF80000
00003FFFE00000
000003FE000000
ENDCHAR
STARTCHAR 00AF
ENCODING 175
SWIDTH 263 0
DWIDTH 19 0
BBX 20 3 22 28
BITMAP
0FFFF0
7FFFE0
FFFF00
ENDCHAR
STARTCHAR 00B0
ENCODING 176
SWIDTH 194 0
DWIDTH 14 0
BBX 11 11 24 27
BITMAP
1F00
3FC0
71C0
E0E0
C060
C060
C060
E0E0
71C0
7F80
1F00
ENDCHAR
STARTCHAR 00B1
ENCODING 177
SWIDTH 555 0
DWIDTH 40 0
BBX 33 31 3 1
BITMAP
0003E00000
0003E00000
0003E00000
0003E00000
0003E00000
0003E00000
0003E00000
0003E00000
0003E00000
FFFFFFFF80
FFFFFFFF80
FFFFFFFF80
FFFFFFFF80
0003E00000
0003E00000
0003E00000
0003E00000
0003E00000
0003E00000
0003E00000
0003E00000
0003E00000
0003E00000
0000000000
0000000000
0000000000
0000000000
FFFFFFFF80
FFFFFFFF80
FFFFFFFF80
FFFFFFFF80
ENDCHAR
STARTCHAR 00B4
ENCODING 180
SWIDTH 125 0
DWIDTH 9 0
BBX 12 8 21 29
BITMAP
01F0
03E0
03C0
0780
0F00
1C00
3000
E000
ENDCHAR
STARTCHAR 00B5
ENCODING 181
SWIDTH 569 0
DWIDTH 41 0
BBX 34 47 5 -15
BITMAP
FC0007E000
FC0007E000
FC0007E000
FC0007E000
FC0007E000
FC0007E000
FC0007E000
FC0007E000
FC0007E000
FC0007E000
FC0007E000
FC0007E000
FC0007E000
FC0007E000
FC0007E000
FC0007E000
FC0007E000
FC000FE000
FC000FE000
FC000FE000
FC000FE000
FC001FE000
FC0017E000
FE0037E040
FE0037E040
FE0067E040
FE0063E040
BE00C3E040
BF01C3F0C0
9FCF81FB80
8FFF01FF80
C7FE00FF00
C3F8007E00
C000000000
C000000000
E000000000
E000000000
E000000000
F000000000
F000000000
F800000000
F800000000
F800000000
FC00000000
FC00000000
FC00000000
7800000000
ENDCHAR
STARTCHAR 00B6
ENCODING 182
SWIDTH 555 0
DWIDTH 40 0
BBX 37 51 7 0
BITMAP
000FFFFFF8
007FFFFFF8
01FFFFFFF8
07F0000000
0F80000000
1F00000000
1E001E0F00
3C001E0F00
78001E0E00
78001E1E00
70001E1E00
F0001E1E00
F0001C1E00
F0003C1E00
F0003C1E00
F0003C1E00
F0003C1E00
F0003C1C00
78003C3C00
78003C3C00
7C00383C00
3E00383C00
1F00783C00
0FC0783C00
07FFF83C00
03FFF83800
00FFF87800
0000787800
0000787800
0000F07800
0000F07800
0000F07800
0000F07800
0000F07000
0000F0F000
0000F0F000
0000F0F000
0000E0F000
0001E0F000
0001E0F000
0001E0F000
0001E0F000
0001E0E000
0001E1E000
0001E1E000
0001C1E000
0003C1E000
0003C1E000
0003C1E000
0003C1E000
0003C1C000
ENDCHAR
STARTCHAR 00B7
ENCODING 183
SWIDTH 222 0
DWIDTH 16 0
BBX 8 8 15 11
BITMAP
1C
3E
7F
FF
FF
FF
FE
78
ENDCHAR
STARTCHAR 00B8
ENCODING 184
SWIDTH 138 0
DWIDTH 10 0
BBX 9 11 -6 -10
BITMAP
0080
0180
0380
0780
0F80
0380
0180
C180
C100
E600
7800
ENDCHAR
STARTCHAR 00BA
ENCODING 186
SWIDTH 472 0
DWIDTH 34 0
BBX 27 32 7 22
BITMAP
001FF800
007FFE00
00FFFF00
01FFFF80
03FC3FC0
07E00FC0
0FC007E0
0F8007E0
1F0003E0
1F0003E0
1E0003E0
3E0003E0
3E0003E0
3E0003E0
3E0003E0
3E0003C0
3E0007C0
1F000F80
1F801F80
0FC03F00
0FF0FE00
07FFFC00
03FFF800
01FFE000
003F8000
00000000
00000000
00000000
FFFFFF80
FFFFFF80
FFFFFF80
FFFFFF80
ENDCHAR
STARTCHAR 00BB
ENCODING 187
SWIDTH 472 0
DWIDTH 34 0
BBX 24 25 13 1
BITMAP
020180
0301C0
0380E0
01C0E0
01C070
00E070
00E038
007038
00703C
00781C
00381C
00381E
003C0E
003C0F
003C0F
003E0F
003C1E
00701C
00E078
03C0F0
0F83E0
3F0F80
7E1F00
F83E00
603000
ENDCHAR
STARTCHAR 00BF
ENCODING 191
SWIDTH 611 0
DWIDTH 44 0
BBX 43 55 12 0
BITMAP
0000000001C0
0000000003E0
0000000007E0
0000000007E0
0000000007E0
0000000007E0
0000000007C0
000000000380
000000000000
000000000000
000000000000
00000000F800
000000000C00
000000000400
000000000400
000000000400
000000000C00
000000001800
000000003000
00000000E000
000000078000
0000001F0000
0000007C0000
000003F00000
00000FC00000
00003F000000
0000FE000000
0003FC000000
000FF8000000
001FE0000000
007FC0000000
00FF80000000
01FF0003E000
07FE000C1800
0FFC00180800
1FF800300400
1FF000600400
3FF000400400
7FE000000400
7FC000000C00
FFC000000800
FF8000000800
FF8000001000
FF8000003000
FF0000006000
FF0000004000
FF0000008000
7F0000030000
7F0000060000
3F80000C0000
1F8000300000
0FC000C00000
07E007000000
01FEFC000000
007FC0000000
ENDCHAR
STARTCHAR 00C0
ENCODING 192
SWIDTH 1027 0
DWIDTH 74 0
BBX 91 84 11 -4
BITMAP
000000000007E00000000000
000000000007E00000000000
000000000003F00000000000
000000000003F00000000000
000000000001F00000000000
000000000000F00000000000
000000000000F00000000000
000000000000700000000000
000000000000380000000000
000000000000380000000000
000000000000180000000000
0000000000000C0000000000
000000000000040000000000
000000000000000000000000
000000000000000000000000
000000000000000000000000
000000000000000000000000
000000000000000000000000
000000000000000000000000
000000000000000000000000
0000000000000000000000E0
0000000000000000000003E0
000000000000000000001FE0
0000000000000000000079C0
00000000000000000001E380
000000000000000000038780
0000000000000000000E0F00
000000000000000000181E00
000000000000000000703C00
000000000000000000E07800
00000000000000000180F000
00000000000000000301F000
00000000000000000E03E000
00000000000000001C07C000
00000000000000003807C000
0000000000000000700F8000
0000000000000000E01F0000
0000000000000001C03E0000
0000000000000003807E0000
000000000000000700FC0000
000000000000000E01F80000
000000000000001C01F80000
000000000000003803F00000
000000000000007007E00000
00000000000000E00FC00000
00000000000001E01FC00000
00000000000003C01F800000
00000000000007803F000000
0000000000000F007F000000
0000FF8000000E00FE000000
0007C07000001E01FC000000
001F001800003C01F8000000
007C000C00007803F8000000
00F000040000F007F0000000
01E000020001F00FE0000000
03C000020003E00FE0000000
078000020007C01FC0000000
0F0000020007803F80000000
1E0038023FFFFFFF80000000
1C007002003E01FF00000000
3C00C004007C01FE00000000
3800C00400F801FE00000000
7000800801F003FC00000000
7000801803E003F800000000
6000C03007C007F800000000
E00070C0078007F000000000
E0003F000F0007F000000000
C00000001E000FE000000000
C00000003C000FC000000000
C000000078000FC000000000
C0000000F0001F8000000000
C0000001E0001F8000000000
60000003C0001F0000000000
6000000780001F0000000000
6000000E00001E0000000000
3000003C00001E0000000000
1800007800001E0000000000
0C0001E000001C0000000000
0700078000000C0000000000
01F9FE0000000C0000000000
003FF00000000C0C00000000
000000000000040C00000000
000000000000023800000000
00000000000001F000000000
ENDCHAR
STARTCHAR 00C1
ENCODING 193
SWIDTH 1027 0
DWIDTH 74 0
BBX 92 81 11 -4
BITMAP
0000000000007C0000000000
000000000000780000000000
000000000000F00000000000
000000000001E00000000000
000000000003C00000000000
000000000007800000000000
00000000000E000000000000
000000000038000000000000
000000000040000000000000
000000000000000000000000
000000000000000000000000
000000000000000000000000
000000000000000000000000
000000000000000000000000
000000000000000000000000
000000000000000000000000
000000000000000000000000
0000000000000000000000F0
0000000000000000000003F0
000000000000000000001FE0
000000000000000000007DC0
00000000000000000001E3C0
000000000000000000038780
0000000000000000000E0F00
0000000000000000001C1E00
000000000000000000303C00
000000000000000000E07C00
000000000000000001C0F800
00000000000000000300F000
00000000000000000601E000
00000000000000001C03C000
00000000000000003807C000
0000000000000000700F8000
0000000000000000E01F0000
0000000000000001C03F0000
0000000000000003807E0000
0000000000000007007C0000
000000000000000E00F80000
000000000000001C01F80000
000000000000003803F00000
000000000000007007E00000
00000000000000F007E00000
00000000000001E00FC00000
00000000000003C01F800000
00000000000007803F000000
00000000000007007F000000
0000FF8000000F007E000000
0007C07000001E00FC000000
001F001800003C01FC000000
007C000C00007803F8000000
00F000040000F007F0000000
01E000020001F007E0000000
03C000020003E00FE0000000
078000020007C01FC0000000
0F0000020007803F80000000
1E0038023FFFFFFF80000000
1C007002003E00FF00000000
3C00C004007C01FE00000000
3800C00400F801FE00000000
7000800801F003FC00000000
7000801803E003FC00000000
6000C03007C007F800000000
E00070C0078007F000000000
E0003F000F0007F000000000
C00000001E000FE000000000
C00000003C000FC000000000
C000000078000FC000000000
C0000000F0001F8000000000
C0000001E0001F8000000000
60000003C0001F0000000000
6000000780001F0000000000
6000000E00001E0000000000
3000003C00001E0000000000
1800007800001E0000000000
0C0001E000001C0000000000
0700078000000C0000000000
01F9FE0000000C0000000000
003FF00000000C0400000000
000000000000040C00000000
000000000000021800000000
00000000000001F000000000
ENDCHAR
STARTCHAR 00C2
ENCODING 194
SWIDTH 1027 0
DWIDTH 74 0
BBX 92 82 11 -4
BITMAP
0000000000007C0000000000
000000000000FC0000000000
000000000001FC0000000000
000000000003F80000000000
000000000007D80000000000
00000000000F180000000000
00000000001C180000000000
000000000038100000000000
0000000000E0100000000000
000000000180100000000000
000000000300100000000000
000000000000000000000000
000000000000000000000000
000000000000000000000000
000000000000000000000000
000000000000000000000000
000000000000000000000000
000000000000000000000000
0000000000000000000000F0
0000000000000000000003F0
000000000000000000001FE0
000000000000000000007DC0
00000000000000000001E3C0
000000000000000000038780
0000000000000000000E0F00
0000000000000000001C1E00
000000000000000000303C00
000000000000000000E07C00
000000000000000001C0F800
00000000000000000300F000
00000000000000000601E000
00000000000000000C03C000
00000000000000003807C000
0000000000000000700F8000
0000000000000000E01F0000
0000000000000001C03F0000
0000000000000003807E0000
0000000000000007007C0000
000000000000000E00F80000
000000000000001C01F80000
000000000000003803F00000
000000000000007807E00000
00000000000000F007E00000
00000000000001E00FC00000
00000000000003C01F800000
00000000000003803F000000
00000000000007807F000000
0000FF8000000F007E000000
0007C07000001E00FC000000
001F001800003C01FC000000
007C000C00007803F8000000
00F000040000F807F0000000
01E000020001F007E0000000
03C000020001E00FE0000000
078000020003C01FC0000000
0F0000020007C03F80000000
1E0038023FFFFFFF80000000
1C007002003E00FF00000000
3C00C004007C01FE00000000
3800C00400F801FE00000000
7000800800F003FC00000000
7000801801E003FC00000000
6000C03003C007F800000000
E00070C0078007F000000000
E0003F000F0007F000000000
C00000001E000FE000000000
C00000003C000FC000000000
C000000078000FC000000000
C0000000F0001F8000000000
C0000001E0001F8000000000
60000003C0001F0000000000
6000000780001F0000000000
2000000F00001E0000000000
3000003C00001E0000000000
1800007800001E0000000000
0C0001E000001C0000000000
070007C000000C0000000000
01F9FF0000000C0000000000
003FF00000000C0400000000
000000000000040C00000000
000000000000021800000000
00000000000001F000000000
ENDCHAR
STARTCHAR 00C3
ENCODING 195
SWIDTH 1027 0
DWIDTH 74 0
BBX 90 79 11 -4
BITMAP
000000000000020000000000
000000000000020000000000
000000000000020000000000
0000000000FFFC0000000000
0000000003FFF00000000000
0000000007FFE00000000000
000000000000000000000000
000000000000000000000000
000000000000000000000000
000000000000000000000000
000000000000000000000000
000000000000000000000000
000000000000000000000000
000000000000000000000000
000000000000000000000000
0000000000000000000001C0
000000000000000000000FC0
000000000000000000003F80
00000000000000000000F780
000000000000000000038F00
0000000000000000000E1E00
0000000000000000001C3C00
000000000000000000307800
000000000000000000E0F800
000000000000000001C1F000
00000000000000000303E000
00000000000000000603C000
00000000000000000C07C000
0000000000000000380F8000
0000000000000000701F0000
0000000000000000E03F0000
0000000000000001C07E0000
000000000000000380FC0000
000000000000000701FC0000
000000000000000E01F80000
000000000000001C03F00000
000000000000003807F00000
00000000000000780FE00000
00000000000000701FC00000
00000000000000E01F800000
00000000000001C03F800000
00000000000003807F000000
0000000000000780FE000000
0000000000000F01FE000000
0000FF8000001E01FC000000
0007C07000003C03F8000000
001F001800003C07F8000000
007C000C0000780FF0000000
00F000040000F01FE0000000
01E000020001F01FE0000000
03C000020003E03FC0000000
078000020007C07F80000000
0F000002000780FF80000000
1E0038023FFFFFFF00000000
1C007002003E00FF00000000
3C00C004007C01FE00000000
3800C00400F801FC00000000
7000800801F003FC00000000
7000801803E003F800000000
6000C03007C003F800000000
E00070C0078007F000000000
E0003F000F0007E000000000
C00000001E000FE000000000
C00000003C000FC000000000
C000000078000FC000000000
C0000000F0001F8000000000
C0000001E0001F8000000000
60000003C0001F0000000000
6000000780001F0000000000
6000000E00001E0000000000
3000003C00001E0000000000
1800007800001E0000000000
0C0001E000001C0000000000
0700078000000C0000000000
01F9FE0000000C0000000000
003FF00000000C1000000000
000000000000043000000000
000000000000066000000000
00000000000003C000000000
ENDCHAR
STARTCHAR 00C4
ENCODING 196
SWIDTH 1152 0
DWIDTH 83 0
BBX 99 68 12 -4
BITMAP
000000000000000000003803C0
000000000000000000007C07E0
000000000000000000007C07E0
000000000000000000003803C0
00000000000000000000004000
0000000000000000000003E000
000000000000000000001FC000
0000000000000000000079C000
00000000000000000001E78000
000000000000000000070F0000
0000000000000000000C1E0000
000000000000000000381C0000
000000000000000000603C0000
000000000000000001C0780000
00000000000000000300F00000
00000000000000000601E00000
00000000000000000C03C00000
00000000000000001807C00000
0000000000000000700F800000
0000000000000000E01F000000
0000000000000001C03E000000
0000000000000003807E000000
0000000000000007007C000000
000000000000000C00F8000000
000000000000001C01F8000000
000000000000003803F0000000
000000000000007007E0000000
00000000000000E00FC0000000
00000000000001E00FC0000000
00000000000003C01F80000000
00000000000007803F00000000
0000000000000F007E00000000
0000000000001E00FE00000000
0000FF8000003E01FC00000000
0007C0E000003C01F800000000
001E003000007803F800000000
007800180000F007F000000000
00E000080001E00FE000000000
01C000040003E01FE000000000
038000040007C01FC000000000
07000004000F803FC000000000
0E000004001F007F8000000000
1C0030047FFFFFFF8000000000
18004004007C01FF0000000000
3800800800F803FE0000000000
3001000801E003FE0000000000
6001001003C007FC0000000000
60010030078007F80000000000
400180600F000FF80000000000
C000C1800E000FF00000000000
C0007F001E000FE00000000000
800000003C001FE00000000000
8000000078001FC00000000000
80000000F0001F800000000000
80000001E0003F800000000000
80000003C0003F000000000000
C000000780003F000000000000
C000000E00003E000000000000
4000003C00003E000000000000
6000007800003C000000000000
300000E000003C000000000000
180003C0000038000000000000
0E000F00000018000000000000
03F1FC00000018000000000000
007FE0000000080C0000000000
00000000000008180000000000
00000000000006300000000000
00000000000003E00000000000
ENDCHAR
STARTCHAR 00C5
ENCODING 197
SWIDTH 1152 0
DWIDTH 83 0
BBX 99 76 12 -3
BITMAP
00000000000000000000001F00
00000000000000000000003F80
000000000000000000000071C0
000000000000000000000060E0
0000000000000000000000C060
0000000000000000000000C060
0000000000000000000000C060
0000000000000000000000C060
0000000000000000000000E0E0
000000000000000000000071C0
00000000000000000000003F80
00000000000000000000001F00
0000000000000000000000C000
0000000000000000000007C000
000000000000000000001FC000
000000000000000000007DC000
00000000000000000001E38000
00000000000000000003870000
0000000000000000000E0F0000
000000000000000000381E0000
000000000000000000703C0000
000000000000000000C0780000
00000000000000000380F00000
00000000000000000701F00000
00000000000000000C03E00000
00000000000000001807C00000
0000000000000000300F800000
0000000000000000601F800000
0000000000000001C03F000000
0000000000000003807E000000
0000000000000007007C000000
000000000000000E00FC000000
000000000000001C01F8000000
000000000000003803F0000000
000000000000007807F0000000
00000000000000F00FE0000000
00000000000001E00FC0000000
00000000000003C01FC0000000
00000000000007803F80000000
0000000000000F807F00000000
0000000000000F00FE00000000
0000000000001E00FE00000000
0001FF8000003C01FC00000000
000F80E000007803F800000000
003E00300000F007F000000000
007800080001F00FF000000000
01E0000C0003E00FE000000000
03C000040007C01FC000000000
07800004000F803F8000000000
0F007004000F007F8000000000
0E0060043FFFFFFF0000000000
1C00C004007C01FE0000000000
3801800C00F803FE0000000000
3001000801E003FC0000000000
7001001803C007F80000000000
60018030078007F80000000000
600180600F0007F00000000000
C000C1C01E000FE00000000000
C0007F003E000FE00000000000
C00000007C001FC00000000000
8000000078001FC00000000000
80000000F0001F800000000000
80000001E0003F000000000000
80000003C0003F000000000000
8000000700003E000000000000
C000001E00003E000000000000
4000003C00003E000000000000
6000007800003C000000000000
300000E000003C000000000000
180003C0000038000000000000
0E000F00000018000000000000
03F3FC00000018000000000000
007FE0000000180C0000000000
00000000000008180000000000
00000000000004300000000000
00000000000003E00000000000
ENDCHAR
STARTCHAR 00C6
ENCODING 198
SWIDTH 1555 0
DWIDTH 112 0
BBX 115 62 19 -2
BITMAP
0000000000000000000001E0000000
000000000000000000000FC0000000
000000000000000000003FC0000000
000000000000000000007380000000
00000000000000000000C700000000
000000000000000000030E00FFF800
0000000000000000000C1C3FF81F00
0000000000000000001038FF000180
000000000000000000607BF80000C0
00000000000000000080FFE00000E0
00000000000000000101FF800000E0
00000000000000000603FF000000E0
00000000000000000C07FC000001E0
0000000000000000180FF8000003C0
0000000000000000201FF0000007C0
0000000000000000C01FE000000F80
0000000000000001803FC000001F00
0000000000000003007FC000003C00
000000000000000600FF800000F000
000000000000000C01FF800007C000
000000000000001803FF00003F0000
000000000000003803FF0001F80000
00000000000000F007FE001F800000
00000000000001E00FF607F8000000
00000000000003C01FE7FC00000000
00000000000003803FC60000000000
00000000000007803FC60000000000
0000000000000F007F860000000000
0000000000001E00FF070000000000
0001FF8000003C01FE7FFFFC000000
0007C0E000007803FDF81FF8000000
001E00300000F007FFE000F0000000
007800180001F007FF000000000000
00E000080003E00FFE000000000000
01C0000C0007C01FF8000000000000
038000040007803FE0000000000000
07000004000F003FC0000000000000
0E000004001E007F80000000000000
1C0040043FFFFFFF000000FF000000
3800800C00F801FE00000707800000
3801000801F003FC00001801C00000
7002001803E003F800002001C00000
7002001003C007F80000C000C00000
60030020078007F000010000C00000
E00300C00F000FE000000000C00000
C00183801E000FE000000000C00000
C000FE003C001FC000000001800000
C00000007C001FC000000001800000
8000000078003FC000000003000000
80000000F0003F8000000002000000
80000001E0003F8000000006000000
80000003C0007F800000000C000000
8000000780007F8000000018000000
8000000F00007F8000000030000000
C000001E00007F8000000040000000
4000003C00007FC000000180000000
6000007800003FC000000200000000
300001E000003FE000000C00000000
180003C000001FF000003000000000
0C000F0000000FF80000C000000000
03807C00000003FE000F0000000000
00FFE0000000007FFFF00000000000
ENDCHAR
STARTCHAR 00C7
ENCODING 199
SWIDTH 1041 0
DWIDTH 75 0
BBX 66 72 31 -13
BITMAP
001FF0000000000000
00FC0F000000000000
01E003C00000000000
078000E00000000000
0F000030000007FE00
1E00000000007F8180
3C0000000003FC00C0
38000000001FE00040
70000000007F800040
6000000001FC000040
E000000007F00000C0
E00000001FE00000C0
C00000007F80000180
C0000000FE00000380
C0000003FC00000700
C000000FF000000E00
C000001FE000003C00
6000003F8000007800
600000FF000001E000
200001FE000003C000
300003F800000F0000
100007F000003E0000
08000FE00000F80000
04001FC00007E00000
03003F80003F800000
00807F0001FC000000
0060FE001FE0000000
001DFC03FF00000000
0003FFFFE000000000
0003F0000000000000
0003E0000000000000
0007C0000000000000
0007C000000FE00000
000F8000007FF00000
000F000000F0780000
001F000003803C0000
001E000006001C0000
003C00001C001C0000
003C000030001C0000
0038000060001C0000
00380000C0001C0000
007800018000380000
007000010000380000
007000000000300000
007000000000700000
006000000000600000
006000000000C00000
006000000001800000
006000000001000000
006000000003000000
006000000006000000
00600000000C000000
007000000010000000
003000000060000000
0030000000C0000000
003800000180000000
001800000600000000
001C00001C00000000
000F00007000000000
000780018000000000
0003F01E0000000000
0001FFE00000000000
0003C0000000000000
000380000000000000
000780000000000000
000F00000000000000
000380000000000000
000180000000000000
002180000000000000
006180000000000000
006200000000000000
007C00000000000000
ENDCHAR
STARTCHAR 00C8
ENCODING 200
SWIDTH 1000 0
DWIDTH 72 0
BBX 65 80 31 1
BITMAP
000000F80000000000
000000F80000000000
000000780000000000
000000780000000000
000000380000000000
000000380000000000
0000001C0000000000
0000000C0000000000
0000000C0000000000
000000060000000000
000000020000000000
000000010000000000
000000000000000000
000000000000000000
000000000000000000
000000000000000000
000000000000000000
000000000000000000
000000000000000000
000000000000000000
000000000000000000
001FFFC00000000000
00F803E00000000000
03C000300000000000
0F0000000003FFE000
1C000000003F803C00
3800000003F8000700
780000000FC0000300
700000003F00000380
F0000000FC00000380
E0000003F800000380
E0000007F000000380
E000000FC000000700
E000001F8000000F00
E000003F0000001E00
6000007F0000003800
7000007E0000007000
300000FC000001C000
180000FC0000070000
0E0001F80000380000
070001F80001C00000
01E001F8003E000000
003F01F80FC0000000
0003FFFFF000000000
000001F80000000000
000000F80000000000
000000F80000000000
000000780000000000
0000001E0000000000
000000FFFFC0000000
00000FE00000000000
00007F000000000000
0003FC000000000000
000FF0000000000000
003FC0000000000000
00FF80000000000000
01FE000007F8000000
03FC0000183E000000
07F80000600E000000
0FF000008007000000
1FE000010007000000
3FC000020007000000
3F8000040007000000
7F8000000007000000
7F000000000E000000
FF000000000C000000
FE000000001C000000
FE0000000018000000
FE0000000030000000
FE0000000060000000
FE00000000C0000000
FE0000000180000000
7E0000000300000000
7E0000000C00000000
3F0000003800000000
1F0000006000000000
0F8000038000000000
07E0001C0000000000
01FF1FE00000000000
001FFC000000000000
ENDCHAR
STARTCHAR 00C9
ENCODING 201
SWIDTH 1000 0
DWIDTH 72 0
BBX 65 78 31 0
BITMAP
0000001F0000000000
0000001E0000000000
0000003C0000000000
000000380000000000
000000700000000000
000000E00000000000
000001800000000000
000003000000000000
00000C000000000000
000000000000000000
000000000000000000
000000000000000000
000000000000000000
000000000000000000
000000000000000000
000000000000000000
000000000000000000
000000000000000000
000000000000000000
001FFFC00000000000
00F803E00000000000
03C000300000000000
070000000003FFE000
1C000000003F803C00
3800000003F8000700
380000000FC0000300
700000003F00000380
70000000FC00000380
E0000003F800000380
E0000007F000000380
E000000FC000000700
E000001F8000000F00
E000003F0000001E00
6000007F0000003800
7000007E0000007000
300000FC000001C000
180000FC0000070000
0E0001F80000380000
070001F80001C00000
01E001F8001E000000
003F01F80FE0000000
0003FFFFF000000000
000001F80000000000
000000F80000000000
000000F80000000000
000000780000000000
0000001E0000000000
000000FFFFE0000000
00000FF00000000000
00007F000000000000
0003FC000000000000
000FF0000000000000
003FC0000000000000
00FF80000000000000
01FE000003F8000000
03FC00001C1E000000
07F80000600E000000
0FF00000C007000000
1FE000018007000000
3FC000030007000000
3FC000040007000000
7F8000000007000000
7F000000000E000000
FF000000000C000000
FE000000001C000000
FE0000000018000000
FE0000000030000000
FE0000000060000000
FE00000000C0000000
FE0000000180000000
7E0000000300000000
7E0000000C00000000
3F0000003800000000
1F0000006000000000
0F8000038000000000
07E0001C0000000000
01FF1FE00000000000
001FFC000000000000
ENDCHAR
STARTCHAR 00CA
ENCODING 202
SWIDTH 1000 0
DWIDTH 72 0
BBX 65 79 31 0
BITMAP
0000001F0000000000
0000003F0000000000
0000007F0000000000
000000FF0000000000
000001EE0000000000
000003C60000000000
000007060000000000
00000E040000000000
000018040000000000
000030040000000000
000040040000000000
000000000000000000
000000000000000000
000000000000000000
000000000000000000
000000000000000000
000000000000000000
000000000000000000
000000000000000000
000000000000000000
001FFFC00000000000
00F803E00000000000
03C000300000000000
0F0000000003FFE000
1C000000003F803C00
3800000003F8000700
780000000FC0000300
700000003F00000380
F0000000FC00000380
E0000003F800000380
E0000007F000000380
E000000FC000000700
E000001F8000000F00
E000003F0000001E00
6000007F0000003800
7000007E0000007000
300000FC000001C000
180000FC0000070000
0E0001F80000380000
070001F80001C00000
01E001F8001E000000
003F01F80FE0000000
0003FFFFF000000000
000001F80000000000
000000F80000000000
000000F80000000000
000000780000000000
0000001E0000000000
000000FFFFE0000000
00000FE00000000000
00007F000000000000
0003FC000000000000
000FF0000000000000
003FC0000000000000
00FF80000000000000
01FE000003F8000000
03FC00001C1E000000
07F80000600E000000
0FF00000C007000000
1FE000018007000000
3FC000030007000000
3F8000040007000000
7F8000000007000000
7F000000000E000000
FF000000000C000000
FE000000001C000000
FE0000000018000000
FE0000000030000000
FE0000000060000000
FE00000000C0000000
FE0000000180000000
7E0000000300000000
7E0000000C00000000
3F0000003800000000
1F0000006000000000
0F8000038000000000
07E0001C0000000000
01FF1FE00000000000
001FFC000000000000
ENDCHAR
STARTCHAR 00CB
ENCODING 203
SWIDTH 1000 0
DWIDTH 72 0
BBX 65 72 31 0
BITMAP
00000E070000000000
00001F0F8000000000
00001F0F8000000000
00000E070000000000
000000000000000000
000000000000000000
000000000000000000
000000000000000000
000000000000000000
000000000000000000
000000000000000000
000000000000000000
000000000000000000
001FFFC00000000000
00F803E00000000000
03C000300000000000
0F0000000003FFE000
1C000000003F803C00
3800000003F8000700
780000000FC0000300
700000003F00000380
F0000000FC00000380
E0000003F800000380
E0000007F000000380
E000000FC000000700
E000001F8000000F00
E000003F0000001E00
6000007F0000003800
7000007E0000007000
300000FC000001C000
180000FC0000070000
0E0001F80000380000
070001F80001C00000
01E001F8001E000000
003F01F80FE0000000
0003FFFFF000000000
000001F80000000000
000000F80000000000
000000F80000000000
000000780000000000
0000001E0000000000
000000FFFFE0000000
00000FE00000000000
00007F000000000000
0003FC000000000000
000FF0000000000000
003FC0000000000000
00FF80000000000000
01FE000003F8000000
03FC00001C1E000000
07F80000600E000000
0FF00000C007000000
1FE000018007000000
3FC000030007000000
3F8000040007000000
7F8000000007000000
7F000000000E000000
FF000000000C000000
FE000000001C000000
FE0000000018000000
FE0000000030000000
FE0000000060000000
FE00000000C0000000
FE0000000180000000
7E0000000300000000
7E0000000C00000000
3F0000003800000000
1F0000006000000000
0F8000038000000000
07E0001C0000000000
01FF1FE00000000000
001FFC000000000000
ENDCHAR
STARTCHAR 00CC
ENCODING 204
SWIDTH 750 0
DWIDTH 54 0
BBX 78 79 14 1
BITMAP
00000000FC0000000000
000000007C0000000000
000000007C0000000000
000000003E0000000000
000000003E0000000000
000000001E0000000000
000000000E0000000000
000000000F0000000000
00000000070000000000
00000000030000000000
00000000018000000000
00000000008000000000
00000000004000000000
00000000000000000000
00000000000000000000
00000000000000000000
00000000000000000000
00000000000000000000
00000000000000000000
0000000000000000001C
000000000000000000FC
00000000000000001FF8
0000000000000007FCE0
00000000000001FF81C0
0000000000001FF00700
000000000001FF000E00
00000000000FF0003C00
00000000007F80007800
0000000001FE0000F000
0000000003F80001F000
000000000FE00003E000
000000001F800007C000
000000003F00000F8000
000000007E00001F0000
00000000FC00003F0000
00000000F800003E0000
00000001F000007C0000
00000003E00000F80000
00000003E00001F80000
00000003C00003F00000
00000007C00007E00000
0000000780000FC00000
0000000780001FC00000
0000000780001F800000
0000000700003F000000
0000000300007F000000
000000038000FE000000
000000018000FC000000
00000000E039FC000000
0000FF003FC3F8000000
0007E0E00003F8000000
001F00300007F0000000
007C0018000FE0000000
00F0000C000FE0000000
03E00004001FC0000000
07806004003F80000000
0F00C004007F00000000
0E008004007F00000000
1C01800400FE00000000
3C01000C01FC00000000
3801000803F800000000
7001001003F000000000
7001803007E000000000
E00080600FE000000000
E000E1801FC000000000
C0003E003F8000000000
C00000007F0000000000
C0000000FC0000000000
C0000001F80000000000
C0000003F00000000000
C0000007E00000000000
6000000F800000000000
6000001F000000000000
3000003E000000000000
380000F8000000000000
0C0001E0000000000000
07000F80000000000000
01F9FE00000000000000
003FE000000000000000
ENDCHAR
STARTCHAR 00CD
ENCODING 205
SWIDTH 750 0
DWIDTH 54 0
BBX 77 78 14 0
BITMAP
000000001F0000000000
000000003E0000000000
000000007C0000000000
00000000780000000000
00000000E00000000000
00000001C00000000000
00000003000000000000
00000006000000000000
00000000000000000000
00000000000000000000
00000000000000000000
00000000000000000000
00000000000000000000
00000000000000000000
00000000000000000000
00000000000000000030
000000000000000000F8
00000000000000000FF0
0000000000000001FDE0
000000000000007FC380
0000000000000FFC0E00
0000000000007FC01C00
000000000007FC003800
00000000001FE0007800
00000000007F0000F000
0000000001FC0001E000
0000000007F00003C000
000000000FC000078000
000000001F00000F8000
000000003E00001F0000
000000007C00003E0000
000000007800007C0000
00000000F000007C0000
00000001E00000F80000
00000001E00001F00000
00000003C00003F00000
00000003800007E00000
0000000780000FC00000
0000000700000FC00000
0000000700001F800000
0000000700003F000000
0000000600007F000000
0000000600007E000000
000000020000FC000000
000000020001FC000000
000000020001F8000000
000000010003F8000000
00000000C077F0000000
0000FF003F07E0000000
0007E0E0000FE0000000
001F0030001FC0000000
007C0018001FC0000000
00F0000C003F80000000
03E01004007F00000000
07806004007F00000000
0F00400400FE00000000
0E00C00401FC00000000
1C01800401F800000000
3C01000C03F800000000
3801000807F000000000
700100100FE000000000
700180300FC000000000
E00080601F8000000000
E000E1803F0000000000
C0003E007E0000000000
C0000000FC0000000000
C0000001F80000000000
C0000003F00000000000
C0000007E00000000000
C000000FC00000000000
6000001F000000000000
6000003E000000000000
3000007C000000000000
380000F0000000000000
1C0003C0000000000000
07000F80000000000000
01F9FC00000000000000
003FE000000000000000
ENDCHAR
STARTCHAR 00CE
ENCODING 206
SWIDTH 750 0
DWIDTH 54 0
BBX 78 79 14 0
BITMAP
000000000F8000000000
000000001F8000000000
000000003F8000000000
000000007F0000000000
00000000F70000000000
00000001C30000000000
00000003830000000000
00000006060000000000
0000000C060000000000
00000038060000000000
00000020040000000000
00000000000000000000
00000000000000000000
00000000000000000000
00000000000000000000
00000000000000000000
00000000000000000000
00000000000000000000
0000000000000000003C
000000000000000001FC
00000000000000003FF0
000000000000000FF8E0
00000000000003FF8380
0000000000003FF00700
000000000003FF001E00
00000000000FF0003C00
00000000007F80007800
0000000001FE0000F000
0000000003F80001E000
000000000FE00003E000
000000001FC00007C000
000000003F00000F8000
000000007E00001F0000
00000000FC00003F0000
00000000F800003E0000
00000001F000007C0000
00000001F00000F80000
00000003E00001F80000
00000003E00003F00000
00000007C00007E00000
00000007C0000FE00000
0000000780000FC00000
0000000780001F800000
0000000780003F800000
0000000700007F000000
0000000300007E000000
000000018000FE000000
000000018001FC000000
00000000E039F8000000
0000FF003FC3F8000000
0007E0E00007F0000000
001F00300007F0000000
007C0018000FE0000000
00F0000C001FC0000000
03E00004003FC0000000
07806004003F80000000
0F00C004007F00000000
0E00800400FE00000000
1C01800400FE00000000
3C01000C01FC00000000
3801000803F800000000
7001001007F000000000
7001803007E000000000
E00080600FC000000000
E000E1801F8000000000
C0003E003F0000000000
C00000007E0000000000
C0000000FC0000000000
C0000001F80000000000
C0000003F00000000000
C0000007E00000000000
6000000F800000000000
6000001F000000000000
3000003C000000000000
380000F8000000000000
0C0003E0000000000000
07000F80000000000000
01F9FE00000000000000
003FE000000000000000
ENDCHAR
STARTCHAR 00CF
ENCODING 207
SWIDTH 750 0
DWIDTH 54 0
BBX 78 72 14 0
BITMAP
00000003078000000000
000000078FC000000000
000000078FC000000000
00000003078000000000
00000000000000000000
00000000000000000000
00000000000000000000
00000000000000000000
00000000000000000000
00000000000000000000
00000000000000000000
0000000000000000003C
000000000000000001FC
00000000000000003FF8
000000000000000FF8E0
00000000000001FF8380
0000000000003FF00700
000000000001FF001E00
00000000000FF0003C00
00000000007FC0007800
0000000001FE0000F000
0000000003F80001E000
000000000FE00003E000
000000001FC00007C000
000000003F00000F8000
000000007E00001F0000
000000007C00001F0000
00000000F800003E0000
00000001F000007C0000
00000001F00000F80000
00000003E00001F80000
00000003E00003F00000
00000007C00007E00000
00000007C0000FE00000
0000000780000FC00000
0000000780001F800000
0000000780003F800000
0000000700007F000000
0000000300007E000000
000000018000FE000000
000000018001FC000000
00000000E039F8000000
0000FF003FC3F8000000
0007E0E00007F0000000
001F00300007F0000000
007C0018000FE0000000
00F0000C001FC0000000
03E01004003FC0000000
07806004003F80000000
0F004004007F00000000
0E00C00400FE00000000
1C01800400FE00000000
3C01000C01FC00000000
3801000803F800000000
7001001007F000000000
7001803007E000000000
E00080600FC000000000
E000E1801F8000000000
C0003E003F0000000000
C00000007E0000000000
C0000000FC0000000000
C0000001F80000000000
C0000003F00000000000
C0000007E00000000000
6000000F800000000000
6000001F000000000000
3000003C000000000000
380000F8000000000000
0C0003E0000000000000
07000F80000000000000
01F9FE00000000000000
003FE000000000000000
ENDCHAR
STARTCHAR 00D1
ENCODING 209
SWIDTH 1097 0
DWIDTH 79 0
BBX 115 77 11 -2
BITMAP
000000000000004000000000000000
000000000000004000000000000000
000000000000004000000000000000
00000000001FFF8000000000000000
00000000007FFF0000000000000000
0000000000FFFC0000000000000000
000000000000000000000000000000
000000000000000000000000000000
000000000000000000000000000000
000000000000000000000000000000
000000000000000000000000000000
000000000000000000000000000000
000000000000000000000000000000
000000000000000000000000000000
000000000000000000000000000000
000000000000000000000000000000
000000000000000000000000000000
0000000000000000000E0000001FE0
0000000000000000001C0000007C00
00000000000000000038000001F000
00000000000000000070000003C000
000000000000000001F00000078000
000000000000000001E000001F0000
000000000000000003E000003E0000
000000000000000007C00000780000
00000000000000000FC00000F00000
00000000000000001FC00001E00000
000000000000000037800003C00000
00000000000000006F800007800000
0000000000000000EF80000F000000
0000000000000001DF00001E000000
00000000000000039F00003C000000
00000000000000073F000078000000
000000000000000E3E0000F8000000
000000000000000E7E0000F0000000
000000000000001C7E0001E0000000
00000000000000387E0003C0000000
0000000000000070FC000780000000
00000000000000F0FC000F00000000
00000000000001E0FC000E00000000
00000000000003C1FC001E00000000
00000000000007C1F8003C00000000
0000000000000781F8007800000000
0000000000000F01F800F000000000
0000000000001F03F800E000000000
0000FF8000003E03F001E000000000
0007C06000007E03F003C000000000
001E00180000FC07F0078000000000
0078000C0001F807F00F0000000000
00F000040003F007E00E0000000000
03E000020003E007E01C0000000000
078000020007C007E03C0000000000
0F006002000F800FE0780000000000
0E004002001F000FC0700000000000
1C008002003F000FC0E00000000000
3C008006007E000FC1C00000000000
3801000400FC001F83800000000000
7001000C01F8001F87800000000000
7001001803F0001F87000000000000
E001003007E0001F0E000000000000
E00080600FC0001F1C000000000000
E00061C01FC0001F38000000000000
C0003F003F80003E78000000000000
C00000007F00003E70000000000000
C0000000FC00003EE0000000000000
C0000001F800003DC0000000000000
C0000003F000003FC0000000000000
40000007E000007F80000000000000
6000000FC000007F00000000000000
2000001F8000007E00000000000000
3000003E0000007E00000000000000
180000FC0000007C00000000000000
0C0001F00000007800000000000000
03000FC00000007800000000000000
00F9FF000000007000000000000000
003FF0000000006000000000000000
000000000000004000000000000000
ENDCHAR
STARTCHAR 00D2
ENCODING 210
SWIDTH 805 0
DWIDTH 58 0
BBX 62 80 14 1
BITMAP
000000003F800000
000000001F800000
000000000F800000
000000000F800000
0000000007800000
0000000007800000
0000000003C00000
0000000001C00000
0000000000C00000
0000000000600000
0000000000200000
0000000000100000
0000000000000000
0000000000000000
0000000000000000
0000000000000000
0000000000000000
0000000000000000
0000000000000000
0000000000000000
0000000000000000
0000000000000000
0000000000000000
0000000000000000
00000000003FFF80
0000000001FFC0C0
000000000FFE0030
000000003FF80010
00000000FFE00008
00000003FBC00008
0000000FE7800004
0000003FCF000004
0000007F1E000004
000001FE3C000004
000003FC78000004
000007F0F0000004
00001FE1E0000004
00003FC1E000000C
00007F83C000000C
0000FF078000000C
0001FE0700000018
0003FC0F00000018
0007F81E00000038
000FF01E00000030
001FE01C00000070
003FC03C00000060
007F8038000000E0
00FF0038000001E0
01FE0070000001C0
01FC007000000380
03F8007000000780
07F8006000000700
07F0006000000F00
0FE0006000001E00
1FC0006000003C00
1FC0006000003C00
3F80006000007800
3F8000300000F000
3F0000180001E000
7F000007E003C000
7E0000000007C000
7E000000000F8000
FC000000001F0000
FC000000003E0000
FC000000007C0000
F800000000F80000
F800000001F00000
F800000003C00000
F800000007800000
F80000000F000000
780000001C000000
7800000078000000
38000000F0000000
3C000001C0000000
1C00000700000000
0E00001E00000000
0700007800000000
038003E000000000
00FCFF0000000000
001FF00000000000
ENDCHAR
STARTCHAR 00D3
ENCODING 211
SWIDTH 805 0
DWIDTH 58 0
BBX 62 78 14 0
BITMAP
0000000003E00000
0000000003C00000
0000000007800000
000000000F000000
000000001E000000
000000003C000000
0000000070000000
00000001C0000000
0000000200000000
0000000000000000
0000000000000000
0000000000000000
0000000000000000
0000000000000000
0000000000000000
0000000000000000
0000000000000000
0000000000000000
0000000000000000
0000000000000000
0000000000000000
0000000000000000
00000000003FFF80
0000000001FFC0C0
000000000FFE0030
000000003FF80010
00000000FFE00008
00000003FBC00008
0000000FE7800004
0000003FCF000004
0000007F1E000004
000001FE3C000004
000003FC78000004
000007F0F0000004
00001FE1E0000004
00003FC1E000000C
00007F83C000000C
0000FF078000000C
0001FE0700000018
0003FC0F00000018
0007F81E00000038
000FF01E00000030
001FE01C00000070
003FC03C00000060
007F8038000000E0
00FF0038000001E0
01FE0070000001C0
01FC007000000380
03F8007000000780
07F8006000000700
07F0006000000F00
0FE0006000001E00
1FC0006000003C00
1FC0006000003C00
3F80006000007800
3F8000300000F000
3F0000180001E000
7F000007E003C000
7E0000000007C000
7E000000000F8000
FC000000001F0000
FC000000003E0000
FC000000007C0000
F800000000F80000
F800000001F00000
F800000003C00000
F800000007800000
F80000000F000000
780000001C000000
7800000078000000
38000000F0000000
3C000001C0000000
1C00000700000000
0E00001E00000000
0700007800000000
038003E000000000
00FCFF0000000000
001FF00000000000
ENDCHAR
STARTCHAR 00D4
ENCODING 212
SWIDTH 805 0
DWIDTH 58 0
BBX 62 79 14 0
BITMAP
0000000003E00000
0000000007E00000
000000000FE00000
000000001FE00000
000000003CC00000
0000000070C00000
00000000E0C00000
0000000180C00000
0000000300800000
0000000C00800000
0000001800800000
0000000000000000
0000000000000000
0000000000000000
0000000000000000
0000000000000000
0000000000000000
0000000000000000
0000000000000000
0000000000000000
0000000000000000
0000000000000000
0000000000000000
00000000003FFF80
0000000001FFC0C0
000000000FFE0030
000000003FF80010
00000000FFE00008
00000003FBC00008
0000000FE7800004
0000003FCF000004
0000007F1E000004
000001FE3C000004
000003FC78000004
000007F0F0000004
00001FE1E0000004
00003FC1E000000C
00007F83C000000C
0000FF078000000C
0001FE0700000018
0003FC0F00000018
0007F81E00000038
000FF01E00000030
001FE01C00000070
003FC03C00000060
007F8038000000E0
00FF0038000001E0
01FE0070000001C0
01FC007000000380
03F8007000000780
07F8006000000700
07F0006000000F00
0FE0006000001E00
1FC0006000003C00
1FC0006000003C00
3F80006000007800
3F8000300000F000
3F0000180001E000
7F000007E003C000
7E0000000007C000
7E000000000F8000
FC000000001F0000
FC000000003E0000
FC000000007C0000
F800000000F80000
F800000001F00000
F800000003C00000
F800000007800000
F80000000F000000
780000001C000000
7800000078000000
38000000F0000000
3C000001C0000000
1C00000700000000
0E00001E00000000
0700007800000000
038003E000000000
00FCFF0000000000
001FF00000000000
ENDCHAR
STARTCHAR 00D5
ENCODING 213
SWIDTH 805 0
DWIDTH 58 0
BBX 62 76 14 0
BITMAP
0000000000080000
0000000000080000
0000000000080000
00000007FFF00000
0000001FFFE00000
0000003FFF800000
0000000000000000
0000000000000000
0000000000000000
0000000000000000
0000000000000000
0000000000000000
0000000000000000
0000000000000000
0000000000000000
0000000000000000
0000000000000000
0000000000000000
0000000000000000
0000000000000000
00000000003FFF00
0000000003FFC0C0
000000000FFE0020
000000007FF80010
00000001FEE00008
00000007FFC00008
0000000FF7800004
0000003FCF000004
0000007F9E000004
000001FE3C000004
000003FC78000004
00000FF8F0000004
00001FE0E0000004
00003FC1E000000C
00007F83C000000C
0000FF078000000C
0001FE0700000018
0003FC0F00000018
000FF80E00000038
000FF01E00000030
001FE01C00000070
003FC03C00000060
007F8038000000E0
00FF0038000001E0
01FE0070000001C0
01FC007000000380
03FC007000000780
07F8006000000700
07F0006000000F00
0FE0006000001E00
1FE0006000003C00
1FC0006000003C00
3F80002000007800
3F8000300000F000
3F0000180001E000
7F000007E003C000
7E0000000007C000
7E000000000F8000
FC000000001F0000
FC000000003E0000
FC000000007C0000
F800000000F80000
F800000001F00000
F800000003C00000
F800000007800000
F80000000F000000
780000001C000000
7800000078000000
38000000F0000000
3C000001C0000000
1C00000700000000
0E00001E00000000
0700007800000000
038003E000000000
00FCFF0000000000
001FF00000000000
ENDCHAR
STARTCHAR 00D6
ENCODING 214
SWIDTH 847 0
DWIDTH 61 0
BBX 65 63 14 0
BITMAP
000000000000070380
0000000000000F8780
0000000000000F8780
000000000000070380
000000000000000000
000000000000000000
000000000000000000
00000000003FFF8000
0000000001FF80E000
000000000FFE003000
000000003FF8001000
00000000FFE0000800
00000003FBC0000800
0000000FE780000400
0000001FCF00000400
0000007F1E00000400
000001FE3C00000400
000003FC7800000400
000007F0F000000400
00001FE1E000000400
00003FC1C000000C00
00007F83C000000C00
0000FF078000000C00
0001FE070000001800
0003FC0F0000001800
0007F80E0000003800
000FF01E0000003000
001FE01C0000007000
003FC03C0000007000
007F8038000000E000
00FF0038000001E000
01FE0070000001C000
01FC00700000038000
03FC00700000078000
07F800600000070000
07F0006000000F0000
0FE0006000001E0000
1FE0006000003C0000
1FC0006000003C0000
3F8000200000780000
3F8000300000F00000
3F0000180001E00000
7F00000FE003C00000
7E0000000007C00000
7E000000000F800000
FC000000001F000000
FC000000003E000000
FC000000007C000000
FC00000000F8000000
F800000001F0000000
F800000003C0000000
F80000000780000000
F80000000F00000000
780000001C00000000
780000007800000000
38000000F000000000
3C000001C000000000
1C0000070000000000
0E00001E0000000000
070000780000000000
03C001E00000000000
00FCFF000000000000
001FF0000000000000
ENDCHAR
STARTCHAR 00D8
ENCODING 216
SWIDTH 805 0
DWIDTH 58 0
BBX 62 75 14 -9
BITMAP
0000000000003000
0000000000006000
0000000000004000
000000000000C000
0000000000018000
0000000000010000
0000000000030000
0000000000020000
0000000000040000
00000000007FFF80
0000000003F800E0
000000001FF80030
000000007FF00010
00000001FFA00008
00000007F7600008
0000000FCE400004
0000003F9CC00004
000000FE38800004
000001FC71800004
000003F8E3000004
00000FF1E3000004
00001FC1C6000004
00003F838600000C
00007F070C00000C
0000FE070800000C
0003FC0E18000018
0007F80E10000018
000FF01C30000038
001FE01C60000030
003FC03860000070
003F8038C0000060
007F0070C00000E0
00FF0071800001C0
01FE0071000001C0
03FC006300000380
03F8006600000780
07F0006600000700
0FF0006C00000F00
0FE0006C00001E00
1FC0007800003C00
1FC0007800003800
3F80007000007800
3F8000E00000F000
7F0000E00001E000
7E0001C00003C000
7E0001C000078000
7E000380000F0000
FC000380001E0000
FC000700003E0000
FC000700007C0000
F8000E0000F00000
F8000E0001E00000
F8001C0003C00000
F800180007800000
780018000E000000
780030001C000000
7800300078000000
38006000E0000000
1C006001C0000000
1C00C00700000000
0E00C01C00000000
0701807000000000
01C103C000000000
007B7E0000000000
0007E00000000000
0006000000000000
0004000000000000
000C000000000000
0018000000000000
0018000000000000
0030000000000000
0020000000000000
0060000000000000
0040000000000000
00C0000000000000
ENDCHAR
STARTCHAR 00D9
ENCODING 217
SWIDTH 1041 0
DWIDTH 75 0
BBX 85 84 25 -3
BITMAP
00000001FC000000000000
00000000FC000000000000
00000000FC000000000000
000000007C000000000000
000000003E000000000000
000000003E000000000000
000000001E000000000000
000000000E000000000000
0000000007000000000000
0000000007000000000000
0000000003800000000000
0000000001800000000000
0000000000400000000000
0000000000000000000000
0000000000000000000000
0000000000000000000000
0000000000000000000000
0000000000000000000000
0000000000000000000000
0000000000000000000000
0000000000000000000000
0000000000000000000000
0000000000000000000000
0000000000000000000038
0000000000000000000070
00000000000000000000F0
0000000000000F000001E0
0000000000003F000003C0
0001FFC00000EF00000780
000F007000019E00000F00
0078001C00063C00001E00
00E00006001C7800003C00
038000000031F00000F800
070000000063E00001F000
0E000000018F800003E000
1C000000031F000007C000
380000000C3E00000F8000
30000000187C00001F0000
7000000031F800003E0000
60000000C3F000007C0000
E000000187E00000F80000
E00000070FC00001F80000
C000000C1F800003F00000
C00000383F000007E00000
C0000070FE00000FC00000
C00001C1FC00000F800000
60000383F800001F800000
60000E07F000003F000000
3000380FE000007E000000
1801E01FC00000FC000000
0E0F803F800001F8000000
03FC007F000003F0000000
000000FF000007F0000000
000001FE00000FE0000000
000003FC00001FC0000000
000003F800003FC0000000
000007F000007F80000000
00000FE00000FF00000000
00001FC00001FE00000000
00003FC00003FE00000000
00003F800007FC00000000
00007F00000DF800000000
0000FE00001BF800000000
0000FE000033F000000000
0001FC000067E000000000
0001F80000C7C000000000
0003F800018FC000000000
0003F000030F8000000000
0003F000061F0000000000
0003E0001C1F0000000000
0003E000383E0000000000
0003C000703E0000000000
0003C000E03C0000000000
00038001C07C0000000000
0003800380780000000000
0003800700780000000000
0003801C00780000000000
0001803800700000000000
0001C0E000700000000000
0000F7C000700000000000
00003E0000301800000000
0000000000381000000000
00000000001C6000000000
00000000000F8000000000
ENDCHAR
STARTCHAR 00DA
ENCODING 218
SWIDTH 1041 0
DWIDTH 75 0
BBX 85 81 25 -3
BITMAP
000000000F800000000000
000000001F000000000000
000000001E000000000000
000000003C000000000000
0000000078000000000000
00000000E0000000000000
0000000180000000000000
0000000700000000000000
0000001800000000000000
0000000000000000000000
0000000000000000000000
0000000000000000000000
0000000000000000000000
0000000000000000000000
0000000000000000000000
0000000000000000000000
0000000000000000000000
0000000000000000000000
0000000000000000000000
0000000000000000000010
0000000000000000000038
0000000000000000000070
00000000000000000000E0
0000000000000F000003E0
0000000000003F000007C0
0001FFC00000EF00000F80
000F007000019E00001F00
0078001C00063C00003E00
00E00006001C7800007C00
038000000031F00000F800
070000000063E00001F000
0E000000018F800003E000
1C000000031F000007C000
380000000C3E00000F8000
30000000187C00001F0000
7000000031F800003E0000
60000000C3F000007C0000
E000000187E00000F80000
E00000070FC00001F80000
C000000C1F800003F00000
C00000383F000007E00000
C0000070FE00000FC00000
C00001C1FC00001F800000
60000383F800003F800000
60000E07F000007F000000
3000380FE00000FE000000
1801E01FC00001FC000000
0E0F803F800003F8000000
03FC007F000007F0000000
000000FF000007F0000000
000001FE00000FE0000000
000003FC00001FC0000000
000003F800003FC0000000
000007F000007F80000000
00000FE00000FF00000000
00001FC00001FE00000000
00003FC00003FE00000000
00003F800007FC00000000
00007F00000DF800000000
0000FE00001BF800000000
0000FE000033F000000000
0001FC000067E000000000
0001F80000C7C000000000
0003F800018FC000000000
0003F000070F8000000000
0003F0000E1F0000000000
0003E0001C1F0000000000
0003E000383E0000000000
0003C000703E0000000000
0003C000E03C0000000000
00038001C07C0000000000
0003800380780000000000
0003800700780000000000
0003801C00780000000000
0001803800700000000000
0001C0E000700000000000
0000F7C000700000000000
00003E0000301800000000
0000000000381000000000
00000000001C6000000000
00000000000F8000000000
ENDCHAR
STARTCHAR 00DB
ENCODING 219
SWIDTH 1041 0
DWIDTH 75 0
BBX 85 82 25 -3
BITMAP
000000000F800000000000
000000001F800000000000
000000003F800000000000
000000007F800000000000
00000000F7000000000000
00000003C7000000000000
0000000707000000000000
0000000E06000000000000
0000001806000000000000
0000003006000000000000
0000004004000000000000
0000000000000000000000
0000000000000000000000
0000000000000000000000
0000000000000000000000
0000000000000000000000
0000000000000000000000
0000000000000000000000
0000000000000000000000
0000000000000000000000
0000000000000000000000
0000000000000000000038
0000000000000000000070
00000000000000000000F0
0000000000000F000001E0
0000000000003F000003C0
0001FFC00000EF00000780
000F007000019E00000F00
0078001C00063C00001E00
00E00006001C7800003C00
038000000031F00000F800
070000000063E00001F000
0E000000018F800003E000
1C000000031F000007C000
380000000C3E00000F8000
30000000187C00001F0000
7000000031F800003E0000
60000000C3F000007C0000
E000000187E00000F80000
E00000070FC00001F80000
C000000C1F800003F00000
C00000383F000007E00000
C0000070FE00000FC00000
C00001C1FC00001F800000
60000383F800001F800000
60000E07F000003F000000
3000380FE000007E000000
1801E01FC00000FC000000
0E0F803F800001F8000000
03FC007F000003F0000000
000000FF000007F0000000
000001FE00000FE0000000
000003FC00001FC0000000
000003F800003FC0000000
000007F000007F80000000
00000FE00000FF00000000
00001FC00001FE00000000
00003FC00003FE00000000
00003F800007FC00000000
00007F00000DF800000000
0000FE00001BF800000000
0000FE000033F000000000
0001FC000067E000000000
0001F80000C7C000000000
0003F800018FC000000000
0003F000030F8000000000
0003F000061F0000000000
0003E0001C1F0000000000
0003E000383E0000000000
0003C000703E0000000000
0003C000E03C0000000000
00038001C07C0000000000
0003800380780000000000
0003800700780000000000
0003801C00780000000000
0001803800700000000000
0001C0E000700000000000
0000F7C000700000000000
00003E0000301800000000
0000000000381000000000
00000000001C6000000000
00000000000F8000000000
ENDCHAR
STARTCHAR 00DC
ENCODING 220
SWIDTH 1041 0
DWIDTH 75 0
BBX 85 67 25 -3
BITMAP
0000000000000000783C00
0000000000000000F87E00
0000000000000000F87E00
0000000000000000783C00
0000000000000000000000
0000000000000000000010
0000000000000000000038
0000000000000000000070
00000000000000000000E0
0000000000000F000001E0
0000000000003E000007C0
0001FFC00000EE00000F80
000F007800039800001F00
0038000C00063000003E00
00E00006001CE000007C00
038000000031C00000F800
0700000000E7800001F000
0E000000018F000003E000
1C000000031E000007C000
380000000C7C00000F8000
3000000018F800001F0000
7000000071F000003E0000
60000000C3E000007C0000
E00000018FC00000F80000
E00000071F800001F80000
C000000C3F000003F00000
C00000387E000007E00000
C0000070FC000007C00000
C00001C1F800000F800000
60000383F000001F800000
60000E07F000003F000000
3000381FE000007E000000
1800E03FC00000FC000000
0E0F807F800001F8000000
03FC00FF000003F8000000
000000FE000007F0000000
000001FE00000FE0000000
000003FC00001FC0000000
000007F800003FC0000000
00000FF000007F80000000
00001FE00000FF00000000
00003FE00001FE00000000
00003FC00003FE00000000
00007F800007FC00000000
0000FF00000FF800000000
0000FF00001BF800000000
0001FE000033F000000000
0003FC000067E000000000
0003FC0000C7E000000000
0007F800018FC000000000
0007F800030F8000000000
0007F000061F8000000000
0007F0000C1F0000000000
0007E000183E0000000000
0007E000303E0000000000
0007E000403C0000000000
0007C000807C0000000000
0007C00100780000000000
0007C00600780000000000
0003C00C00780000000000
0003C01000700000000000
0001E06000700000000000
0001FB8000700000000000
00007E0000301800000000
0000000000381000000000
00000000001C6000000000
00000000000F8000000000
ENDCHAR
STARTCHAR 00DF
ENCODING 223
SWIDTH 291 0
DWIDTH 21 0
BBX 39 57 1 -9
BITMAP
0000000078
00000001FC
00000003FE
00000007C6
0000000F86
0000001F06
0000003E06
0000007E06
000000FC06
000000F804
000001F00C
000001F00C
000003E018
000007E018
000007C030
00000F8030
00001F8060
00001F00C0
00007E00C0
0001FE0180
0001FC0300
0003FC0600
0001F81C00
0001F03000
0003F1E000
0003FF0000
0007F80000
000FD80000
000FC80000
001F880000
001F080000
003F080200
007E080E00
007E081800
00FC082000
00F818C000
01F81B0000
03F01C0000
03E0380000
07E0380000
07C0780000
0FC1F00000
1F83F00000
1F0CF00000
3F18E00000
3E21E00000
7C41C00000
FC83C00000
0103800000
0107000000
020E000000
060E000000
041C000000
0438000000
0470000000
05C0000000
0300000000
ENDCHAR
STARTCHAR 00E0
ENCODING 224
SWIDTH 347 0
DWIDTH 25 0
BBX 38 40 4 1
BITMAP
0000000FC0
00000007C0
00000007E0
00000003E0
00000001E0
00000001E0
00000000E0
0000000070
0000000070
0000000038
0000000018
000000000C
0000000000
0000000000
0000000000
0000000000
0001FFE000
00071FE000
001E1FC040
003C3F8180
00783F8180
00F87F0300
01F07F0300
03E0FE0600
07C0FC0C00
0FC1FC0C00
1F81F81800
1F03F03000
3F07F02000
3E07E06000
7E0FE0C000
7C1FC18000
FC3F830000
F83F830000
F86F060000
F0EF0C0000
F1CE180000
7186300000
7707E00000
3C03800000
ENDCHAR
STARTCHAR 00E1
ENCODING 225
SWIDTH 347 0
DWIDTH 25 0
BBX 37 37 4 0
BITMAP
00000000F8
00000001F0
00000001E0
00000003C0
0000000780
0000000E00
0000001C00
0000007000
0000008000
0000000000
0000000000
0000000000
0000000000
0001FFE000
00071FE000
001E1FC040
003C3F8180
00783F8180
00F87F0300
01F07F0300
03E0FE0600
07C0FC0C00
0FC1FC0C00
1F81F81800
1F03F03000
3F07F02000
3E07E06000
7E0FE0C000
7C1FC18000
FC3F830000
F83F830000
F86F060000
F0EF0C0000
F1CE180000
7186300000
7707E00000
3C03800000
ENDCHAR
STARTCHAR 00E2
ENCODING 226
SWIDTH 347 0
DWIDTH 25 0
BBX 37 39 4 0
BITMAP
00000000F8
00000001F8
00000003F8
00000007F8
0000000F70
0000001C30
0000003830
0000006020
000000C020
0000030060
0000060040
0000000000
0000000000
0000000000
0000000000
0001FFE000
00071FE000
001E1FC040
003C3F8180
00783F8180
00F87F0300
01F07F0300
03E0FE0600
07C0FC0C00
0FC1FC0C00
1F81F81800
1F03F03000
3F07F02000
3E07E06000
7E0FE0C000
7C1FC18000
FC3F830000
F83F830000
F86F060000
F0EF0C0000
F1CE180000
7186300000
7707E00000
3C03800000
ENDCHAR
STARTCHAR 00E3
ENCODING 227
SWIDTH 347 0
DWIDTH 25 0
BBX 39 36 4 0
BITMAP
0000000002
0000000002
0000000002
000001FFFC
000003FFF8
000007FFE0
0000000000
0000000000
0000000000
0000000000
0000000000
0000000000
0001FFF000
00071FE000
001E1FC000
003C3FC0C0
007C3F80C0
00F87F8180
01F07F0380
03E0FE0300
07E0FE0600
0FC1FC0C00
1F81F80C00
1F83F81800
3F07F03000
3E07E06000
7E0FE0C000
7C1FC0C000
FC3F818000
F83F830000
F86F060000
F0EF0C0000
F1CE180000
7186300000
7707E00000
3C03800000
ENDCHAR
STARTCHAR 00E4
ENCODING 228
SWIDTH 347 0
DWIDTH 25 0
BBX 34 32 4 0
BITMAP
00003C1E00
00007E3F00
00007C1F00
00003C1E00
0000000000
0000000000
0000000000
0000000000
0001FFE000
00071FE000
001E1FC040
003C3F8180
00783F8180
00F87F0300
01F07F0300
03E0FE0600
07C0FC0C00
0FC1FC0C00
1F81F81800
1F03F03000
3F07F02000
3E07E06000
7E0FE0C000
7C1FC18000
FC3F830000
F83F830000
F86F060000
F0EF0C0000
F1CE180000
7186300000
7707E00000
3C03800000
ENDCHAR
STARTCHAR 00E5
ENCODING 229
SWIDTH 347 0
DWIDTH 25 0
BBX 33 38 4 1
BITMAP
000007C000
00000FF000
00001C7000
0000383800
0000301800
0000301800
0000301800
0000383800
00001C7000
00001FE000
000007C000
0000000000
0000000000
0000000000
0001FFE000
00067FC000
001C3FC080
003C3F8180
00783F8380
00F03F0300
01F03E0600
03E07E0600
07C07C0C00
0FC0F81800
1F81F81800
1F01F03000
3F03E06000
3E07E04000
7E07C0C000
7C0F818000
FC1F830000
F83F060000
F86F0C0000
F84E180000
F08C380000
718C700000
7207C00000
3C03800000
ENDCHAR
STARTCHAR 00E6
ENCODING 230
SWIDTH 541 0
DWIDTH 39 0
BBX 47 24 4 0
BITMAP
0001FFE00F80
00073FC03C40
001C3FC0F840
003C3F81F0C2
00F87F07C0C6
01F0FF0F81CC
03E0FE1F038C
07E1FC3E0718
07C1FC7C1E30
0F83F8F83C20
1F03F1F8F040
1F07F3F7C0C0
3E0FE3FF0180
7E0FC7F00100
7C1FC7C00200
7C3F8FC00400
F83F8F800800
F87F0F801000
F0EE1F002000
F0CE1F004000
F18C3F018000
738C7F060000
7607EFBC0000
3C0787E00000
ENDCHAR
STARTCHAR 00E7
ENCODING 231
SWIDTH 347 0
DWIDTH 25 0
BBX 33 37 4 -12
BITMAP
000001E000
0000073000
00001E1000
0000781000
0000F9F180
0001F3E180
0003E7E300
0007C7C700
000F87C600
001F838C00
001F001800
003E003000
007C003000
007C006000
00F800C000
00F0018000
00F0030000
01E0060000
01E00C0000
01C0180000
01C0300000
01C0600000
0180C00000
0081000000
00C6000000
0078000000
0080000000
0180000000
0380000000
0780000000
0F80000000
0380000000
0180000000
C180000000
C100000000
E600000000
7C00000000
ENDCHAR
STARTCHAR 00E8
ENCODING 232
SWIDTH 250 0
DWIDTH 18 0
BBX 35 40 3 0
BITMAP
0000007E00
0000003E00
0000003F00
0000001F00
0000001F00
0000000F00
0000000700
0000000780
0000000380
0000000180
00000000C0
0000000040
0000000020
0000000000
0000000000
0000000000
0000F80000
0003C40000
000F840000
001F0C0000
007E0C0000
00FC1C6000
01F8384000
03F070C000
07E0E18000
0FC3C30000
1F87820000
1F9E060000
3FF00C0000
3F80180000
7E00300000
7C00600000
F800800000
F801000000
F006000000
F00C000000
F038000000
F070000000
7BC0000000
3E00000000
ENDCHAR
STARTCHAR 00E9
ENCODING 233
SWIDTH 250 0
DWIDTH 18 0
BBX 34 37 3 0
BITMAP
00000007C0
0000000780
0000000F00
0000001E00
0000003C00
0000007000
000000E000
0000018000
0000020000
0000000000
0000000000
0000000000
0000000000
0000F80000
0003C40000
000F840000
001F0C0000
007E0C0000
00FC1C6000
01F8384000
03F070C000
07E0E18000
0FC1C30000
1F87820000
1F9E060000
3FF80C0000
3F80180000
7E00300000
7C00600000
F800800000
F801000000
F006000000
F00C000000
F038000000
F070000000
7BC0000000
3E00000000
ENDCHAR
STARTCHAR 00EA
ENCODING 234
SWIDTH 250 0
DWIDTH 18 0
BBX 34 39 3 0
BITMAP
00000007C0
0000000FC0
0000001FC0
0000003FC0
0000007B80
000000E180
000001C180
0000038100
0000060100
00000C0300
0000180200
0000000000
0000000000
0000000000
0000000000
0000F80000
0003C40000
000F840000
001F0C0000
007E0C0000
00FC1C6000
01F8384000
03F070C000
07E0E18000
0FC3C30000
1F87820000
1F9E060000
3FF00C0000
3F80180000
7E00300000
7C00600000
F800800000
F801000000
F006000000
F00C000000
F038000000
F070000000
7BC0000000
3E00000000
ENDCHAR
STARTCHAR 00EB
ENCODING 235
SWIDTH 250 0
DWIDTH 18 0
BBX 35 32 3 0
BITMAP
00000383C0
000007C3E0
000007C3E0
00000383C0
0000000000
0000000000
0000000000
0000000000
0000F80000
0003C40000
000F840000
001F0C0000
007E0C0000
00FC1C6000
01F8384000
03F070C000
07E0E18000
0FC3C30000
1F87820000
1F9E060000
3FF00C0000
3F80180000
7E00300000
7C00600000
F800800000
F801000000
F006000000
F00C000000
F038000000
F070000000
7BC0000000
3E00000000
ENDCHAR
STARTCHAR 00EC
ENCODING 236
SWIDTH 208 0
DWIDTH 15 0
BBX 30 41 5 1
BITMAP
00000FE0
000007E0
000003E0
000003E0
000001E0
000001E0
000000F0
00000070
00000030
00000018
00000008
00000004
00000000
00000000
00000000
00000000
007C0000
007C0000
00F80000
01F80000
01F00000
03E01000
03E03000
07C02000
07806000
0F80C000
0F008000
1F018000
1E030000
3C020000
3C040000
780C0000
70180000
F0300000
E0200000
E0400000
E0C00000
E1800000
E3000000
7E000000
38000000
ENDCHAR
STARTCHAR 00ED
ENCODING 237
SWIDTH 208 0
DWIDTH 15 0
BBX 29 37 5 0
BITMAP
000000F8
000000F0
000001E0
000003C0
00000780
00000E00
00001C00
00007000
00008000
00000000
00000000
00000000
007C0000
00FC0000
00F80000
01F00000
01F00000
03E01000
03E03000
07C02000
07806000
0F80C000
0F008000
1E010000
1E030000
3C020000
3C040000
780C0000
70180000
F0300000
E0200000
E0400000
E0C00000
E1800000
E3000000
7C000000
38000000
ENDCHAR
STARTCHAR 00EE
ENCODING 238
SWIDTH 208 0
DWIDTH 15 0
BBX 29 39 5 0
BITMAP
000000F8
000001F8
000003F8
000007F8
00000F70
00001C30
00003830
00007020
0000C020
00018020
00020020
00000000
00000000
00000000
00000000
007C0000
00F80000
00F80000
01F00000
01F00000
03E01000
03C03000
07C06000
07804000
0F00C000
1F018000
1E010000
3C020000
3C060000
780C0000
78180000
F0100000
E0200000
E0600000
E0C00000
E1800000
E3000000
7E000000
38000000
ENDCHAR
STARTCHAR 00EF
ENCODING 239
SWIDTH 208 0
DWIDTH 15 0
BBX 30 32 5 0
BITMAP
0000F038
0000F87C
0000F87C
0000F078
00000000
00000000
00000000
00000000
007C0000
00FC0000
00F80000
01F00000
01F00000
03E01000
03C03000
07C06000
07804000
0F00C000
0F018000
1E010000
3C020000
3C060000
780C0000
78180000
F0100000
E0200000
E0600000
E0C00000
E1800000
E3000000
7E000000
38000000
ENDCHAR
STARTCHAR 00F1
ENCODING 241
SWIDTH 347 0
DWIDTH 25 0
BBX 43 36 0 0
BITMAP
000000000020
000000000020
000000000020
0000000FFFC0
0000003FFF80
0000003FFE00
000000000000
000000000000
000000000000
000000000000
000000000000
0003F0780000
0003E1BC0000
0007E63C0000
0007CC7C0000
000F987C0400
000FF0F80C00
001FE1F80800
003FC3F01800
003F87E03000
007F0FE06000
007E0FC04000
00FC1F808000
01FC3F818000
01F87F030000
03F07E060000
03E0FE0C0000
07E0FC180000
0FC0F8100000
0FC1F0200000
1F81F0400000
1F01E0800000
3F01C1000000
3E01C2000000
7E00EC000000
FC0078000000
ENDCHAR
STARTCHAR 00F2
ENCODING 242
SWIDTH 291 0
DWIDTH 21 0
BBX 36 40 4 1
BITMAP
0000003F00
0000001F00
0000001F80
0000000F80
0000000780
0000000780
0000000380
00000001C0
00000001C0
00000000E0
0000000060
0000000030
0000000000
0000000000
0000000000
0000000000
0001F00000
0007880000
001F040000
003E040000
007C040000
00F80C0000
01F00C0C00
03E3181800
07C7983000
0F87986000
1F87318000
1F03FE0000
3E03F80000
3E01C00000
7C03800000
7807000000
F80F000000
F00E000000
F01C000000
E038000000
E070000000
61E0000000
7780000000
1E00000000
ENDCHAR
STARTCHAR 00F3
ENCODING 243
SWIDTH 291 0
DWIDTH 21 0
BBX 35 37 4 0
BITMAP
00000003E0
00000003C0
0000000780
0000000F00
0000001E00
0000003800
0000007000
000001C000
0000020000
0000000000
0000000000
0000000000
0000000000
0001F00000
0007880000
001F040000
003E040000
007C040000
00F80C0000
01F00C0C00
03E3181800
07C7983000
0F87986000
1F87318000
1F03FE0000
3E03F80000
3E01C00000
7C03800000
7807000000
F80F000000
F00E000000
F01C000000
E038000000
E070000000
61E0000000
7780000000
1E00000000
ENDCHAR
STARTCHAR 00F4
ENCODING 244
SWIDTH 291 0
DWIDTH 21 0
BBX 35 39 4 0
BITMAP
00000003E0
00000007E0
0000000FE0
0000001FE0
0000003DC0
00000070C0
000000E0C0
0000018080
0000030080
0000040180
0000000100
0000000000
0000000000
0000000000
0000000000
0001F00000
0007880000
001F040000
003E040000
007C040000
00F80C0000
01F00C0400
03E38C0800
07C7983000
0F87986000
1F87398000
1F03FF0000
3E03FC0000
3E01E00000
7C03C00000
7807800000
F807000000
F00E000000
F01C000000
E038000000
E070000000
61E0000000
77C0000000
1F00000000
ENDCHAR
STARTCHAR 00F5
ENCODING 245
SWIDTH 291 0
DWIDTH 21 0
BBX 37 36 4 0
BITMAP
0000000008
0000000008
0000000008
000007FFF0
00000FFFE0
00001FFF80
0000000000
0000000000
0000000000
0000000000
0000000000
0000000000
0001F00000
0007880000
001F040000
003E040000
007C040000
00F80C0200
01F00C0600
03E3180C00
07C7981000
0F87986000
1F87318000
1F03FF0000
3E03F80000
3E01C00000
7C03800000
7807000000
F80F000000
F00E000000
F01C000000
E038000000
E070000000
61E0000000
7780000000
1E00000000
ENDCHAR
STARTCHAR 00F6
ENCODING 246
SWIDTH 305 0
DWIDTH 22 0
BBX 30 32 4 0
BITMAP
0003E0E0
0007F1F0
0007F1F0
0003C0E0
00000000
00000000
00000000
00000000
0001F000
00078800
001F0400
003E0400
007C0400
00F80C04
01F30C0C
03E79C18
07C79810
0F873820
1F8478C0
1F047100
3E03FE00
3E03F800
7C01C000
78038000
F8070000
F00E0000
F01C0000
E0380000
E0700000
61E00000
77C00000
1F000000
ENDCHAR
STARTCHAR 00F7
ENCODING 247
SWIDTH 555 0
DWIDTH 40 0
BBX 32 28 3 3
BITMAP
0003C000
0007E000
000FF000
000FF000
000FF000
000FF000
0007E000
0003C000
00000000
00000000
00000000
00000000
00000000
FFFFFFFF
FFFFFFFF
FFFFFFFF
FFFFFFFF
00000000
00000000
00000000
0003C000
0007E000
000FF000
000FF000
000FF000
000FF000
0007E000
0003C000
ENDCHAR
STARTCHAR 00F8
ENCODING 248
SWIDTH 319 0
DWIDTH 23 0
BBX 30 37 5 -6
BITMAP
00000100
00000100
00000300
00000200
00000200
00000600
00000400
0000FC00
00038C00
000F0400
001E0400
007C0400
00F80400
01F00C04
03E38C08
07C7CC10
0F879C60
1F073880
1E03FF00
3E01F800
7C01E000
7C03C000
F8078000
F00F0000
F01E0000
E03C0000
E0700000
60E00000
73800000
1E000000
10000000
20000000
20000000
40000000
40000000
80000000
80000000
ENDCHAR
STARTCHAR 00F9
ENCODING 249
SWIDTH 361 0
DWIDTH 26 0
BBX 35 42 6 -2
BITMAP
0000007F00
0000003F00
0000003F00
0000001F00
0000001F00
0000000F00
0000000700
0000000780
0000000380
0000000180
00000000C0
0000000040
0000000020
0000000000
0000000000
0000000000
0000000000
007C0FC000
00F81F8000
00F81F8000
01F83F0000
01F03E0000
03E07E0200
03E07C0600
07C0F80C00
0780F80C00
0F81F01800
0F03F03000
1F03E06000
1E07C04000
3C0FC0C000
3C0F818000
781F810000
783F020000
703E040000
F05E080000
E09C180000
E11C300000
C218600000
C418C00000
DC0B800000
700E000000
ENDCHAR
STARTCHAR 00FA
ENCODING 250
SWIDTH 361 0
DWIDTH 26 0
BBX 34 37 6 0
BITMAP
00000007C0
0000000780
0000000F00
0000001E00
0000003C00
0000007800
000000E000
0000038000
0000040000
0000000000
0000000000
0000000000
007C0FC000
00F81F8000
00F81F8000
01F03F0000
01F03E0000
03E07E0200
03E07C0600
07C0F80C00
0780F80800
0F81F01800
0F03F03000
1E03E06000
1E07C04000
3C0FC0C000
3C0F818000
781F830000
783F060000
F07E040000
E05E080000
E09C100000
E11C300000
C218600000
C418C00000
D80F000000
7006000000
ENDCHAR
STARTCHAR 00FB
ENCODING 251
SWIDTH 361 0
DWIDTH 26 0
BBX 34 40 6 -1
BITMAP
00000007C0
0000000FC0
0000001FC0
0000003FC0
00000079C0
000000F180
000001C180
0000038180
0000060100
00000C0100
0000100100
0000000000
0000000000
0000000000
0000000000
007C0FC000
00F81F8000
00F81F8000
01F03F0000
01F03E0000
03E07E0200
03E07C0600
07C0F80C00
0780F80800
0F81F01800
0F03F03000
1E03E06000
1E07C04000
3C0FC0C000
3C0F818000
781F830000
783F060000
F07E040000
E05E080000
E09C100000
E11C300000
C218600000
C418C00000
D80F000000
7006000000
ENDCHAR
STARTCHAR 00FC
ENCODING 252
SWIDTH 361 0
DWIDTH 26 0
BBX 31 33 6 -1
BITMAP
0000E070
0001F0F8
0001F0F8
0001E0F0
00000000
00000000
00000000
00000000
007C0FC0
00F81F80
00F81F80
01F83F00
01F03E00
03E07E02
03E07C06
07C0F80C
0781F808
0F81F018
0F03F030
1E07E060
1E07C060
3C0FC0C0
3C1F8180
781F8300
783F0200
F07E0600
E0DE0C00
E19C1800
E31C3000
C3186000
C618C000
DC0F8000
700E0000
ENDCHAR
STARTCHAR 00FF
ENCODING 255
SWIDTH 375 0
DWIDTH 27 0
BBX 53 56 -11 -25
BITMAP
0000000000E070
0000000001F0F8
0000000001F0F8
0000000000E070
00000000000000
00000000000000
00000000000000
00000000000000
000000FC0FC000
000001F81F8000
000001F81F8000
000003F03F0000
000007F07E0100
000007E07E0300
00000FC0FC0600
00001FC1F80C00
00001F81F80C00
00003F03F01800
00003E03F03000
00007E07E06000
0000FC0FC06000
0000F81FC0C000
0001F01F818000
0001F03F030000
0003E07F060000
0003E0FE0C0000
0003C1FC100000
0003C3FC200000
000386F8C00000
00038DF9800000
0003F9F6000000
0001E1FC000000
000003F0000000
000007E0000000
00000780000000
00000F80000000
00001F00000000
0000FF00000000
00033E00000000
001C3E00000000
00787C00000000
00E07800000000
03C0F800000000
0780F000000000
0E01E000000000
1C01E000000000
3803C000000000
38078000000000
70070000000000
600F0000000000
E01E0000000000
C03C0000000000
C0780000000000
C0F00000000000
61C00000000000
1F000000000000
ENDCHAR
STARTCHAR 0131
ENCODING 305
SWIDTH 208 0
DWIDTH 15 0
BBX 20 25 5 0
BITMAP
007C00
007C00
00F800
01F800
01F000
03E010
03E030
07C020
078060
0F80C0
0F0080
1F0180
1E0300
3C0200
3C0400
780C00
701800
F03000
E02000
E04000
E0C000
E18000
E30000
7E0000
380000
ENDCHAR
STARTCHAR 0152
ENCODING 338
SWIDTH 1611 0
DWIDTH 116 0
BBX 105 56 35 0
BITMAP
00000000007FFE00000003FFF000
0000000007FF818000007FC03E00
000000001FFC00600003FC000700
000000007FF00020000FE0000380
00000001FFC00010003F80000380
00000007EF80001000FE00000380
0000001FDF00000801F800000780
0000007F3E00000807F000000780
000000FE7C0000080FE000000F00
000003FCF80000081FC000001E00
000007F0F00000083F8000003C00
00000FE1E00000083F0000007800
00001FC3C00000087E000001E000
00007F87800000187E0000078000
0000FF0780000018FC00003C0000
0001FE0F00000010FC0001F00000
0003FC1E00000030FC001F000000
0007F81E00000030FC07F0000000
000FF03C00000060FFF800000000
001FE03800000060FC0000000000
003FC078000000E07C0000000000
007F8070000000C07C0000000000
00FF0070000001C03C0000000000
00FE0070000003801C0000000000
01FE00E0000003800E0000000000
03FC00E000000701FFFFF0000000
03F800E00000061FF00000000000
07F000C000000E7F800000000000
0FF000C000001DFC000000000000
0FE000C000003FF0000000000000
1FC000C000003FC0000000000000
1FC0006000007F80000000000000
3F8000600000FE000003FC000000
3F0000300001FC00000FFE000000
3F00000FC003F800003FFF000000
7E0000000003F000007C0F000000
7E0000000007E00000E007000000
7E000000000FC000018003000000
FC000000001F8000030003000000
FC000000003F0000060003000000
FC000000007F0000000003000000
FC00000000FE0000000006000000
F800000001FE0000000006000000
F800000003FC000000000C000000
F80000000EFC0000000008000000
780000001CFC0000000010000000
7800000038FC0000000030000000
7800000070FC00000000C0000000
38000000C07C0000000180000000
3C000003807E0000000300000000
1C000006003E0000000C00000000
0E00001C003F0000003000000000
07000070000F800001C000000000
038003C00007E0000E0000000000
00FCFE000001FF1FF00000000000
001FE00000001FFE000000000000
ENDCHAR
STARTCHAR 0153
ENCODING 339
SWIDTH 555 0
DWIDTH 40 0
BBX 48 25 4 1
BITMAP
0001F0000FC0
000788003C60
001F080078E0
003E0801F0E0
007C0803E1C1
00F80807C1C1
01F0080F8383
03E3081F0706
07C7083E0E0C
0FC7187C1C1C
0F8638FC3818
1F0439F86030
3F0679F98060
3E02F3F600C0
7C01FFE80180
7C03F7C00300
7807E7C00600
F807CF800C00
F0078F801800
F00F0F003000
E01E0F006000
E0380F018000
607007030000
77C007BC0000
1F0001F00000
ENDCHAR
STARTCHAR 0160
ENCODING 352
SWIDTH 847 0
DWIDTH 61 0
BBX 80 81 9 -2
BITMAP
00000000008008000000
00000000008030000000
00000000008060000000
000000000081C0000000
00000000018780000000
00000000018F80000000
0000000001BF00000000
0000000001FE00000000
0000000003FC00000000
0000000003F800000000
0000000003F000000000
00000000000000000000
00000000000000000000
00000000000000000000
00000000000000000000
00000000000000000000
00000000000000000000
00000000000000000000
00000000000000000000
00000000000000000000
0000000000000000003C
000000000000000001C6
00000000000000000301
00000000000000000E01
00000000000000001C01
00000000000000007803
0000000000000000F003
0000000000000001E006
0000000000000001E006
0000000000000003C00C
00000000000000078018
000000000000000F8038
000000000000001F0070
000000000000001F00E0
000000000000003E03C0
000000000000003E0780
000000000000007C0E00
00000000000000FC1C00
00000000000000FC7800
00000000000000FDF000
0000003FF80001FFC000
000001F80E0001FF0000
00000FC0018003F80000
00001F0000C003F00000
00007C00003003F00000
0000F000001007F00000
0001E00000180FE00000
0003800000081FE00000
00070000000C7FE00000
00060000000CEFE00000
000C000000078FC00000
001C000000071FC00000
00180000000C1FC00000
00300000003C1FC00000
00300000007C3F800000
0060000001CC3F800000
0060000003883F800000
0040000006083F000000
00C000001C187F000000
00C0000030107E000000
00800000E020FE000000
008000038060FC000000
0080000700C0FC000000
0080001C0181F8000000
008000780301F8000000
008000E00E03F0000000
008003C03C03E0000000
00C00F001007C0000000
00C03C00000FC0000000
00407800000F80000000
0061E000001F00000000
806FC000003E00000000
C03F0000007C00000000
60FC0000007800000000
3FF8000001E000000000
000C000003C000000000
00060000070000000000
000180000E0000000000
0000E000300000000000
00003C03C00000000000
000007FC000000000000
ENDCHAR
STARTCHAR 0161
ENCODING 353
SWIDTH 250 0
DWIDTH 18 0
BBX 37 39 4 0
BITMAP
0000008008
0000008030
0000008060
00000081C0
0000018780
0000018F00
000001BF00
000001FE00
000003FC00
000003F800
000003F000
0003800000
0007800000
000F800000
001F000000
003E000000
003C000000
007C000000
00F8000000
00FC000000
01BC002000
031C006000
021C00C000
001E018000
001E010000
001E020000
001E040000
001E180000
003E300000
303E600000
383F800000
4C7F000000
C7FC000000
83F8000000
81F8000000
83F0000000
87E0000000
7F80000000
3E00000000
ENDCHAR
STARTCHAR 0178
ENCODING 376
SWIDTH 1083 0
DWIDTH 78 0
BBX 91 90 17 -19
BITMAP
000000000F07800000000000
000000001F8FC00000000000
000000001F87C00000000000
000000000F07800000000000
000000000000000000000000
000000000000000000000000
000000000000000000000000
000000000000000000000000
000000000000000000000000
000000000000000000000000
000000000000000000000000
000000000000000000000000
000000000000000000000000
000000000000000000000000
000000000000000000000000
000000000000000040000000
0000000000000007C0000000
000000FFC000001F800000E0
000007C07800007F000001C0
00001E000C0001FE00000380
00007800020007FC00000700
0001E00001000FF000000E00
0003C00000003FE000001C00
0007800000005FC000003800
000F00000001BF8000007000
001E000000027F000000E000
001C00000004FE000001C000
003C00000019FC000003C000
003800000027F80000078000
00780000004FF000000F0000
00700000019FE000001E0000
00700000023FC000003E0000
007000000C7F8000007C0000
0070000010FF000000F80000
0070000060FE000003F00000
0030000081FC000007F00000
0038000203F800000FE00000
0038000C07F000001FE00000
001C00300FF000003FC00000
000F03C00FE000006F800000
0003FE001FC00000DF800000
000000003F800001BF000000
000000003F0000033F000000
000000007F0000067E000000
00000000FE00000CFC000000
00000000FC000019FC000000
00000001FC000031F8000000
00000001F8000063F0000000
00000001F80000C7F0000000
00000001F0000187E0000000
00000003F000030FE0000000
00000003E000061FC0000000
00000003E0000C3F80000000
00000003E000103F80000000
00000003C000207F00000000
00000003C000C0FE00000000
00000001C00181FE00000000
00000001C00301FC00000000
00000000C00C03F800000000
00000000E03807F800000000
0000000070E007F000000000
0003FE001F800FE000000000
001F01C000001FE000000000
0078002000003FC000000000
01E0001000003F8000000000
0380001800007F0000000000
070000080000FE0000000000
0E0000080000FE0000000000
1C0000080001FC0000000000
380000080003F80000000000
300000180007F00000000000
700000100007E00000000000
60020020000FC00000000000
60010040001F800000000000
C000C380003F000000000000
C0007E00003E000000000000
80000000007C000000000000
8000000000F0000000000000
8000000001E0000000000000
8000000003C0000000000000
800000000F00000000000000
800000001E00000000000000
400000003800000000000000
40000000F000000000000000
20000003C000000000000000
100000070000000000000000
0800003C0000000000000000
060000F00000000000000000
01C00F800000000000000000
003FF8000000000000000000
ENDCHAR
STARTCHAR 017D
ENCODING 381
SWIDTH 875 0
DWIDTH 63 0
BBX 85 79 5 0
BITMAP
00000000000000C0000000
0000000000080180000000
0000000000080700000000
0000000000081E00000000
0000000000083C00000000
000000000018F800000000
00000000001BF000000000
00000000001FE000000000
00000000001FC000000000
00000000003F8000000000
00000000003F0000000000
0000000000000000000000
0000000000000000000000
0000000000000000000000
0000000000000000000000
0000000000000000000000
0000000000000000000000
0000000000000000000000
0000000000000000000000
0000000000000000000000
0000000000000000000000
0000000000000000000000
0000000000000000000000
0000000000000000000000
0000000000000000000000
0000000000000000000018
00000000007FFFFFFFFFE0
0000000007FFFFFFFFFF80
0000000038000000000E00
00000000C0000000003800
000000030000000000F000
0000000C0000000003C000
00000010000000000F0000
00000020000000003E0000
0000004000000000F80000
0000008000000003F00000
0000008000080007C00000
000001000018001F800000
000001000010007E000000
00000100002000FC000000
0000010000C003F0000000
0000010001800FE0000000
0000018006001F80000000
000000C01C007F00000000
000000607000FC00000000
0000003F8003F800000000
000000000007E000000000
00000000001FC000000000
00000000003F0000000000
0000000000FE0000000000
0000000003F80000000000
0000000007F00000000000
000000001FC00000000000
000000003F000000000000
00000000FE000000000000
00000001F8000000000000
00000007E0003F00000000
0000000F8003C0C0000000
0000003F000E0030000000
0000007C00380010000000
000001F000600008000000
000003C000C00008000000
00000F8000800008000000
00001E0000000008000000
0000380000000018000000
0000E00000000038000000
0001800000000070000000
00030000000000F0000000
000C0000000003E0000000
0018000000000FC0000000
002000000000FF80000000
00C07FFFFFFFFF00000000
010FFFFFFFFFFE00000000
027FFFFFFFFFFC00000000
07FFFFFFFFFFF000000000
1FFFFFFFFFFFC000000000
3FFFFFFFFFFF0000000000
700000FFFFF80000000000
C000003FFC000000000000
ENDCHAR
STARTCHAR 017E
ENCODING 382
SWIDTH 291 0
DWIDTH 21 0
BBX 55 64 -13 -25
BITMAP
00000000002002
0000000000200E
0000000000201C
00000000002078
000000000061F0
000000000063E0
00000000006FC0
00000000007F80
0000000000FF00
0000000000FE00
0000000000FC00
00000000000000
00000000000000
00000000000000
0000000F800000
0000003FC00000
0000007FE00000
000000FFE00000
000001E7E00000
00000383E01000
00000703E03000
00000403E06000
00000007C06000
00000007C0C000
00000007818000
0000000F810000
0000000F020000
0000001F060000
0000001E040000
0000003C080000
00000078100000
00000078200000
000000F0400000
000001C0800000
00000381000000
0003FE02000000
0003FC0C000000
0003FC18000000
00000660000000
000007C0000000
00000700000000
00000F00000000
00003F00000000
0000FF00000000
0007CF00000000
001F1F00000000
003C1E00000000
00F01E00000000
03E03E00000000
07803E00000000
0F007C00000000
1E007C00000000
3C00F800000000
7800F800000000
7001F000000000
E003E000000000
C007C000000000
C0078000000000
800F0000000000
803E0000000000
807C0000000000
C0F00000000000
63E00000000000
3F000000000000
ENDCHAR
STARTCHAR 0192
ENCODING 402
SWIDTH 472 0
DWIDTH 34 0
BBX 73 72 -10 -16
BITMAP
0000000000000001FE00
000000000000000F3F00
00000000000000187F80
00000000000000307F80
00000000000000C07F80
00000000000001C07F80
00000000000003807F00
00000000000007003E00
00000000000006000000
0000000000000E000000
0000000000001C000000
00000000000038000000
00000000000070000000
00000000000070000000
000000000000E0000000
000000000001C0000000
000000000001C0000000
00000000000380000000
00000000000700000000
00000000000F00000000
00000000000E00000000
00000000001C00000000
00000000003C00000000
00000000003800000000
00000000007800000000
0000000000F000000000
000000007FFFFE000000
000000007FFFFE000000
0000000003E000000000
0000000003C000000000
00000000078000000000
00000000078000000000
000000000F0000000000
000000001F0000000000
000000001E0000000000
000000003C0000000000
000000007C0000000000
00000000780000000000
00000000F80000000000
00000000F00000000000
00000001E00000000000
00000003E00000000000
00000003C00000000000
00000007C00000000000
00000007800000000000
0000000F800000000000
0000001F000000000000
0000001E000000000000
0000003E000000000000
0000003C000000000000
0000007C000000000000
000000F8000000000000
000000F8000000000000
000001F0000000000000
000001E0000000000000
000003E0000000000000
000007C0000000000000
00000780000000000000
00000F80000000000000
00000F00000000000000
00001E00000000000000
00003E00000000000000
00003C00000000000000
00007800000000000000
3C00F000000000000000
7F01E000000000000000
FF01C000000000000000
FF038000000000000000
FF070000000000000000
FE1C0000000000000000
7C700000000000000000
3FC00000000000000000
ENDCHAR
STARTCHAR 02C6
ENCODING 710
SWIDTH 194 0
DWIDTH 14 0
BBX 16 11 20 28
BITMAP
001F
003F
007F
00FE
01EE
078E
0E0C
1C0C
380C
6008
C008
ENDCHAR
STARTCHAR 02C7
ENCODING 711
SWIDTH 194 0
DWIDTH 14 0
BBX 15 11 23 28
BITMAP
2002
200C
2018
2070
61E0
63C0
6FC0
7F80
FF00
FE00
FC00
ENDCHAR
STARTCHAR 02D8
ENCODING 728
SWIDTH 194 0
DWIDTH 14 0
BBX 16 10 24 28
BITMAP
C003
C006
C00E
C01C
C038
C070
E1E0
7FC0
7F00
1E00
ENDCHAR
STARTCHAR 02DA
ENCODING 730
SWIDTH 194 0
DWIDTH 14 0
BBX 11 11 24 27
BITMAP
1F00
3FC0
71C0
E0E0
C060
C060
C060
E0E0
71C0
7F80
1F00
ENDCHAR
STARTCHAR 02DC
ENCODING 732
SWIDTH 236 0
DWIDTH 17 0
BBX 17 6 22 30
BITMAP
000080
000080
000080
3FFF00
FFFE00
FFF800
ENDCHAR
STARTCHAR 0394
ENCODING 916
SWIDTH 611 0
DWIDTH 44 0
BBX 40 48 2 0
BITMAP
0000180000
0000380000
00003C0000
00003C0000
00007C0000
00007E0000
0000FE0000
0000FF0000
0000FF0000
0001FF0000
0001FF8000
0003FF8000
0003BFC000
0007BFC000
00079FC000
00071FE000
000F1FE000
000E0FF000
001E0FF000
001E07F000
001C07F800
003C07F800
003803FC00
007803FC00
007801FC00
007001FE00
00F001FE00
00E000FF00
01E000FF00
01E0007F00
01C0007F80
03C0003F80
0380003FC0
0780003FC0
0780001FE0
0700001FE0
0F00000FE0
0E00000FF0
1E00000FF0
1E000007F8
1C000007F8
3C000003F8
38000003FC
78000003FC
78000001FE
FFFFFFFFFE
FFFFFFFFFE
FFFFFFFFFF
ENDCHAR
STARTCHAR 03A9
ENCODING 937
SWIDTH 763 0
DWIDTH 55 0
BBX 44 48 5 0
BITMAP
00007FF00000
0007FFFF0000
003FC07FC000
00FE0007F000
01F80001F800
03F00000FC00
07E000007E00
0FC000003F00
1F8000001F80
3F8000001FC0
3F0000000FC0
7F0000000FE0
7F0000000FE0
7E00000007E0
FE00000007F0
FE00000007F0
FE00000007F0
FE00000007F0
FE00000007F0
FE00000007F0
FE00000007F0
FE00000007F0
FE00000007F0
FE00000007F0
FE00000007F0
7F0000000FE0
7F0000000FE0
3F0000000FC0
3F8000001FC0
1F8000001F80
1FC000003F80
0FE000007F00
07F00000FE00
03F80001FC00
01FE0007F000
007FC03FE000
801FC03F8010
8003C0380010
8000C0300010
C000C0300010
C000C0300030
E000C0300070
FFFFC03FFFF0
FFFFC03FFFF0
FFFFC03FFFF0
FFFFC03FFFF0
FFFFC03FFFF0
FFFFC03FFFF0
ENDCHAR
STARTCHAR 03C0
ENCODING 960
SWIDTH 555 0
DWIDTH 40 0
BBX 35 31 1 0
BITMAP
03FFFFFFE0
1FFFFFFFE0
3FFFFFFFC0
7FFFFFFF80
F03007E000
E03007E000
C03007E000
003007E000
003007E000
003007E000
003007E000
003007E000
003007E000
003007E000
003007E000
003007E000
007007E000
007007E000
007007E000
007007E020
007007E020
80F007E020
80F007E020
C1E007E020
C3E003E060
FFE003E060
FFE003F0C0
7FC003FBC0
7FC001FF80
3F8000FF00
1E00007E00
ENDCHAR
STARTCHAR 2014
ENCODING 8212
SWIDTH 1000 0
DWIDTH 72 0
BBX 67 6 2 23
BITMAP
7FFFFFFFFFFFFFFFE0
7FFFFFFFFFFFFFFFE0
FFFFFFFFFFFFFFFFC0
FFFFFFFFFFFFFFFFC0
FFFFFFFFFFFFFFFFC0
FFFFFFFFFFFFFFFFC0
ENDCHAR
STARTCHAR 2018
ENCODING 8216
SWIDTH 236 0
DWIDTH 17 0
BBX 13 14 31 34
BITMAP
0038
00F0
01C0
0380
0E00
1C00
3C00
3E00
7F00
FF00
FF00
FE00
FE00
7C00
ENDCHAR
STARTCHAR 2019
ENCODING 8217
SWIDTH 222 0
DWIDTH 16 0
BBX 13 14 30 34
BITMAP
00F0
03F8
03F8
07F8
07F8
07F0
07F0
03E0
01C0
0380
0700
1E00
7800
E000
ENDCHAR
STARTCHAR 201A
ENCODING 8218
SWIDTH 208 0
DWIDTH 15 0
BBX 13 15 0 -8
BITMAP
0060
01F0
03F8
07F8
07F8
07F8
07F0
03E0
01C0
0380
0700
0E00
3800
F000
C000
ENDCHAR
STARTCHAR 201C
ENCODING 8220
SWIDTH 347 0
DWIDTH 25 0
BBX 24 14 16 32
BITMAP
001803
00780E
00E038
038070
0700C0
0C0180
1C0380
3E07C0
7F0FE0
FF1FE0
FF1FE0
FF1FE0
FE1FC0
7C0F80
ENDCHAR
STARTCHAR 201D
ENCODING 8221
SWIDTH 347 0
DWIDTH 25 0
BBX 23 14 18 35
BITMAP
00F03C
03F8FE
03F8FE
07F9FE
07F9FE
07F1FC
07F1FC
03E0F8
01C070
0380E0
0601C0
1C0300
700E00
C01800
ENDCHAR
STARTCHAR 201E
ENCODING 8222
SWIDTH 347 0
DWIDTH 25 0
BBX 23 15 0 -8
BITMAP
006018
01F07C
03F8FE
07F9FE
07F9FE
07F9FE
07F1FC
03E0F8
01C070
0380E0
0701C0
0E0380
380F00
F01C00
C01000
ENDCHAR
STARTCHAR 2026
ENCODING 8230
SWIDTH 1000 0
DWIDTH 72 0
BBX 56 9 7 1
BITMAP
3E00003E00007C
7F00007F0000FE
FF8000FF8001FF
FF8000FF8001FF
FF8000FF8001FF
FF8000FF8001FF
FF8000FF8001FF
7F00007F0000FE
3C00003C000078
ENDCHAR
STARTCHAR 2039
ENCODING 8249
SWIDTH 347 0
DWIDTH 25 0
BBX 14 24 14 0
BITMAP
001C
007C
00F8
01F0
07C0
0F00
1C00
3800
7800
F000
F000
7800
7800
7800
3800
3800
1C00
1C00
1C00
0E00
0E00
0700
0300
0180
ENDCHAR
STARTCHAR 203A
ENCODING 8250
SWIDTH 347 0
DWIDTH 25 0
BBX 14 25 15 1
BITMAP
0200
0300
0380
0180
01C0
00C0
00E0
00E0
0070
0070
0070
0038
0038
0038
003C
003C
0038
0070
01C0
0380
0F00
3E00
7800
F000
4000
ENDCHAR
STARTCHAR 2122
ENCODING 8482
SWIDTH 708 0
DWIDTH 51 0
BBX 39 26 10 25
BITMAP
FFFE1C0006
FFFE1C000E
FFFE1C000E
07803E001E
07803E001E
07807E003E
07007E007E
0F007F007E
0F00FF00EE
0F00EF01EE
0F01E701CE
0E01E783CE
1E01C7878E
1E03C7878E
1E03878F0E
1E0783CE0E
1C0783DE0E
3C0703DC0E
3C0F03FC0E
3C0F01F80E
3C1E01F00E
381E01F00E
781E01E00E
783C01E00E
783C00C00E
0000008000
ENDCHAR
STARTCHAR 2202
ENCODING 8706
SWIDTH 500 0
DWIDTH 36 0
BBX 26 45 4 1
BITMAP
001FC000
007FF000
00FF1800
01FE0C00
01FC0600
01F80600
00E00700
00000300
00000380
00000380
00000380
00000380
000003C0
000003C0
000003C0
000003C0
000003C0
000003C0
007F03C0
01FFC3C0
03F0E3C0
0FC033C0
0F8033C0
1F001FC0
3E001FC0
3E000FC0
7C000F80
7C000F80
FC000F80
FC000F80
F8000F80
F8000F00
F8000F00
F8000E00
F8001E00
F8001E00
78001C00
78003C00
78003800
3C007000
3C006000
1E00C000
0F018000
07CF0000
01FC0000
ENDCHAR
STARTCHAR 220F
ENCODING 8719
SWIDTH 819 0
DWIDTH 59 0
BBX 54 68 2 -16
BITMAP
FFFFFFFFFFFFFC
FFFFFFFFFFFFFC
03F00000003F00
03F00000003F00
03F00000003F00
03F00000003F00
03F00000003F00
03F00000003F00
03F00000003F00
03F00000003F00
03F00000003F00
03F00000003F00
03F00000003F00
03F00000003F00
03F00000003F00
03F00000003F00
03F00000003F00
03F00000003F00
03F00000003F00
03F00000003F00
03F00000003F00
03F00000003F00
03F00000003F00
03F00000003F00
03F00000003F00
03F00000003F00
03F00000003F00
03F00000003F00
03F00000003F00
03F00000003F00
03F00000003F00
03F00000003F00
03F00000003F00
03F00000003F00
03F00000003F00
03F00000003F00
03F00000003F00
03F00000003F00
03F00000003F00
03F00000003F00
03F00000003F00
03F00000003F00
03F00000003F00
03F00000003F00
03F00000003F00
03F00000003F00
03F00000003F00
03F00000003F00
03F00000003F00
03F00000003F00
03F00000003F00
03F00000003F00
03F00000003F00
03F00000003F00
03F00000003F00
03F00000003F00
03F00000003F00
03F00000003F00
03F00000003F00
03F00000003F00
03F00000003F00
03F00000003F00
03F00000003F00
03F00000003F00
03F00000003F00
03F00000003F00
FFFFC0000FFFFC
FFFFC0000FFFFC
ENDCHAR
STARTCHAR 2211
ENCODING 8721
SWIDTH 708 0
DWIDTH 51 0
BBX 44 68 3 -15
BITMAP
7FFFFFFFFC00
3FFFFFFFFE00
3FFFFFFFFF00
1FF0001FFF00
0FF00003FF00
07F80000FF00
07FC00007F80
03FE00003F80
01FE00001F80
01FF00000F80
00FF80000F80
007F80000780
003FC0000780
003FE0000380
001FF00003C0
000FF00003C0
0007F8000000
0007FC000000
0003FE000000
0001FE000000
0001FF000000
0000FF800000
00007F800000
00003FC00000
00003FE00000
00001FF00000
00000FF00000
000007F80000
000007FC0000
000003FC0000
000001FE0000
000001FF0000
000000FF8000
0000007F8000
0000003F8000
0000003F0000
0000001E0000
0000003C0000
000000780000
000000F80000
000001F00000
000001E00000
000003C00000
000007800000
00000F000000
00001E000000
00003E000000
00007C000000
0000F8000000
0000F0000000
0001E0000000
0003C00000F0
0007800000E0
000F800000E0
001F000001E0
003E000001E0
003C000003C0
0078000007C0
00F000000FC0
01E000001FC0
03E000007FC0
07C00003FF80
0FFFFFFFFF80
1FFFFFFFFF80
1FFFFFFFFF00
3FFFFFFFFE00
7FFFFFFFFC00
FFFFFFFFF800
ENDCHAR
STARTCHAR 221A
ENCODING 8730
SWIDTH 555 0
DWIDTH 40 0
BBX 43 59 -1 -2
BITMAP
000000000FE0
000000000FE0
000000001FE0
000000001E00
000000001C00
000000003C00
000000003C00
000000003800
000000007800
000000007800
00000000F000
00000000F000
00000000E000
00000001E000
00000001E000
00000001C000
00000003C000
00000003C000
000000038000
000000078000
000000070000
0000000F0000
0000000F0000
0000000E0000
01C0001E0000
0FC0001E0000
7FE0001C0000
FFE0003C0000
F7F0003C0000
03F000780000
03F000780000
03F800700000
01F800F00000
01F800F00000
01FC00E00000
00FC01E00000
00FC01E00000
00FE03C00000
007E03C00000
007E03C00000
003F07800000
003F07800000
003F87000000
001F8F000000
001F8F000000
001FCE000000
000FDE000000
000FDE000000
000FFC000000
0007FC000000
0007F8000000
0003F8000000
0003F8000000
0003F0000000
0001F0000000
0001F0000000
0001E0000000
0000E0000000
0000E0000000
ENDCHAR
STARTCHAR 221E
ENCODING 8734
SWIDTH 708 0
DWIDTH 51 0
BBX 42 26 4 8
BITMAP
01F8000FE000
07FE003FF800
0FFF007FFC00
1FFF80FFFE00
3C0FC1FE0F00
7003E3F80300
6000E7F00180
600077E00080
C0003FC000C0
C0003FC00040
80001F800040
80001F800040
80003F000040
80003F000040
80007E000040
80007E000040
C000FF0000C0
C000FF0000C0
4001FB800080
6003F9C00180
3007F1E00380
3C1FE0F80F00
1FFFC07FFE00
0FFF803FFC00
03FF001FF800
00FC0007E000
ENDCHAR
STARTCHAR 222B
ENCODING 8747
SWIDTH 277 0
DWIDTH 20 0
BBX 30 67 -5 -13
BITMAP
000003E0
00000FF8
00001FFC
00003FFC
000071FC
0000F0FC
0000F0FC
0001E078
0001E000
0003E000
0003E000
0003E000
0007E000
0007C000
0007C000
0007C000
0007C000
0007C000
000FC000
000FC000
000FC000
000FC000
000FC000
000FC000
000FC000
000FC000
000FC000
000FC000
000FC000
000FC000
000FC000
000FC000
000FC000
000FC000
000FC000
000FC000
000FC000
000FC000
000FC000
000FC000
000FC000
000FC000
000FC000
000FC000
000FC000
000FC000
000FC000
000FC000
000FC000
000F8000
000F8000
000F8000
000F8000
000F8000
000F8000
001F0000
001F0000
001F0000
001E0000
101E0000
7C1C0000
FC3C0000
FE380000
FF700000
FFE00000
7FC00000
1F000000
ENDCHAR
STARTCHAR 2248
ENCODING 8776
SWIDTH 555 0
DWIDTH 40 0
BBX 37 19 1 7
BITMAP
0000000008
0000000018
03FF800038
0FFFF000F8
3FFFFF07F8
FFFFFFFFF8
FF03FFFFE0
F8003FFF80
F00003FC08
C000000018
01FF000078
0FFFF000F8
3FFFFF07F8
FFFFFFFFF8
FF01FFFFE0
F8003FFF80
F00003FE00
C000000000
8000000000
ENDCHAR
STARTCHAR 2260
ENCODING 8800
SWIDTH 555 0
DWIDTH 40 0
BBX 33 29 3 2
BITMAP
0000001800
0000003C00
0000007E00
000000FE00
000001FC00
000003F800
000007F000
000007E000
FFFFFFFF80
FFFFFFFF80
FFFFFFFF80
FFFFFFFF80
0001FC0000
0003F80000
0007E00000
000FC00000
001F800000
FFFFFFFF80
FFFFFFFF80
FFFFFFFF80
FFFFFFFF80
03F0000000
07E0000000
0FC0000000
1F80000000
3F00000000
3E00000000
1C00000000
0800000000
ENDCHAR
STARTCHAR 2264
ENCODING 8804
SWIDTH 555 0
DWIDTH 40 0
BBX 33 30 3 2
BITMAP
0000000380
0000003F80
000001FF80
00000FFF80
00007FFF80
0003FFF800
001FFFC000
01FFFE0000
0FFFF00000
7FFF800000
FFFC000000
FFE0000000
FF80000000
FFF8000000
FFFF000000
1FFFE00000
01FFFC0000
003FFF8000
0007FFF800
0000FFFF00
00001FFF80
000003FF80
0000007F80
0000000780
0000000080
0000000000
FFFFFFFF80
FFFFFFFF80
FFFFFFFF80
FFFFFFFF80
ENDCHAR
STARTCHAR 2265
ENCODING 8805
SWIDTH 555 0
DWIDTH 40 0
BBX 33 30 3 2
BITMAP
E000000000
FC00000000
FFC0000000
FFF8000000
FFFF000000
1FFFE00000
03FFFC0000
003FFF8000
0007FFF800
0000FFFF00
00001FFF80
000003FF80
000001FF80
00000FFF80
00007FFF80
0003FFF800
001FFFC000
01FFFE0000
0FFFF00000
7FFF800000
FFFC000000
FFC0000000
FE00000000
F000000000
8000000000
0000000000
FFFFFFFF80
FFFFFFFF80
FFFFFFFF80
FFFFFFFF80
ENDCHAR
STARTCHAR 25CA
ENCODING 9674
SWIDTH 500 0
DWIDTH 36 0
BBX 35 73 0 -16
BITMAP
0000400000
0000400000
0000E00000
0000E00000
0001F00000
0001F00000
0003F80000
0003F80000
0007BC0000
0007BC0000
000F1E0000
000F1E0000
001E1F0000
001E0F0000
003C0F0000
003C078000
0038078000
007803C000
007803C000
00F001E000
00F001E000
01E000F000
01E000F000
03C0007800
03C0007800
0780003C00
0780003C00
0F00003E00
0F00001E00
1E00001E00
1E00000F00
1C00000F00
3C00000780
3C00000780
78000003C0
78000003C0
F0000001E0
78000003C0
78000003C0
3C00000780
3C00000780
1E00000F00
1E00000F00
1E00001E00
0F00001E00
0F00003C00
0780003C00
0780003C00
03C0007800
03C0007800
01E000F000
01E000F000
00F001E000
00F001E000
007803C000
007803C000
0078078000
003C078000
003C0F0000
001E0F0000
001E0E0000
000F1E0000
000F1E0000
0007BC0000
0007BC0000
0003F80000
0003F80000
0001F00000
0001F00000
0000E00000
0000E00000
0000C00000
0000400000
ENDCHAR
STARTCHAR F8FF
ENCODING 63743
SWIDTH 986 0
DWIDTH 71 0
BBX 62 39 17 0
BITMAP
0000000000000004
000000000000000C
000000000000000C
000000000000000C
000000000000000C
000000000000000C
000000000000001C
000000000000003C
00000FE7F000003C
00001FFFFC00007C
0000247FFF00007C
00002CFFFFC000FC
00004CFFFFF001FC
000040FFFFFE03FC
0000407FFFFFFFFC
0000403FFFFFFFFC
000060FFFFFFFFF8
7FFFFFFFFFFFFFF0
C77FF3FFFFFFFFF0
C07FE1FFFFFFFFF0
F07FE1FFFFFFFFF0
707FC1FFFFFFFFE0
107FC1FFFFFFFFE0
10FFC1FFFFFFFFC0
11FFC1FFFFFFFF80
1FFFC1FFFFFFFF00
0FFFC1FFFFFFFC00
03FFC3FFFFFFF000
000FC33FFFFFF000
000FC61FFFFFE000
0007BC1FFFFFE000
0001F03FFFFFE000
0000007FFE7FC000
0000007FFCFFC000
000000FFF8FF8000
000000FFF1FF8000
000001FFE1FF0000
000001FFC1FF0000
000001FF81FE0000
ENDCHAR
STARTCHAR FB01
ENCODING 64257
SWIDTH 750 0
DWIDTH 54 0
BBX 44 31 21 12
BITMAP
000000000020
0000000000E0
0000C00001F0
0001C00007F0
0003E0001FF0
0003E0003FC0
0001F000FF00
0001F001FE00
0000F807F800
0000F80FF000
0000783FC000
00007CFF8000
00007DFE0000
00003FF80000
00003FF00000
00003FC00000
00007F800000
0001FF800000
0007FF800000
000FF7C00000
003FE7C00000
007F83C00000
01FE03E00000
03FC03E00000
0FF001F00000
3FE001F00000
7F8000F80000
FF0000F80000
FC00007C0000
700000780000
600000300000
ENDCHAR
STARTCHAR FB02
ENCODING 64258
SWIDTH 763 0
DWIDTH 55 0
BBX 49 53 4 0
BITMAP
00000000000180
00000000000380
00000000000700
00000000000E00
00000000001C00
00000000003C00
00000000007800
0000000000F000
0000000001E000
0000000003C000
000000000F8000
000000001F0000
000000003E0000
00000000FC0000
00000001F80000
00000003F00000
0000000FF00000
0000001FE00000
00000077C00000
000000E7800000
0000038F000000
0000071E000000
00001E3C000000
00003878000000
000070F8000000
0000C1F0000000
000003E0000000
000007C0000000
00000F80000000
00001F00000000
00003F00000000
00007E00000000
0000FC00000000
0001F800000000
0003F800000000
0007F000000000
000FE000000000
001FC000000000
003F8000000000
007F8000000000
00FF0000000000
01FE0000000000
03FC0000000000
07FC0000000000
07F80000000000
0FF00000000000
1FF00000000000
3FE00000000000
3FC00000000000
7FC00000000000
FF800000000000
FF000000000000
FF000000000000
ENDCHAR
ENDFONT
